SplineFontDB: 2.0
FontName: DejaVuSerif-BoldItalic
FullName: DejaVu Serif Bold Italic
FamilyName: DejaVu Serif
Weight: Bold
Copyright: Copyright (c) 2003 by Bitstream, Inc. All Rights Reserved.\nDejaVu changes are in public domain\n
Version: 2.17
ItalicAngle: -11
UnderlinePosition: -85
UnderlineWidth: 90
Ascent: 1556
Descent: 492
Order2: 1
NeedsXUIDChange: 1
FSType: 0
OS2Version: 0
OS2_WeightWidthSlopeOnly: 0
OS2_UseTypoMetrics: 0
PfmFamily: 17
TTFWeight: 700
TTFWidth: 5
LineGap: 0
VLineGap: 0
Panose: 2 6 8 3 5 3 5 11 2 4
OS2TypoAscent: 1556
OS2TypoAOffset: 0
OS2TypoDescent: -492
OS2TypoDOffset: 0
OS2TypoLinegap: 410
OS2WinAscent: 1923
OS2WinAOffset: 0
OS2WinDescent: 483
OS2WinDOffset: 0
HheadAscent: 1923
HheadAOffset: 0
HheadDescent: -483
HheadDOffset: 0
OS2Vendor: 'PfEd'
Lookup: 6 0 0 "'ccmp' Contextual Chaining Substitution"  {"'ccmp' Contextual Chaining Substitution"  } ['ccmp' ('DFLT' <'dflt' > 'cyrl' <'MKD ' 'SRB ' 'dflt' > 'grek' <'dflt' > 'latn' <'AZE ' 'CRT ' 'GAG ' 'ISM ' 'KAZ ' 'KRK ' 'KSM ' 'LSM ' 'NSM ' 'SKS ' 'SSM ' 'TAT ' 'TRK ' 'dflt' > ) ]
Lookup: 1 0 0 "'locl' Localized Forms in Cyrillic - Serbian"  {"'locl' Localized Forms in Cyrillic - Serbian"  } ['locl' ('cyrl' <'MKD ' 'SRB ' > ) ]
Lookup: 1 0 0 "'locl' Localized Forms in Latin - Sami"  {"'locl' Localized Forms in Latin - Sami"  } ['locl' ('latn' <'ISM ' 'KSM ' 'LSM ' 'NSM ' 'SKS ' 'SSM ' > ) ]
Lookup: 4 0 1 "'liga' Standard Ligatures"  {"'liga' Standard Ligatures"  } ['liga' ('DFLT' <'dflt' > 'cyrl' <'MKD ' 'SRB ' 'dflt' > 'grek' <'dflt' > 'latn' <'AZE ' 'CRT ' 'GAG ' 'ISM ' 'KAZ ' 'KRK ' 'KSM ' 'LSM ' 'NSM ' 'SKS ' 'SSM ' 'TAT ' 'TRK ' 'dflt' > ) ]
Lookup: 4 0 1 "'liga' Standard Ligatures - Without dotless i"  {"'liga' Standard Ligatures - Without dotless i"  } ['liga' ('DFLT' <'dflt' > 'cyrl' <'MKD ' 'SRB ' 'dflt' > 'grek' <'dflt' > 'latn' <'ISM ' 'KSM ' 'LSM ' 'NSM ' 'SKS ' 'SSM ' 'dflt' > ) ]

StartChar: .notdef
Encoding: 0 -1 0
AltUni: 0
Width: 1229
Flags: W
Fore
102 -362 m 1,0,-1
 102 1444 l 1,1,-1
 1126 1444 l 1,2,-1
 1126 -362 l 1,3,-1
 102 -362 l 1,0,-1
217 -248 m 1,4,-1
 1012 -248 l 1,5,-1
 1012 1329 l 1,6,-1
 217 1329 l 1,7,-1
 217 -248 l 1,4,-1
EndSplineSet
EndChar
StartChar: exclam
Encoding: 33 33 33
Width: 899
Flags: W
Fore
149.203 162 m 0,0,1
 164.365 240 164.365 240 230.75 296 c 128,-1,2
 297.136 352 297.136 352 375.136 352 c 0,3,4
 453.136 352 453.136 352 498.25 296 c 128,-1,5
 543.365 240 543.365 240 528.203 162 c 0,6,7
 512.848 83 512.848 83 445.962 27 c 128,-1,8
 379.076 -29 379.076 -29 301.076 -29 c 0,9,10
 223.076 -29 223.076 -29 178.462 27 c 128,-1,11
 133.848 83 133.848 83 149.203 162 c 0,0,1
409.924 1493 m 1,12,-1
 784.924 1493 l 1,13,-1
 502.255 651 l 1,14,-1
 465.323 461 l 1,15,-1
 326.323 461 l 1,16,-1
 363.255 651 l 1,17,-1
 409.924 1493 l 1,12,-1
EndSplineSet
EndChar
StartChar: quotedbl
Encoding: 34 34 34
Width: 1067
Flags: W
Fore
432 1493 m 1,0,-1
 432 938 l 1,1,-1
 195 938 l 1,2,-1
 195 1493 l 1,3,-1
 432 1493 l 1,0,-1
872 1493 m 1,4,-1
 872 938 l 1,5,-1
 635 938 l 1,6,-1
 635 1493 l 1,7,-1
 872 1493 l 1,4,-1
EndSplineSet
EndChar
StartChar: numbersign
Encoding: 35 35 35
Width: 1716
Flags: W
Fore
1024 872 m 1,0,-1
 760 872 l 1,1,-1
 690 598 l 1,2,-1
 954 598 l 1,3,-1
 1024 872 l 1,0,-1
911 1470 m 1,4,-1
 815 1085 l 1,5,-1
 1079 1085 l 1,6,-1
 1176 1470 l 1,7,-1
 1397 1470 l 1,8,-1
 1300 1085 l 1,9,-1
 1577 1085 l 1,10,-1
 1577 872 l 1,11,-1
 1247 872 l 1,12,-1
 1178 598 l 1,13,-1
 1462 598 l 1,14,-1
 1462 383 l 1,15,-1
 1126 383 l 1,16,-1
 1030 0 l 1,17,-1
 809 0 l 1,18,-1
 905 383 l 1,19,-1
 641 383 l 1,20,-1
 545 0 l 1,21,-1
 322 0 l 1,22,-1
 418 383 l 1,23,-1
 139 383 l 1,24,-1
 139 598 l 1,25,-1
 467 598 l 1,26,-1
 537 872 l 1,27,-1
 254 872 l 1,28,-1
 254 1085 l 1,29,-1
 592 1085 l 1,30,-1
 688 1470 l 1,31,-1
 911 1470 l 1,4,-1
EndSplineSet
EndChar
StartChar: dollar
Encoding: 36 36 36
Width: 1425
Flags: W
Fore
84.0088 59 m 1,0,-1
 140.573 350 l 1,1,-1
 260.573 350 l 1,2,3
 251.526 216 251.526 216 317.197 150 c 128,-1,4
 382.868 84 382.868 84 526.868 84 c 2,5,-1
 540.868 84 l 1,6,-1
 619.593 489 l 1,7,8
 381.283 544 381.283 544 291.749 639 c 128,-1,9
 202.216 734 202.216 734 233.899 897 c 0,10,11
 268.888 1077 268.888 1077 411.507 1180.5 c 128,-1,12
 554.125 1284 554.125 1284 775.291 1290 c 1,13,-1
 827.579 1559 l 1,14,-1
 948.579 1559 l 1,15,-1
 896.291 1290 l 1,16,17
 1007.12 1284 1007.12 1284 1105.45 1262.5 c 128,-1,18
 1203.77 1241 1203.77 1241 1293.19 1202 c 1,19,-1
 1240.31 930 l 1,20,-1
 1119.31 930 l 1,21,22
 1125.86 1046 1125.86 1046 1061.9 1110.5 c 128,-1,23
 997.938 1175 997.938 1175 874.326 1177 c 1,24,-1
 802.017 805 l 1,25,26
 1059.55 746 1059.55 746 1149.21 646.5 c 128,-1,27
 1238.87 547 1238.87 547 1203.88 367 c 0,28,29
 1167.92 182 1167.92 182 1021.49 79.5 c 128,-1,30
 875.069 -23 875.069 -23 639.903 -29 c 1,31,-1
 587.421 -299 l 1,32,-1
 466.421 -299 l 1,33,-1
 518.903 -29 l 1,34,35
 409.292 -27 409.292 -27 300.568 -5 c 128,-1,36
 191.845 17 191.845 17 84.0088 59 c 1,0,-1
753.521 1178 m 1,37,38
 666.382 1167 666.382 1167 608.718 1125 c 128,-1,39
 551.055 1083 551.055 1083 539.197 1022 c 0,40,41
 525.591 952 525.591 952 559.732 909 c 128,-1,42
 593.874 866 593.874 866 687.431 838 c 1,43,-1
 753.521 1178 l 1,37,38
661.868 84 m 1,44,45
 765.007 95 765.007 95 825.462 138.5 c 128,-1,46
 885.918 182 885.918 182 900.302 256 c 0,47,48
 914.686 330 914.686 330 875.517 378 c 128,-1,49
 836.347 426 836.347 426 734.372 457 c 1,50,-1
 661.868 84 l 1,44,45
EndSplineSet
EndChar
StartChar: percent
Encoding: 37 37 37
Width: 1946
Flags: W
Fore
572.915 1419 m 0,0,1
 508.915 1419 508.915 1419 467.405 1349.5 c 128,-1,2
 425.896 1280 425.896 1280 393.629 1114 c 0,3,4
 361.168 947 361.168 947 375.561 877 c 128,-1,5
 389.954 807 389.954 807 453.954 807 c 0,6,7
 518.954 807 518.954 807 560.561 877 c 128,-1,8
 602.168 947 602.168 947 634.629 1114 c 0,9,10
 666.896 1280 666.896 1280 652.405 1349.5 c 128,-1,11
 637.915 1419 637.915 1419 572.915 1419 c 0,0,1
592.548 1520 m 0,12,13
 783.548 1520 783.548 1520 864.734 1415.5 c 128,-1,14
 945.922 1311 945.922 1311 907.629 1114 c 0,15,16
 869.336 917 869.336 917 747.427 812 c 128,-1,17
 625.517 707 625.517 707 434.517 707 c 0,18,19
 244.517 707 244.517 707 163.427 812 c 128,-1,20
 82.3359 917 82.3359 917 120.629 1114 c 0,21,22
 158.922 1311 158.922 1311 280.734 1415.5 c 128,-1,23
 402.548 1520 402.548 1520 592.548 1520 c 0,12,13
1504.55 1520 m 1,24,-1
 1676.55 1520 l 1,25,-1
 441.452 -29 l 1,26,-1
 269.452 -29 l 1,27,-1
 1504.55 1520 l 1,24,-1
1510.48 784 m 0,28,29
 1701.48 784 1701.48 784 1782.17 679.5 c 128,-1,30
 1862.86 575 1862.86 575 1824.76 379 c 0,31,32
 1786.47 182 1786.47 182 1664.96 76.5 c 128,-1,33
 1543.45 -29 1543.45 -29 1352.45 -29 c 0,34,35
 1162.45 -29 1162.45 -29 1081.46 76.5 c 128,-1,36
 1000.47 182 1000.47 182 1038.76 379 c 0,37,38
 1076.86 575 1076.86 575 1198.67 679.5 c 128,-1,39
 1320.48 784 1320.48 784 1510.48 784 c 0,28,29
1491.05 684 m 0,40,41
 1426.05 684 1426.05 684 1384.54 614.5 c 128,-1,42
 1343.03 545 1343.03 545 1310.76 379 c 0,43,44
 1278.3 212 1278.3 212 1293.19 142 c 128,-1,45
 1308.08 72 1308.08 72 1372.08 72 c 0,46,47
 1437.08 72 1437.08 72 1478.69 142 c 128,-1,48
 1520.3 212 1520.3 212 1552.76 379 c 0,49,50
 1585.03 545 1585.03 545 1570.54 614.5 c 128,-1,51
 1556.05 684 1556.05 684 1491.05 684 c 0,40,41
EndSplineSet
EndChar
StartChar: ampersand
Encoding: 38 38 38
Width: 1849
Flags: W
Fore
1667.09 0 m 1,0,-1
 1188.09 0 l 1,1,-1
 1086.55 131 l 1,2,3
 971 51 971 51 842.23 11 c 0,4,5
 713.45 -29 713.45 -29 570.45 -29 c 0,6,7
 270.45 -29 270.45 -29 125.83 99 c 0,8,9
 14.68 197.38 14.68 197.38 14.68 352.47 c 0,10,11
 14.68 399.17 14.68 399.17 24.75 451 c 0,12,13
 56.44 614 56.44 614 165.39 729.5 c 0,14,15
 274.34 845 274.34 845 475.48 928 c 1,16,17
 437.5 995 437.5 995 423.86 1056 c 0,18,19
 416.33 1089.66 416.33 1089.66 416.33 1122.11 c 0,20,21
 416.33 1148.45 416.33 1148.45 421.29 1174 c 0,22,23
 453.17 1338 453.17 1338 608.36 1429 c 0,24,25
 763.55 1520 763.55 1520 1012.55 1520 c 0,26,27
 1086.55 1520 1086.55 1520 1182.71 1508 c 0,28,29
 1278.88 1496 1278.88 1496 1398.41 1473 c 1,30,-1
 1337.76 1161 l 1,31,-1
 1208.76 1161 l 1,32,33
 1209.46 1175.29 1209.46 1175.29 1209.46 1188.68 c 0,34,35
 1209.46 1291.57 1209.46 1291.57 1167.95 1342 c 0,36,37
 1121.03 1399 1121.03 1399 1014.03 1399 c 0,38,39
 913.03 1399 913.03 1399 845.7 1351 c 128,-1,40
 778.37 1303 778.37 1303 762.43 1221 c 0,41,42
 760.33 1210.22 760.33 1210.22 760.33 1198.35 c 0,43,44
 760.33 1105.68 760.33 1105.68 888.17 947 c 0,45,46
 904.28 927 904.28 927 912.53 918 c 1,47,-1
 1278.84 436 l 1,48,49
 1352.06 504 1352.06 504 1403.36 593 c 0,50,51
 1454.66 682 1454.66 682 1485.62 795 c 1,52,-1
 1508.95 915 l 1,53,-1
 1826.95 915 l 1,54,-1
 1803.62 795 l 1,55,-1
 1627.62 795 l 1,56,57
 1582.24 649 1582.24 649 1514.78 536 c 0,58,59
 1447.31 423 1447.31 423 1356.4 336 c 1,60,-1
 1520.61 121 l 1,61,-1
 1690.61 121 l 1,62,-1
 1667.09 0 l 1,0,-1
1011.6 229 m 1,63,-1
 560.9 817 l 1,64,65
 492.88 750 492.88 750 450.2 674.5 c 0,66,67
 407.52 599 407.52 599 391.39 516 c 0,68,69
 382.26 469.02 382.26 469.02 382.26 426.67 c 0,70,71
 382.26 316.7 382.26 316.7 443.85 238 c 0,72,73
 529.16 129 529.16 129 693.16 129 c 0,74,75
 771.16 129 771.16 129 849.43 153.5 c 0,76,77
 927.69 178 927.69 178 1011.6 229 c 1,63,-1
EndSplineSet
EndChar
StartChar: quotesingle
Encoding: 39 39 39
Width: 627
Flags: W
Fore
432 1493 m 1,0,-1
 432 938 l 1,1,-1
 195 938 l 1,2,-1
 195 1493 l 1,3,-1
 432 1493 l 1,0,-1
EndSplineSet
EndChar
StartChar: parenleft
Encoding: 40 40 40
Width: 969
Flags: W
Fore
679.769 -319 m 1,0,1
 367.066 -194 367.066 -194 246.356 39 c 128,-1,2
 125.647 272 125.647 272 192.902 618 c 0,3,4
 260.158 964 260.158 964 468.866 1194 c 128,-1,5
 677.573 1424 677.573 1424 1044.23 1556 c 1,6,-1
 1020.91 1436 l 1,7,8
 844.245 1340 844.245 1340 738.104 1151.5 c 128,-1,9
 631.964 963 631.964 963 564.902 618 c 0,10,11
 498.036 274 498.036 274 530.896 85.5 c 128,-1,12
 563.755 -103 563.755 -103 703.094 -199 c 1,13,-1
 679.769 -319 l 1,0,1
EndSplineSet
EndChar
StartChar: parenright
Encoding: 41 41 41
Width: 969
Flags: W
Fore
-78.2314 -319 m 1,0,-1
 -54.9062 -199 l 1,1,2
 121.755 -103 121.755 -103 227.896 85.5 c 128,-1,3
 334.036 274 334.036 274 400.902 618 c 0,4,5
 467.964 963 467.964 963 435.104 1151.5 c 128,-1,6
 402.245 1340 402.245 1340 262.906 1436 c 1,7,-1
 286.231 1556 l 1,8,9
 601.573 1424 601.573 1424 721.366 1194 c 128,-1,10
 841.158 964 841.158 964 773.902 618 c 0,11,12
 706.647 272 706.647 272 494.856 39 c 128,-1,13
 283.066 -194 283.066 -194 -78.2314 -319 c 1,0,-1
EndSplineSet
EndChar
StartChar: asterisk
Encoding: 42 42 42
Width: 1071
Flags: W
Fore
1026 1212 m 1,0,-1
 666 1044 l 1,1,-1
 1026 874 l 1,2,-1
 928 719 l 1,3,-1
 600 958 l 1,4,-1
 627 569 l 1,5,-1
 444 569 l 1,6,-1
 471 958 l 1,7,-1
 143 719 l 1,8,-1
 45 874 l 1,9,-1
 406 1044 l 1,10,-1
 45 1212 l 1,11,-1
 143 1370 l 1,12,-1
 471 1128 l 1,13,-1
 444 1520 l 1,14,-1
 627 1520 l 1,15,-1
 600 1128 l 1,16,-1
 928 1370 l 1,17,-1
 1026 1212 l 1,0,-1
EndSplineSet
EndChar
StartChar: plus
Encoding: 43 43 43
Width: 1716
Flags: W
Fore
973 1284 m 1,0,-1
 973 758 l 1,1,-1
 1499 758 l 1,2,-1
 1499 528 l 1,3,-1
 973 528 l 1,4,-1
 973 2 l 1,5,-1
 743 2 l 1,6,-1
 743 528 l 1,7,-1
 217 528 l 1,8,-1
 217 758 l 1,9,-1
 743 758 l 1,10,-1
 743 1284 l 1,11,-1
 973 1284 l 1,0,-1
EndSplineSet
EndChar
StartChar: comma
Encoding: 44 44 44
Width: 713
Flags: W
Fore
-9.44629 -197 m 1,0,1
 110.882 -113 110.882 -113 180.098 -9 c 128,-1,2
 249.312 95 249.312 95 276.138 233 c 2,3,-1
 292.854 319 l 1,4,-1
 577.854 319 l 1,5,-1
 576.299 311 l 2,6,7
 533.341 90 533.341 90 409.837 -69.5 c 128,-1,8
 286.334 -229 286.334 -229 73.1465 -338 c 1,9,-1
 -9.44629 -197 l 1,0,1
EndSplineSet
EndChar
StartChar: hyphen
Encoding: 45 45 45
Width: 850
Flags: W
Fore
137.241 684 m 1,0,-1
 765.241 684 l 1,1,-1
 712.759 414 l 1,2,-1
 84.7588 414 l 1,3,-1
 137.241 684 l 1,0,-1
EndSplineSet
EndChar
StartChar: period
Encoding: 46 46 46
Width: 713
Flags: W
Fore
166.098 162 m 0,0,1
 181.259 240 181.259 240 248.145 296 c 128,-1,2
 315.029 352 315.029 352 393.029 352 c 0,3,4
 472.029 352 472.029 352 517.145 296 c 128,-1,5
 562.259 240 562.259 240 547.098 162 c 0,6,7
 531.741 83 531.741 83 464.855 27 c 128,-1,8
 397.971 -29 397.971 -29 318.971 -29 c 0,9,10
 240.971 -29 240.971 -29 195.855 27 c 128,-1,11
 150.741 83 150.741 83 166.098 162 c 0,0,1
EndSplineSet
EndChar
StartChar: slash
Encoding: 47 47 47
Width: 748
Flags: W
Fore
689.571 1493 m 1,0,-1
 911.571 1493 l 1,1,-1
 57.4287 -190 l 1,2,-1
 -163.571 -190 l 1,3,-1
 689.571 1493 l 1,0,-1
EndSplineSet
EndChar
StartChar: zero
Encoding: 48 48 48
Width: 1425
Flags: W
Fore
585.195 88 m 0,0,1
 705.195 88 705.195 88 770.883 197 c 128,-1,2
 836.57 306 836.57 306 921.902 745 c 0,3,4
 1006.65 1181 1006.65 1181 983.729 1292 c 128,-1,5
 960.805 1403 960.805 1403 840.805 1403 c 0,6,7
 720.805 1403 720.805 1403 655.117 1294 c 128,-1,8
 589.43 1185 589.43 1185 503.902 745 c 0,9,10
 418.57 306 418.57 306 441.883 197 c 128,-1,11
 465.195 88 465.195 88 585.195 88 c 0,0,1
562.452 -29 m 0,12,13
 263.452 -29 263.452 -29 143.231 170.5 c 128,-1,14
 23.0098 370 23.0098 370 95.9023 745 c 0,15,16
 168.796 1120 168.796 1120 366.672 1320 c 128,-1,17
 564.548 1520 564.548 1520 863.548 1520 c 0,18,19
 1161.55 1520 1161.55 1520 1281.67 1320 c 128,-1,20
 1401.8 1120 1401.8 1120 1328.9 745 c 0,21,22
 1256.01 370 1256.01 370 1058.23 170.5 c 128,-1,23
 860.452 -29 860.452 -29 562.452 -29 c 0,12,13
EndSplineSet
EndChar
StartChar: one
Encoding: 49 49 49
Width: 1425
Flags: W
Fore
133.271 0 m 1,0,-1
 156.791 121 l 1,1,-1
 436.791 121 l 1,2,-1
 671.603 1329 l 1,3,-1
 324.836 1145 l 1,4,-1
 353.799 1294 l 1,5,-1
 772.729 1520 l 1,6,-1
 1087.73 1520 l 1,7,-1
 815.791 121 l 1,8,-1
 1096.79 121 l 1,9,-1
 1073.27 0 l 1,10,-1
 133.271 0 l 1,0,-1
EndSplineSet
EndChar
StartChar: two
Encoding: 50 50 50
Width: 1425
Flags: W
Fore
340.755 1124 m 1,0,-1
 220.755 1124 l 1,1,-1
 283.345 1446 l 1,2,3
 412.537 1483 412.537 1483 535.633 1501.5 c 128,-1,4
 658.729 1520 658.729 1520 780.729 1520 c 0,5,6
 1065.73 1520 1065.73 1520 1202.58 1403.5 c 128,-1,7
 1339.44 1287 1339.44 1287 1299.01 1079 c 0,8,9
 1270.24 931 1270.24 931 1159.4 813.5 c 128,-1,10
 1048.56 696 1048.56 696 769.265 535 c 1,11,-1
 300.198 262 l 1,12,-1
 1007.2 262 l 1,13,-1
 1041.41 438 l 1,14,-1
 1178.41 438 l 1,15,-1
 1093.27 0 l 1,16,-1
 -10.7295 0 l 1,17,-1
 36.7002 244 l 1,18,-1
 287.44 397 l 2,19,20
 608.344 592 608.344 592 728.975 729 c 128,-1,21
 849.604 866 849.604 866 885.176 1049 c 0,22,23
 918.804 1222 918.804 1222 864.896 1312.5 c 128,-1,24
 810.986 1403 810.986 1403 673.986 1403 c 0,25,26
 555.986 1403 555.986 1403 471.088 1331.5 c 128,-1,27
 386.19 1260 386.19 1260 340.755 1124 c 1,0,-1
EndSplineSet
EndChar
StartChar: three
Encoding: 51 51 51
Width: 1425
Flags: W
Fore
312.941 1450 m 1,0,1
 451.744 1485 451.744 1485 579.146 1502.5 c 128,-1,2
 706.548 1520 706.548 1520 824.548 1520 c 0,3,4
 1094.55 1520 1094.55 1520 1220.29 1423.5 c 128,-1,5
 1346.03 1327 1346.03 1327 1311.04 1147 c 0,6,7
 1284.8 1012 1284.8 1012 1185.47 928 c 128,-1,8
 1086.15 844 1086.15 844 920.51 815 c 1,9,10
 1109.48 784 1109.48 784 1185.66 682 c 128,-1,11
 1261.83 580 1261.83 580 1227.42 403 c 0,12,13
 1186.8 194 1186.8 194 999.626 82.5 c 128,-1,14
 812.452 -29 812.452 -29 498.452 -29 c 0,15,16
 380.452 -29 380.452 -29 258.84 -9 c 128,-1,17
 137.228 11 137.228 11 8.00293 51 c 1,18,-1
 71.7598 379 l 1,19,-1
 192.76 379 l 1,20,21
 176.157 237 176.157 237 239.677 162.5 c 128,-1,22
 303.195 88 303.195 88 441.195 88 c 0,23,24
 593.195 88 593.195 88 692.62 172.5 c 128,-1,25
 792.045 257 792.045 257 822.174 412 c 0,26,27
 853.664 574 853.664 574 784.27 662 c 128,-1,28
 714.875 750 714.875 750 555.875 750 c 2,29,-1
 489.875 750 l 1,30,-1
 513.2 870 l 1,31,-1
 565.2 870 l 2,32,33
 712.2 870 712.2 870 799.418 938 c 128,-1,34
 886.636 1006 886.636 1006 912.877 1141 c 0,35,36
 937.563 1268 937.563 1268 881.185 1335.5 c 128,-1,37
 824.805 1403 824.805 1403 694.805 1403 c 0,38,39
 576.805 1403 576.805 1403 495.268 1338.5 c 128,-1,40
 413.73 1274 413.73 1274 375.821 1151 c 1,41,-1
 254.821 1151 l 1,42,-1
 312.941 1450 l 1,0,1
EndSplineSet
EndChar
StartChar: four
Encoding: 52 52 52
Width: 1425
Flags: W
Fore
1159.27 0 m 1,0,-1
 337.271 0 l 1,1,-1
 360.791 121 l 1,2,-1
 582.791 121 l 1,3,-1
 635.662 393 l 1,4,-1
 12.6621 393 l 1,5,-1
 35.0166 508 l 1,6,-1
 856.729 1520 l 1,7,-1
 1232.73 1520 l 1,8,-1
 1038.74 522 l 1,9,-1
 1294.74 522 l 1,10,-1
 1269.66 393 l 1,11,-1
 1013.66 393 l 1,12,-1
 960.791 121 l 1,13,-1
 1182.79 121 l 1,14,-1
 1159.27 0 l 1,0,-1
660.737 522 m 1,15,-1
 801.663 1247 l 1,16,-1
 215.737 522 l 1,17,-1
 660.737 522 l 1,15,-1
EndSplineSet
EndChar
StartChar: five
Encoding: 53 53 53
Width: 1425
Flags: W
Fore
1302.92 1493 m 1,0,-1
 1252 1231 l 1,1,-1
 452.996 1231 l 1,2,-1
 389.239 903 l 1,3,4
 465.152 954 465.152 954 551.206 980 c 128,-1,5
 637.26 1006 637.26 1006 727.26 1006 c 0,6,7
 1003.26 1006 1003.26 1006 1136.14 866.5 c 128,-1,8
 1269.03 727 1269.03 727 1222.38 487 c 0,9,10
 1174.95 243 1174.95 243 988.513 107 c 128,-1,11
 802.076 -29 802.076 -29 514.076 -29 c 0,12,13
 392.076 -29 392.076 -29 275.464 -9 c 128,-1,14
 158.852 11 158.852 11 36.0156 53 c 1,15,-1
 99.3838 379 l 1,16,-1
 219.384 379 l 1,17,18
 196.81 232 196.81 232 253.314 160 c 128,-1,19
 309.819 88 309.819 88 447.819 88 c 0,20,21
 594.819 88 594.819 88 684.966 186.5 c 128,-1,22
 775.112 285 775.112 285 814.377 487 c 0,23,24
 853.059 686 853.059 686 802.705 784.5 c 128,-1,25
 752.352 883 752.352 883 611.352 883 c 0,26,27
 535.352 883 535.352 883 469.729 851.5 c 128,-1,28
 404.105 820 404.105 820 340.276 754 c 1,29,-1
 240.276 754 l 1,30,-1
 383.924 1493 l 1,31,-1
 1302.92 1493 l 1,0,-1
EndSplineSet
EndChar
StartChar: six
Encoding: 54 54 54
Width: 1425
Flags: W
Fore
531.116 885 m 1,0,1
 606.224 937 606.224 937 691.777 963 c 128,-1,2
 777.332 989 777.332 989 872.332 989 c 0,3,4
 1101.33 989 1101.33 989 1205.78 855 c 128,-1,5
 1310.24 721 1310.24 721 1264.75 487 c 0,6,7
 1216.74 240 1216.74 240 1043.6 105.5 c 128,-1,8
 870.452 -29 870.452 -29 599.452 -29 c 0,9,10
 293.452 -29 293.452 -29 171.815 155.5 c 128,-1,11
 50.1787 340 50.1787 340 119.767 698 c 0,12,13
 198.88 1105 198.88 1105 414.214 1312.5 c 128,-1,14
 629.548 1520 629.548 1520 973.548 1520 c 0,15,16
 1063.55 1520 1063.55 1520 1163.63 1505 c 128,-1,17
 1263.72 1490 1263.72 1490 1375.88 1460 c 1,18,-1
 1324.57 1196 l 1,19,-1
 1203.57 1196 l 1,20,21
 1198.4 1298 1198.4 1298 1139.1 1350.5 c 128,-1,22
 1079.8 1403 1079.8 1403 969.805 1403 c 0,23,24
 791.805 1403 791.805 1403 688.591 1281 c 128,-1,25
 585.376 1159 585.376 1159 531.116 885 c 1,0,1
599.195 88 m 0,26,27
 702.195 88 702.195 88 763.203 175.5 c 128,-1,28
 824.212 263 824.212 263 866.197 479 c 0,29,30
 908.184 695 908.184 695 881.192 782.5 c 128,-1,31
 854.2 870 854.2 870 751.2 870 c 0,32,33
 648.2 870 648.2 870 587.692 782.5 c 128,-1,34
 527.184 695 527.184 695 485.197 479 c 0,35,36
 443.212 263 443.212 263 469.703 175.5 c 128,-1,37
 496.195 88 496.195 88 599.195 88 c 0,26,27
EndSplineSet
EndChar
StartChar: seven
Encoding: 55 55 55
Width: 1425
Flags: W
Fore
1350.73 1239 m 1,0,-1
 493.896 0 l 1,1,-1
 290.896 0 l 1,2,-1
 1126.1 1210 l 1,3,-1
 389.096 1210 l 1,4,-1
 349.83 1008 l 1,5,-1
 212.83 1008 l 1,6,-1
 307.104 1493 l 1,7,-1
 1400.1 1493 l 1,8,-1
 1350.73 1239 l 1,0,-1
EndSplineSet
EndChar
StartChar: eight
Encoding: 56 56 56
Width: 1425
Flags: W
Fore
961.622 795 m 1,0,1
 1133.98 766 1133.98 766 1206.66 664 c 128,-1,2
 1279.33 562 1279.33 562 1247.26 397 c 0,3,4
 1207.22 191 1207.22 191 1030.33 81 c 128,-1,5
 853.452 -29 853.452 -29 560.452 -29 c 0,6,7
 267.452 -29 267.452 -29 132.834 81 c 128,-1,8
 -1.78418 191 -1.78418 191 38.2588 397 c 0,9,10
 70.3311 562 70.3311 562 183.158 664 c 128,-1,11
 295.984 766 295.984 766 478.622 795 c 1,12,13
 328.619 831 328.619 831 267.045 915.5 c 128,-1,14
 205.47 1000 205.47 1000 230.739 1130 c 0,15,16
 267.672 1320 267.672 1320 429.109 1420 c 128,-1,17
 590.548 1520 590.548 1520 861.548 1520 c 0,18,19
 1131.55 1520 1131.55 1520 1254.61 1420 c 128,-1,20
 1377.67 1320 1377.67 1320 1340.74 1130 c 0,21,22
 1315.47 1000 1315.47 1000 1220.54 915.5 c 128,-1,23
 1125.62 831 1125.62 831 961.622 795 c 1,0,1
952.962 1126 m 0,24,25
 983.674 1284 983.674 1284 957.239 1343.5 c 128,-1,26
 930.805 1403 930.805 1403 838.805 1403 c 0,27,28
 745.805 1403 745.805 1403 696.739 1343.5 c 128,-1,29
 647.674 1284 647.674 1284 616.962 1126 c 0,30,31
 586.444 969 586.444 969 612.572 910.5 c 128,-1,32
 638.701 852 638.701 852 731.701 852 c 0,33,34
 824.701 852 824.701 852 873.572 910.5 c 128,-1,35
 922.444 969 922.444 969 952.962 1126 c 0,24,25
853.562 414 m 0,36,37
 889.135 597 889.135 597 856.047 666 c 128,-1,38
 822.959 735 822.959 735 708.959 735 c 0,39,40
 593.959 735 593.959 735 534.547 666 c 128,-1,41
 475.135 597 475.135 597 439.562 414 c 0,42,43
 403.603 229 403.603 229 436.398 158.5 c 128,-1,44
 469.195 88 469.195 88 583.195 88 c 0,45,46
 696.195 88 696.195 88 756.898 158.5 c 128,-1,47
 817.603 229 817.603 229 853.562 414 c 0,36,37
EndSplineSet
EndChar
StartChar: nine
Encoding: 57 57 57
Width: 1425
Flags: W
Fore
825.805 1403 m 0,0,1
 722.805 1403 722.805 1403 662.297 1315.5 c 128,-1,2
 601.788 1228 601.788 1228 559.803 1012 c 0,3,4
 517.816 796 517.816 796 544.308 708.5 c 128,-1,5
 570.8 621 570.8 621 673.8 621 c 0,6,7
 776.8 621 776.8 621 837.808 708.5 c 128,-1,8
 898.816 796 898.816 796 940.803 1012 c 0,9,10
 982.788 1228 982.788 1228 955.797 1315.5 c 128,-1,11
 928.805 1403 928.805 1403 825.805 1403 c 0,0,1
894.272 608 m 1,12,13
 817.971 555 817.971 555 732.319 528.5 c 128,-1,14
 646.668 502 646.668 502 552.668 502 c 0,15,16
 324.668 502 324.668 502 220.118 635.5 c 128,-1,17
 115.568 769 115.568 769 161.247 1004 c 0,18,19
 209.454 1252 209.454 1252 381.501 1386 c 128,-1,20
 553.548 1520 553.548 1520 824.548 1520 c 0,21,22
 1130.55 1520 1130.55 1520 1252.59 1335 c 128,-1,23
 1374.63 1150 1374.63 1150 1305.23 793 c 0,24,25
 1226.12 386 1226.12 386 1010.79 178.5 c 128,-1,26
 795.452 -29 795.452 -29 451.452 -29 c 0,27,28
 361.452 -29 361.452 -29 261.368 -14 c 128,-1,29
 161.284 1 161.284 1 49.1152 31 c 1,30,-1
 100.432 295 l 1,31,-1
 221.432 295 l 1,32,33
 226.604 193 226.604 193 285.9 140.5 c 128,-1,34
 345.195 88 345.195 88 456.195 88 c 0,35,36
 632.195 88 632.195 88 736.007 210.5 c 128,-1,37
 839.818 333 839.818 333 894.272 608 c 1,12,13
EndSplineSet
EndChar
StartChar: colon
Encoding: 58 58 58
Width: 756
Flags: W
Fore
251.271 813 m 0,0,1
 266.627 892 266.627 892 333.012 948 c 128,-1,2
 399.397 1004 399.397 1004 477.397 1004 c 0,3,4
 555.397 1004 555.397 1004 600.415 947.5 c 128,-1,5
 645.433 891 645.433 891 630.271 813 c 0,6,7
 615.109 735 615.109 735 548.918 680 c 128,-1,8
 482.728 625 482.728 625 403.728 625 c 0,9,10
 324.728 625 324.728 625 280.418 680 c 128,-1,11
 236.109 735 236.109 735 251.271 813 c 0,0,1
124.729 162 m 0,12,13
 139.891 240 139.891 240 206.276 296 c 128,-1,14
 272.661 352 272.661 352 350.661 352 c 0,15,16
 428.661 352 428.661 352 473.776 296 c 128,-1,17
 518.891 240 518.891 240 503.729 162 c 0,18,19
 488.373 83 488.373 83 421.488 27 c 128,-1,20
 354.603 -29 354.603 -29 276.603 -29 c 0,21,22
 198.603 -29 198.603 -29 153.988 27 c 128,-1,23
 109.373 83 109.373 83 124.729 162 c 0,12,13
EndSplineSet
EndChar
StartChar: semicolon
Encoding: 59 59 59
Width: 756
Flags: W
Fore
280.525 813 m 0,0,1
 295.881 892 295.881 892 362.267 948 c 128,-1,2
 428.651 1004 428.651 1004 506.651 1004 c 0,3,4
 584.651 1004 584.651 1004 629.669 947.5 c 128,-1,5
 674.687 891 674.687 891 659.525 813 c 0,6,7
 644.363 735 644.363 735 578.173 680 c 128,-1,8
 511.981 625 511.981 625 432.981 625 c 0,9,10
 353.981 625 353.981 625 309.673 680 c 128,-1,11
 265.363 735 265.363 735 280.525 813 c 0,0,1
-49.0498 -188 m 1,12,13
 72.084 -105 72.084 -105 141.202 -1.5 c 128,-1,14
 210.32 102 210.32 102 237.146 240 c 2,15,-1
 254.251 328 l 1,16,-1
 539.251 328 l 1,17,18
 495.515 103 495.515 103 371.025 -59 c 128,-1,19
 246.536 -221 246.536 -221 34.3486 -330 c 1,20,-1
 -49.0498 -188 l 1,12,13
EndSplineSet
EndChar
StartChar: less
Encoding: 60 60 60
Width: 1716
Flags: W
Fore
1499 979 m 1,0,-1
 520 641 l 1,1,-1
 1499 305 l 1,2,-1
 1499 66 l 1,3,-1
 217 530 l 1,4,-1
 217 756 l 1,5,-1
 1499 1219 l 1,6,-1
 1499 979 l 1,0,-1
EndSplineSet
EndChar
StartChar: equal
Encoding: 61 61 61
Width: 1716
Flags: W
Fore
217 528 m 1,0,-1
 1499 528 l 1,1,-1
 1499 301 l 1,2,-1
 217 301 l 1,3,-1
 217 528 l 1,0,-1
217 983 m 1,4,-1
 1499 983 l 1,5,-1
 1499 756 l 1,6,-1
 217 756 l 1,7,-1
 217 983 l 1,4,-1
EndSplineSet
EndChar
StartChar: greater
Encoding: 62 62 62
Width: 1716
Flags: W
Fore
217 979 m 1,0,-1
 217 1219 l 1,1,-1
 1499 756 l 1,2,-1
 1499 530 l 1,3,-1
 217 66 l 1,4,-1
 217 305 l 1,5,-1
 1196 641 l 1,6,-1
 217 979 l 1,0,-1
EndSplineSet
EndChar
StartChar: question
Encoding: 63 63 63
Width: 1200
Flags: W
Fore
228.579 162 m 0,0,1
 243.741 240 243.741 240 310.626 296 c 128,-1,2
 377.512 352 377.512 352 455.512 352 c 0,3,4
 534.512 352 534.512 352 579.626 296 c 128,-1,5
 624.741 240 624.741 240 609.579 162 c 0,6,7
 594.223 83 594.223 83 527.338 27 c 128,-1,8
 460.452 -29 460.452 -29 381.452 -29 c 0,9,10
 303.452 -29 303.452 -29 258.338 27 c 128,-1,11
 213.223 83 213.223 83 228.579 162 c 0,0,1
270.33 1452 m 1,12,13
 400.938 1486 400.938 1486 516.243 1503 c 128,-1,14
 631.548 1520 631.548 1520 736.548 1520 c 0,15,16
 988.548 1520 988.548 1520 1102.07 1409.5 c 128,-1,17
 1215.59 1299 1215.59 1299 1175.74 1094 c 0,18,19
 1136.48 892 1136.48 892 983.331 775.5 c 128,-1,20
 830.187 659 830.187 659 581.688 641 c 1,21,-1
 541.839 436 l 1,22,-1
 402.839 436 l 1,23,-1
 460.959 735 l 1,24,25
 609.317 778 609.317 778 692.2 870 c 128,-1,26
 775.083 962 775.083 962 805.018 1116 c 0,27,28
 833.009 1260 833.009 1260 786.296 1333.5 c 128,-1,29
 739.583 1407 739.583 1407 620.583 1407 c 0,30,31
 510.583 1407 510.583 1407 438.254 1341 c 128,-1,32
 365.925 1275 365.925 1275 331.655 1145 c 1,33,-1
 210.655 1145 l 1,34,-1
 270.33 1452 l 1,12,13
EndSplineSet
EndChar
StartChar: at
Encoding: 64 64 64
Width: 2048
Flags: W
Fore
1264.61 504 m 2,0,-1
 1279.39 580 l 2,1,2
 1304.46 709 1304.46 709 1257.72 787.5 c 128,-1,3
 1210.98 866 1210.98 866 1109.98 866 c 0,4,5
 1010.98 866 1010.98 866 933.471 778.5 c 128,-1,6
 855.963 691 855.963 691 827.194 543 c 0,7,8
 798.426 395 798.426 395 841.82 307 c 128,-1,9
 885.215 219 885.215 219 984.215 219 c 0,10,11
 1085.21 219 1085.21 219 1162.28 296.5 c 128,-1,12
 1239.34 374 1239.34 374 1264.61 504 c 2,0,-1
1213.3 240 m 1,13,14
 1155.3 168 1155.3 168 1076.42 130 c 128,-1,15
 997.529 92 997.529 92 907.529 92 c 0,16,17
 716.529 92 716.529 92 630.854 212 c 128,-1,18
 545.18 332 545.18 332 586.194 543 c 0,19,20
 627.209 754 627.209 754 759.438 873.5 c 128,-1,21
 891.666 993 891.666 993 1082.67 993 c 0,22,23
 1172.67 993 1172.67 993 1236.78 955 c 128,-1,24
 1300.89 917 1300.89 917 1331.09 846 c 1,25,-1
 1355.39 971 l 1,26,-1
 1574.39 971 l 1,27,-1
 1430.16 229 l 1,28,29
 1580.74 268 1580.74 268 1681.48 385 c 128,-1,30
 1782.22 502 1782.22 502 1816.44 678 c 0,31,32
 1844.23 821 1844.23 821 1811.97 938 c 128,-1,33
 1779.72 1055 1779.72 1055 1685.38 1151 c 0,34,35
 1608.54 1229 1608.54 1229 1492.7 1271 c 128,-1,36
 1376.87 1313 1376.87 1313 1236.87 1313 c 0,37,38
 1106.87 1313 1106.87 1313 987.063 1278 c 128,-1,39
 867.261 1243 867.261 1243 759.849 1174 c 0,40,41
 597.244 1068 597.244 1068 488.865 904 c 128,-1,42
 380.487 740 380.487 740 342.194 543 c 0,43,44
 312.065 388 312.065 388 333.838 250.5 c 128,-1,45
 355.611 113 355.611 113 424.979 12 c 0,46,47
 508.848 -107 508.848 -107 636.49 -168 c 128,-1,48
 764.133 -229 764.133 -229 927.133 -229 c 0,49,50
 1049.13 -229 1049.13 -229 1169.74 -195 c 128,-1,51
 1290.35 -161 1290.35 -161 1406.37 -94 c 1,52,-1
 1445.1 -188 l 1,53,54
 1300.77 -272 1300.77 -272 1154.11 -314 c 128,-1,55
 1007.45 -356 1007.45 -356 863.446 -356 c 0,56,57
 669.446 -356 669.446 -356 519.692 -293 c 128,-1,58
 369.938 -230 369.938 -230 267.431 -104 c 0,59,60
 165.533 20 165.533 20 131.703 185.5 c 128,-1,61
 97.873 351 97.873 351 135.194 543 c 0,62,63
 172.516 735 172.516 735 270.588 900 c 128,-1,64
 368.661 1065 368.661 1065 518.958 1190 c 0,65,66
 671.45 1316 671.45 1316 847.002 1378 c 128,-1,67
 1022.55 1440 1022.55 1440 1227.55 1440 c 0,68,69
 1405.55 1440 1405.55 1440 1542.13 1391.5 c 128,-1,70
 1678.7 1343 1678.7 1343 1774.65 1245 c 1,71,72
 1886.07 1134 1886.07 1134 1924.47 992 c 128,-1,73
 1962.87 850 1962.87 850 1929.05 676 c 0,74,75
 1875.4 400 1875.4 400 1687.46 246 c 128,-1,76
 1499.53 92 1499.53 92 1215.53 92 c 2,77,-1
 1184.53 92 l 1,78,-1
 1213.3 240 l 1,13,14
EndSplineSet
EndChar
StartChar: A
Encoding: 65 65 65
Width: 1589
Flags: W
AnchorPoint: "below" 626.896 0 basechar 0
AnchorPoint: "above" 931.5 1465 basechar 0
Fore
-161.104 0 m 1,0,-1
 -137.585 121 l 1,1,-1
 -15.585 121 l 1,2,-1
 813.104 1493 l 1,3,-1
 1052.1 1493 l 1,4,-1
 1348.42 121 l 1,5,-1
 1490.42 121 l 1,6,-1
 1466.9 0 l 1,7,-1
 767.896 0 l 1,8,-1
 791.415 121 l 1,9,-1
 937.415 121 l 1,10,-1
 873.701 426 l 1,11,-1
 312.701 426 l 1,12,-1
 128.415 121 l 1,13,-1
 306.415 121 l 1,14,-1
 282.896 0 l 1,15,-1
 -161.104 0 l 1,0,-1
385.221 547 m 1,16,-1
 848.221 547 l 1,17,-1
 729.212 1118 l 1,18,-1
 385.221 547 l 1,16,-1
EndSplineSet
EndChar
StartChar: B
Encoding: 66 66 66
Width: 1731
Flags: W
AnchorPoint: "above" 1004.66 1465 basechar 0
AnchorPoint: "below" 719.896 0 basechar 0
Fore
-49.1045 0 m 1,0,-1
 -25.585 121 l 1,1,-1
 165.415 121 l 1,2,-1
 408.585 1372 l 1,3,-1
 217.585 1372 l 1,4,-1
 241.104 1493 l 1,5,-1
 1126.1 1493 l 2,6,7
 1399.1 1493 1399.1 1493 1518.22 1401 c 128,-1,8
 1637.34 1309 1637.34 1309 1601.38 1124 c 0,9,10
 1575.53 991 1575.53 991 1465.86 913 c 128,-1,11
 1356.2 835 1356.2 835 1166.32 815 c 1,12,13
 1387.23 794 1387.23 794 1487.99 695 c 128,-1,14
 1588.75 596 1588.75 596 1556.87 432 c 0,15,16
 1513.71 210 1513.71 210 1325.8 105 c 128,-1,17
 1137.9 0 1137.9 0 780.896 0 c 2,18,-1
 -49.1045 0 l 1,0,-1
696.006 870 m 1,19,-1
 827.006 870 l 2,20,21
 999.006 870 999.006 870 1094.15 932.5 c 128,-1,22
 1189.3 995 1189.3 995 1214.38 1124 c 0,23,24
 1239.65 1254 1239.65 1254 1170.62 1313 c 128,-1,25
 1101.58 1372 1101.58 1372 924.585 1372 c 2,26,-1
 793.585 1372 l 1,27,-1
 696.006 870 l 1,19,-1
550.415 121 m 1,28,-1
 693.415 121 l 2,29,30
 884.415 121 884.415 121 991.188 197 c 128,-1,31
 1097.96 273 1097.96 273 1128.87 432 c 0,32,33
 1159.97 592 1159.97 592 1082.32 671 c 128,-1,34
 1004.68 750 1004.68 750 815.681 750 c 2,35,-1
 672.681 750 l 1,36,-1
 550.415 121 l 1,28,-1
EndSplineSet
EndChar
StartChar: C
Encoding: 67 67 67
Width: 1630
Flags: W
AnchorPoint: "below" 744.09 0 basechar 0
AnchorPoint: "above" 1048.5 1465 basechar 0
Fore
1463.9 426 m 1,0,1
 1359.99 195 1359.99 195 1185.22 83 c 128,-1,2
 1010.45 -29 1010.45 -29 752.452 -29 c 0,3,4
 374.452 -29 374.452 -29 195.48 179.5 c 128,-1,5
 16.5088 388 16.5088 388 85.9023 745 c 0,6,7
 155.491 1103 155.491 1103 415.52 1311.5 c 128,-1,8
 675.548 1520 675.548 1520 1053.55 1520 c 0,9,10
 1186.55 1520 1186.55 1520 1324.33 1488 c 128,-1,11
 1462.11 1456 1462.11 1456 1610.47 1391 c 1,12,-1
 1539.13 1024 l 1,13,-1
 1412.13 1024 l 1,14,15
 1409.68 1212 1409.68 1212 1324.85 1305.5 c 128,-1,16
 1240.03 1399 1240.03 1399 1071.03 1399 c 0,17,18
 853.027 1399 853.027 1399 715.829 1238.5 c 128,-1,19
 578.632 1078 578.632 1078 513.902 745 c 128,-1,20
 449.174 412 449.174 412 524.073 252 c 128,-1,21
 598.973 92 598.973 92 818.973 92 c 0,22,23
 967.973 92 967.973 92 1078.61 175 c 128,-1,24
 1189.24 258 1189.24 258 1264.9 426 c 1,25,-1
 1463.9 426 l 1,0,1
EndSplineSet
EndChar
StartChar: D
Encoding: 68 68 68
Width: 1776
Flags: W
AnchorPoint: "below" 719.896 0 basechar 0
AnchorPoint: "above" 1024.5 1465 basechar 0
Fore
550.415 121 m 1,0,-1
 689.415 121 l 2,1,2
 923.415 121 923.415 121 1061.07 271 c 0,3,4
 1198.73 421 1198.73 421 1262.29 748 c 0,5,6
 1325.46 1073 1325.46 1073 1246.53 1222.5 c 0,7,8
 1167.58 1372 1167.58 1372 932.585 1372 c 2,9,-1
 793.585 1372 l 1,10,-1
 550.415 121 l 1,0,-1
-49.1045 0 m 1,11,-1
 -25.585 121 l 1,12,-1
 165.415 121 l 1,13,-1
 408.585 1372 l 1,14,-1
 217.585 1372 l 1,15,-1
 241.104 1493 l 1,16,-1
 1007.1 1493 l 2,17,18
 1409.1 1493 1409.1 1493 1584.78 1301 c 0,19,20
 1760.46 1109 1760.46 1109 1690.29 748 c 0,21,22
 1619.73 385 1619.73 385 1368.81 192.5 c 0,23,24
 1117.9 0 1117.9 0 716.896 0 c 2,25,-1
 -49.1045 0 l 1,11,-1
EndSplineSet
EndChar
StartChar: E
Encoding: 69 69 69
Width: 1561
Flags: W
AnchorPoint: "below" 669.896 0 basechar 0
AnchorPoint: "above" 974.5 1465 basechar 0
Fore
-49.1045 0 m 1,0,-1
 -25.585 121 l 1,1,-1
 165.415 121 l 1,2,-1
 408.585 1372 l 1,3,-1
 217.585 1372 l 1,4,-1
 241.104 1493 l 1,5,-1
 1583.1 1493 l 1,6,-1
 1514.68 1141 l 1,7,-1
 1376.68 1141 l 1,8,-1
 1418.47 1356 l 1,9,-1
 790.475 1356 l 1,10,-1
 697.366 877 l 1,11,-1
 1088.37 877 l 1,12,-1
 1125.3 1067 l 1,13,-1
 1262.3 1067 l 1,14,-1
 1162 551 l 1,15,-1
 1025 551 l 1,16,-1
 1061.93 741 l 1,17,-1
 670.931 741 l 1,18,-1
 553.525 137 l 1,19,-1
 1200.53 137 l 1,20,-1
 1242.32 352 l 1,21,-1
 1379.32 352 l 1,22,-1
 1310.9 0 l 1,23,-1
 -49.1045 0 l 1,0,-1
EndSplineSet
EndChar
StartChar: F
Encoding: 70 70 70
Width: 1454
Flags: W
AnchorPoint: "above" 944.662 1465 basechar 0
AnchorPoint: "below" 333.896 0 basechar 0
Fore
-49.1045 0 m 1,0,-1
 -25.585 121 l 1,1,-1
 165.415 121 l 1,2,-1
 408.585 1372 l 1,3,-1
 217.585 1372 l 1,4,-1
 241.104 1493 l 1,5,-1
 1572.1 1493 l 1,6,-1
 1503.68 1141 l 1,7,-1
 1366.68 1141 l 1,8,-1
 1408.47 1356 l 1,9,-1
 792.475 1356 l 1,10,-1
 699.366 877 l 1,11,-1
 1078.37 877 l 1,12,-1
 1115.3 1067 l 1,13,-1
 1252.3 1067 l 1,14,-1
 1152 551 l 1,15,-1
 1015 551 l 1,16,-1
 1051.93 741 l 1,17,-1
 672.931 741 l 1,18,-1
 552.415 121 l 1,19,-1
 787.415 121 l 1,20,-1
 763.896 0 l 1,21,-1
 -49.1045 0 l 1,0,-1
EndSplineSet
EndChar
StartChar: G
Encoding: 71 71 71
Width: 1749
Flags: W
AnchorPoint: "below" 764.09 0 basechar 0
AnchorPoint: "above" 1068.5 1465 basechar 0
Fore
1463.13 1024 m 1,0,1
 1456.62 1222 1456.62 1222 1368.83 1310.5 c 128,-1,2
 1281.03 1399 1281.03 1399 1090.03 1399 c 0,3,4
 858.027 1399 858.027 1399 718.913 1241.5 c 128,-1,5
 579.798 1084 579.798 1084 513.902 745 c 0,6,7
 448.591 409 448.591 409 521.782 250.5 c 128,-1,8
 594.973 92 594.973 92 814.973 92 c 0,9,10
 898.973 92 898.973 92 974.666 111 c 128,-1,11
 1050.36 130 1050.36 130 1116.75 168 c 1,12,-1
 1196.44 578 l 1,13,-1
 1016.44 578 l 1,14,-1
 1039.77 698 l 1,15,-1
 1577.77 698 l 1,16,-1
 1466.39 125 l 1,17,18
 1283.23 47 1283.23 47 1108.34 9 c 128,-1,19
 933.452 -29 933.452 -29 758.452 -29 c 0,20,21
 374.452 -29 374.452 -29 195.189 178 c 128,-1,22
 15.9258 385 15.9258 385 85.9023 745 c 0,23,24
 156.074 1106 156.074 1106 415.811 1313 c 128,-1,25
 675.548 1520 675.548 1520 1059.55 1520 c 0,26,27
 1219.55 1520 1219.55 1520 1368.33 1488 c 128,-1,28
 1517.11 1456 1517.11 1456 1661.47 1391 c 1,29,-1
 1590.13 1024 l 1,30,-1
 1463.13 1024 l 1,0,1
EndSplineSet
EndChar
StartChar: H
Encoding: 72 72 72
Width: 1935
Flags: W
AnchorPoint: "below" 824.896 0 basechar 0
AnchorPoint: "above" 1129.5 1465 basechar 0
Fore
-49.1045 0 m 1,0,-1
 -25.585 121 l 1,1,-1
 165.415 121 l 1,2,-1
 408.585 1372 l 1,3,-1
 217.585 1372 l 1,4,-1
 241.104 1493 l 1,5,-1
 1009.1 1493 l 1,6,-1
 985.585 1372 l 1,7,-1
 793.585 1372 l 1,8,-1
 696.006 870 l 1,9,-1
 1290.01 870 l 1,10,-1
 1387.58 1372 l 1,11,-1
 1196.58 1372 l 1,12,-1
 1220.1 1493 l 1,13,-1
 1988.1 1493 l 1,14,-1
 1964.58 1372 l 1,15,-1
 1772.58 1372 l 1,16,-1
 1529.42 121 l 1,17,-1
 1721.42 121 l 1,18,-1
 1697.9 0 l 1,19,-1
 929.896 0 l 1,20,-1
 953.415 121 l 1,21,-1
 1144.42 121 l 1,22,-1
 1263.38 733 l 1,23,-1
 669.376 733 l 1,24,-1
 550.415 121 l 1,25,-1
 742.415 121 l 1,26,-1
 718.896 0 l 1,27,-1
 -49.1045 0 l 1,0,-1
EndSplineSet
EndChar
StartChar: I
Encoding: 73 73 73
Width: 958
Flags: W
AnchorPoint: "below" 333.896 0 basechar 0
AnchorPoint: "above" 638.5 1465 basechar 0
Fore
-49.1045 0 m 1,0,-1
 -25.585 121 l 1,1,-1
 165.415 121 l 1,2,-1
 408.585 1372 l 1,3,-1
 217.585 1372 l 1,4,-1
 241.104 1493 l 1,5,-1
 1009.1 1493 l 1,6,-1
 985.585 1372 l 1,7,-1
 793.585 1372 l 1,8,-1
 550.415 121 l 1,9,-1
 742.415 121 l 1,10,-1
 718.896 0 l 1,11,-1
 -49.1045 0 l 1,0,-1
EndSplineSet
EndChar
StartChar: J
Encoding: 74 74 74
Width: 969
Flags: W
AnchorPoint: "below" 125.715 -430 basechar 0
AnchorPoint: "above" 652.5 1465 basechar 0
Fore
-323.29 -358 m 1,0,-1
 -277.61 -123 l 1,1,-1
 -147.61 -123 l 1,2,3
 -159.883 -217 -159.883 -217 -129.936 -261 c 0,4,5
 -99.9883 -305 -99.9883 -305 -23.9883 -305 c 0,6,7
 73.0117 -305 73.0117 -305 125.993 -230.5 c 0,8,9
 178.975 -156 178.975 -156 218.822 49 c 2,10,-1
 475.988 1372 l 1,11,-1
 258.988 1372 l 1,12,-1
 282.508 1493 l 1,13,-1
 1077.51 1493 l 1,14,-1
 1053.99 1372 l 1,15,-1
 862.988 1372 l 1,16,-1
 604.268 41 l 2,17,18
 557.033 -202 557.033 -202 412.763 -314 c 0,19,20
 268.492 -426 268.492 -426 1.49219 -426 c 0,21,22
 -81.5078 -426 -81.5078 -426 -162.203 -409 c 0,23,24
 -242.899 -392 -242.899 -392 -323.29 -358 c 1,0,-1
EndSplineSet
EndChar
StartChar: K
Encoding: 75 75 75
Width: 1780
Flags: W
AnchorPoint: "above" 1162.69 1460 basechar 0
AnchorPoint: "below" 878.896 0 basechar 0
Fore
-49.1045 0 m 1,0,-1
 -25.585 121 l 1,1,-1
 165.415 121 l 1,2,-1
 408.585 1372 l 1,3,-1
 217.585 1372 l 1,4,-1
 241.104 1493 l 1,5,-1
 1009.1 1493 l 1,6,-1
 985.585 1372 l 1,7,-1
 793.585 1372 l 1,8,-1
 687.647 827 l 1,9,-1
 1426.58 1372 l 1,10,-1
 1266.58 1372 l 1,11,-1
 1290.1 1493 l 1,12,-1
 1847.1 1493 l 1,13,-1
 1823.58 1372 l 1,14,-1
 1624.58 1372 l 1,15,-1
 998.976 911 l 1,16,-1
 1574.42 121 l 1,17,-1
 1721.42 121 l 1,18,-1
 1697.9 0 l 1,19,-1
 1191.9 0 l 1,20,-1
 667.821 725 l 1,21,-1
 550.415 121 l 1,22,-1
 742.415 121 l 1,23,-1
 718.896 0 l 1,24,-1
 -49.1045 0 l 1,0,-1
EndSplineSet
EndChar
StartChar: L
Encoding: 76 76 76
Width: 1440
Flags: W
AnchorPoint: "below" 659.896 0 basechar 0
AnchorPoint: "above" 618.662 1465 basechar 0
Fore
-49.1045 0 m 1,0,-1
 -25.585 121 l 1,1,-1
 165.415 121 l 1,2,-1
 408.585 1372 l 1,3,-1
 217.585 1372 l 1,4,-1
 241.104 1493 l 1,5,-1
 1009.1 1493 l 1,6,-1
 985.585 1372 l 1,7,-1
 793.585 1372 l 1,8,-1
 553.525 137 l 1,9,-1
 1141.53 137 l 1,10,-1
 1187.4 373 l 1,11,-1
 1322.4 373 l 1,12,-1
 1249.9 0 l 1,13,-1
 -49.1045 0 l 1,0,-1
EndSplineSet
EndChar
StartChar: M
Encoding: 77 77 77
Width: 2267
Flags: W
AnchorPoint: "below" 938.896 0 basechar 0
AnchorPoint: "above" 1222.69 1460 basechar 0
Fore
-59.1045 0 m 1,0,-1
 -35.585 121 l 1,1,-1
 154.415 121 l 1,2,-1
 397.585 1372 l 1,3,-1
 207.585 1372 l 1,4,-1
 231.104 1493 l 1,5,-1
 847.104 1493 l 1,6,-1
 1086.89 535 l 1,7,-1
 1701.1 1493 l 1,8,-1
 2316.1 1493 l 1,9,-1
 2292.58 1372 l 1,10,-1
 2101.58 1372 l 1,11,-1
 1858.42 121 l 1,12,-1
 2049.42 121 l 1,13,-1
 2025.9 0 l 1,14,-1
 1257.9 0 l 1,15,-1
 1281.42 121 l 1,16,-1
 1471.42 121 l 1,17,-1
 1692.81 1260 l 1,18,-1
 1027.46 219 l 1,19,-1
 774.465 219 l 1,20,-1
 515.814 1260 l 1,21,-1
 294.415 121 l 1,22,-1
 484.415 121 l 1,23,-1
 460.896 0 l 1,24,-1
 -59.1045 0 l 1,0,-1
EndSplineSet
EndChar
StartChar: N
Encoding: 78 78 78
Width: 1872
Flags: W
AnchorPoint: "below" 773.896 0 basechar 0
AnchorPoint: "above" 1078.5 1465 basechar 0
Fore
-55.1045 0 m 1,0,-1
 -31.585 121 l 1,1,-1
 159.415 121 l 1,2,-1
 402.585 1372 l 1,3,-1
 211.585 1372 l 1,4,-1
 235.104 1493 l 1,5,-1
 702.104 1493 l 1,6,-1
 1397.64 436 l 1,7,-1
 1579.58 1372 l 1,8,-1
 1389.58 1372 l 1,9,-1
 1413.1 1493 l 1,10,-1
 1935.1 1493 l 1,11,-1
 1911.58 1372 l 1,12,-1
 1720.58 1372 l 1,13,-1
 1453.9 0 l 1,14,-1
 1191.9 0 l 1,15,-1
 486.632 1079 l 1,16,-1
 300.415 121 l 1,17,-1
 490.415 121 l 1,18,-1
 466.896 0 l 1,19,-1
 -55.1045 0 l 1,0,-1
EndSplineSet
EndChar
StartChar: O
Encoding: 79 79 79
Width: 1784
Flags: W
AnchorPoint: "below" 748.09 0 basechar 0
AnchorPoint: "above" 1052.5 1465 basechar 0
Fore
763.973 92 m 0,0,1
 954.973 92 954.973 92 1079.27 253 c 0,2,3
 1203.56 414 1203.56 414 1267.9 745 c 0,4,5
 1332.44 1077 1332.44 1077 1270.73 1238 c 0,6,7
 1209.03 1399 1209.03 1399 1018.03 1399 c 0,8,9
 828.027 1399 828.027 1399 702.94 1236.5 c 0,10,11
 577.854 1074 577.854 1074 513.902 745 c 0,12,13
 450.146 417 450.146 417 512.06 254.5 c 0,14,15
 573.973 92 573.973 92 763.973 92 c 0,0,1
740.452 -29 m 0,16,17
 363.452 -29 363.452 -29 189.495 177 c 0,18,19
 15.5371 383 15.5371 383 85.9023 745 c 0,20,21
 156.269 1107 156.269 1107 410.908 1313.5 c 0,22,23
 665.548 1520 665.548 1520 1041.55 1520 c 0,24,25
 1418.55 1520 1418.55 1520 1592.5 1314 c 0,26,27
 1766.46 1108 1766.46 1108 1695.9 745 c 0,28,29
 1625.54 383 1625.54 383 1371 177 c 0,30,31
 1116.45 -29 1116.45 -29 740.452 -29 c 0,16,17
EndSplineSet
EndChar
StartChar: P
Encoding: 80 80 80
Width: 1540
Flags: W
AnchorPoint: "above" 1004.66 1465 basechar 0
AnchorPoint: "below" 333.896 0 basechar 0
Fore
-49.1045 0 m 1,0,-1
 -25.585 121 l 1,1,-1
 165.415 121 l 1,2,-1
 408.585 1372 l 1,3,-1
 217.585 1372 l 1,4,-1
 241.104 1493 l 1,5,-1
 1091.1 1493 l 2,6,7
 1340.1 1493 1340.1 1493 1464.07 1374.5 c 0,8,9
 1588.04 1256 1588.04 1256 1549.36 1057 c 0,10,11
 1510.48 857 1510.48 857 1339.75 737.5 c 128,-1,12
 1169.02 618 1169.02 618 921.022 618 c 2,13,-1
 647.022 618 l 1,14,-1
 550.415 121 l 1,15,-1
 791.415 121 l 1,16,-1
 767.896 0 l 1,17,-1
 -49.1045 0 l 1,0,-1
670.542 739 m 1,18,-1
 782.542 739 l 2,19,20
 912.542 739 912.542 739 1006.86 825.5 c 0,21,22
 1101.17 912 1101.17 912 1129.36 1057 c 0,23,24
 1157.35 1201 1157.35 1201 1096.97 1286.5 c 0,25,26
 1036.58 1372 1036.58 1372 905.585 1372 c 2,27,-1
 793.585 1372 l 1,28,-1
 670.542 739 l 1,18,-1
EndSplineSet
EndChar
StartChar: Q
Encoding: 81 81 81
Width: 1784
Flags: W
AnchorPoint: "below" 712.615 -369 basechar 0
AnchorPoint: "above" 1069.11 1465 basechar 0
Fore
770.7 -29 m 1,0,1
 393.87 -23 393.87 -23 223.02 181 c 0,2,3
 101.82 325.72 101.82 325.72 101.82 548.96 c 0,4,5
 101.82 640.39 101.82 640.39 122.15 745 c 0,6,7
 192.52 1107 192.52 1107 447.16 1313.5 c 128,-1,8
 701.8 1520 701.8 1520 1077.8 1520 c 0,9,10
 1454.8 1520 1454.8 1520 1628.76 1314 c 0,11,12
 1752.51 1167.45 1752.51 1167.45 1752.51 941.43 c 0,13,14
 1752.51 849.75 1752.51 849.75 1732.15 745 c 0,15,16
 1670.34 427 1670.34 427 1467.35 229 c 128,-1,17
 1264.37 31 1264.37 31 951.23 -16 c 1,18,19
 993.15 -73 993.15 -73 1064.29 -98 c 0,20,21
 1229.34 -156 1229.34 -156 1364.02 -156 c 2,22,-1
 1557.02 -156 l 1,23,-1
 1509.2 -402 l 1,24,-1
 1338.2 -402 l 2,25,26
 1085.31 -402 1085.31 -402 929.55 -287 c 0,27,28
 818.49 -205 818.49 -205 770.7 -29 c 1,0,1
800.22 92 m 0,29,30
 991.22 92 991.22 92 1115.52 253 c 128,-1,31
 1239.81 414 1239.81 414 1304.15 745 c 0,32,33
 1337.14 914.72 1337.14 914.72 1337.14 1039.75 c 0,34,35
 1337.14 1159.3 1337.14 1159.3 1306.98 1238 c 0,36,37
 1245.28 1399 1245.28 1399 1054.28 1399 c 0,38,39
 864.28 1399 864.28 1399 739.19 1236.5 c 128,-1,40
 614.1 1074 614.1 1074 550.15 745 c 0,41,42
 517.81 578.6 517.81 578.6 517.81 454.79 c 0,43,44
 517.81 334.56 517.81 334.56 548.31 254.5 c 0,45,46
 610.22 92 610.22 92 800.22 92 c 0,29,30
EndSplineSet
EndChar
StartChar: R
Encoding: 82 82 82
Width: 1702
Flags: W
AnchorPoint: "below" 719.896 0 basechar 0
AnchorPoint: "above" 1024.5 1465 basechar 0
Fore
1083.6 729 m 1,0,1
 1170.07 716 1170.07 716 1222.13 670 c 0,2,3
 1274.19 624 1274.19 624 1302.28 537 c 2,4,-1
 1439.42 121 l 1,5,-1
 1592.42 121 l 1,6,-1
 1568.9 0 l 1,7,-1
 1077.9 0 l 1,8,-1
 927.561 451 l 1,9,10
 885.773 591 885.773 591 844.758 629.5 c 0,11,12
 803.741 668 803.741 668 717.741 668 c 2,13,-1
 656.741 668 l 1,14,-1
 550.415 121 l 1,15,-1
 742.415 121 l 1,16,-1
 718.896 0 l 1,17,-1
 -49.1045 0 l 1,18,-1
 -25.585 121 l 1,19,-1
 165.415 121 l 1,20,-1
 408.585 1372 l 1,21,-1
 217.585 1372 l 1,22,-1
 241.104 1493 l 1,23,-1
 1093.1 1493 l 2,24,25
 1353.1 1493 1353.1 1493 1474.29 1388.5 c 0,26,27
 1595.48 1284 1595.48 1284 1558.16 1092 c 0,28,29
 1527.83 936 1527.83 936 1409.74 845.5 c 128,-1,30
 1291.65 755 1291.65 755 1083.6 729 c 1,0,1
680.066 788 m 1,31,-1
 811.066 788 l 2,32,33
 951.066 788 951.066 788 1041.34 864 c 0,34,35
 1131.61 940 1131.61 940 1159.02 1081 c 128,-1,36
 1186.43 1222 1186.43 1222 1125.51 1297 c 0,37,38
 1064.58 1372 1064.58 1372 924.585 1372 c 2,39,-1
 793.585 1372 l 1,40,-1
 680.066 788 l 1,31,-1
EndSplineSet
EndChar
StartChar: S
Encoding: 83 83 83
Width: 1479
Flags: W
AnchorPoint: "below" 584.09 0 basechar 0
AnchorPoint: "above" 888.5 1465 basechar 0
Fore
27.085 72 m 1,0,-1
 95.8955 426 l 1,1,-1
 222.896 426 l 1,2,3
 219.239 258 219.239 258 311.106 175 c 128,-1,5
 402.973 92 402.973 92 593.973 92 c 0,6,7
 748.973 92 748.973 92 841.44 151 c 128,-1,9
 933.909 210 933.909 210 956.068 324 c 0,10,11
 973.562 414 973.562 414 928.282 464 c 128,-1,13
 883.001 514 883.001 514 719.359 557 c 2,14,-1
 506.05 612 l 1,15,16
 297.936 668 297.936 668 228.276 767.5 c 128,-1,18
 158.617 867 158.617 867 194.383 1051 c 0,19,20
 237.535 1273 237.535 1273 409.042 1396.5 c 128,-1,22
 580.548 1520 580.548 1520 846.548 1520 c 0,23,24
 977.548 1520 977.548 1520 1114.77 1498 c 128,-1,26
 1252 1476 1252 1476 1395.44 1432 c 1,27,-1
 1331.3 1102 l 1,28,-1
 1204.3 1102 l 1,29,30
 1205.23 1256 1205.23 1256 1121.13 1327.5 c 128,-1,31
 1037.03 1399 1037.03 1399 856.027 1399 c 0,32,33
 708.027 1399 708.027 1399 622.517 1347.5 c 128,-1,35
 537.006 1296 537.006 1296 517.18 1194 c 0,36,37
 499.103 1101 499.103 1101 541.675 1052.5 c 128,-1,39
 584.247 1004 584.247 1004 777.14 952 c 1,40,-1
 990.448 897 l 2,41,42
 1188.34 845 1188.34 845 1260.46 735 c 128,-1,43
 1332.58 625 1332.58 625 1295.06 432 c 0,44,45
 1251.13 206 1251.13 206 1072.29 88.5 c 128,-1,47
 893.452 -29 893.452 -29 590.452 -29 c 0,48,49
 444.452 -29 444.452 -29 305.312 -4 c 128,-1,51
 166.172 21 166.172 21 27.085 72 c 1,0,-1
EndSplineSet
EndChar
StartChar: T
Encoding: 84 84 84
Width: 1524
Flags: W
AnchorPoint: "below" 623.896 0 basechar 0
AnchorPoint: "above" 928.5 1465 basechar 0
Fore
225.896 0 m 1,0,-1
 249.415 121 l 1,1,-1
 447.415 121 l 1,2,-1
 687.475 1356 l 1,3,-1
 278.475 1356 l 1,4,-1
 232.601 1120 l 1,5,-1
 95.6006 1120 l 1,6,-1
 168.104 1493 l 1,7,-1
 1648.1 1493 l 1,8,-1
 1575.6 1120 l 1,9,-1
 1440.6 1120 l 1,10,-1
 1486.47 1356 l 1,11,-1
 1074.47 1356 l 1,12,-1
 834.415 121 l 1,13,-1
 1033.42 121 l 1,14,-1
 1009.9 0 l 1,15,-1
 225.896 0 l 1,0,-1
EndSplineSet
EndChar
StartChar: U
Encoding: 85 85 85
Width: 1786
Flags: W
AnchorPoint: "below" 801.714 0 basechar 0
AnchorPoint: "above" 1103.5 1465 basechar 0
Fore
384.403 1372 m 1,0,-1
 194.403 1372 l 1,1,-1
 217.924 1493 l 1,2,-1
 985.924 1493 l 1,3,-1
 962.403 1372 l 1,4,-1
 771.403 1372 l 1,5,-1
 626.201 625 l 2,6,7
 571.969 346 571.969 346 637.296 234.5 c 0,8,9
 702.622 123 702.622 123 913.622 123 c 0,10,11
 1119.62 123 1119.62 123 1227.99 235.5 c 128,-1,12
 1336.36 348 1336.36 348 1390.2 625 c 2,13,-1
 1535.4 1372 l 1,14,-1
 1345.4 1372 l 1,15,-1
 1368.92 1493 l 1,16,-1
 1888.92 1493 l 1,17,-1
 1865.4 1372 l 1,18,-1
 1674.4 1372 l 1,19,-1
 1525.12 604 l 2,20,21
 1458.64 262 1458.64 262 1282.36 116.5 c 128,-1,22
 1106.08 -29 1106.08 -29 757.076 -29 c 0,23,24
 410.076 -29 410.076 -29 289.65 118 c 0,25,26
 169.225 265 169.225 265 235.508 606 c 2,27,-1
 384.403 1372 l 1,0,-1
EndSplineSet
EndChar
StartChar: V
Encoding: 86 86 86
Width: 1589
Flags: W
AnchorPoint: "below" 648.896 0 basechar 0
AnchorPoint: "above" 933.662 1465 basechar 0
Fore
1763.1 1493 m 1,0,-1
 1739.58 1372 l 1,1,-1
 1614.58 1372 l 1,2,-1
 784.896 0 l 1,3,-1
 546.896 0 l 1,4,-1
 250.585 1372 l 1,5,-1
 109.585 1372 l 1,6,-1
 133.104 1493 l 1,7,-1
 833.104 1493 l 1,8,-1
 809.585 1372 l 1,9,-1
 664.585 1372 l 1,10,-1
 875.343 383 l 1,11,-1
 1473.58 1372 l 1,12,-1
 1295.58 1372 l 1,13,-1
 1319.1 1493 l 1,14,-1
 1763.1 1493 l 1,0,-1
EndSplineSet
EndChar
StartChar: W
Encoding: 87 87 87
Width: 2300
Flags: W
AnchorPoint: "below" 1008.87 5 basechar 0
AnchorPoint: "above" 1324 1472 basechar 0
Fore
1599.9 0 m 1,0,-1
 1341.9 0 l 1,1,-1
 1215.19 1087 l 1,2,-1
 665.896 0 l 1,3,-1
 407.896 0 l 1,4,-1
 248.585 1372 l 1,5,-1
 103.585 1372 l 1,6,-1
 127.104 1493 l 1,7,-1
 835.104 1493 l 1,8,-1
 811.585 1372 l 1,9,-1
 651.585 1372 l 1,10,-1
 758.338 455 l 1,11,-1
 1282.1 1493 l 1,12,-1
 1566.1 1493 l 1,13,-1
 1689.03 438 l 1,14,-1
 2161.58 1372 l 1,15,-1
 1983.58 1372 l 1,16,-1
 2007.1 1493 l 1,17,-1
 2469.1 1493 l 1,18,-1
 2445.58 1372 l 1,19,-1
 2292.58 1372 l 1,20,-1
 1599.9 0 l 1,0,-1
EndSplineSet
EndChar
StartChar: X
Encoding: 88 88 88
Width: 1589
Flags: W
AnchorPoint: "above" 933.662 1465 basechar 0
AnchorPoint: "below" 648.896 0 basechar 0
Fore
660.664 575 m 1,0,-1
 261.415 121 l 1,1,-1
 445.415 121 l 1,2,-1
 421.896 0 l 1,3,-1
 -108.104 0 l 1,4,-1
 -84.585 121 l 1,5,-1
 99.415 121 l 1,6,-1
 603.406 692 l 1,7,-1
 268.585 1372 l 1,8,-1
 131.585 1372 l 1,9,-1
 155.104 1493 l 1,10,-1
 897.104 1493 l 1,11,-1
 873.585 1372 l 1,12,-1
 709.585 1372 l 1,13,-1
 916.945 952 l 1,14,-1
 1284.58 1372 l 1,15,-1
 1110.58 1372 l 1,16,-1
 1134.1 1493 l 1,17,-1
 1654.1 1493 l 1,18,-1
 1630.58 1372 l 1,19,-1
 1446.58 1372 l 1,20,-1
 973.397 836 l 1,21,-1
 1324.42 121 l 1,22,-1
 1465.42 121 l 1,23,-1
 1441.9 0 l 1,24,-1
 696.896 0 l 1,25,-1
 720.415 121 l 1,26,-1
 886.415 121 l 1,27,-1
 660.664 575 l 1,0,-1
EndSplineSet
EndChar
StartChar: Y
Encoding: 89 89 89
Width: 1462
Flags: W
AnchorPoint: "below" 585.896 0 basechar 0
AnchorPoint: "above" 898 1472 basechar 0
Fore
206.896 0 m 1,0,-1
 230.415 121 l 1,1,-1
 431.415 121 l 1,2,-1
 528.022 618 l 1,3,-1
 230.585 1372 l 1,4,-1
 103.585 1372 l 1,5,-1
 127.104 1493 l 1,6,-1
 843.104 1493 l 1,7,-1
 819.585 1372 l 1,8,-1
 653.585 1372 l 1,9,-1
 878.982 803 l 1,10,-1
 1323.58 1372 l 1,11,-1
 1174.58 1372 l 1,12,-1
 1198.1 1493 l 1,13,-1
 1626.1 1493 l 1,14,-1
 1602.58 1372 l 1,15,-1
 1475.58 1372 l 1,16,-1
 925.13 670 l 1,17,-1
 818.415 121 l 1,18,-1
 1019.42 121 l 1,19,-1
 995.896 0 l 1,20,-1
 206.896 0 l 1,0,-1
EndSplineSet
EndChar
StartChar: Z
Encoding: 90 90 90
Width: 1495
Flags: W
AnchorPoint: "below" 602.896 0 basechar 0
AnchorPoint: "above" 907.5 1465 basechar 0
Fore
-69.1045 0 m 1,0,-1
 -41.6973 141 l 1,1,-1
 1085.47 1356 l 1,2,-1
 370.475 1356 l 1,3,-1
 327.128 1133 l 1,4,-1
 190.128 1133 l 1,5,-1
 260.104 1493 l 1,6,-1
 1556.1 1493 l 1,7,-1
 1528.7 1352 l 1,8,-1
 411.525 137 l 1,9,-1
 1165.53 137 l 1,10,-1
 1206.15 346 l 1,11,-1
 1343.15 346 l 1,12,-1
 1275.9 0 l 1,13,-1
 -69.1045 0 l 1,0,-1
EndSplineSet
EndChar
StartChar: bracketleft
Encoding: 91 91 91
Width: 969
Flags: W
Fore
433.469 1556 m 1,0,-1
 1000.47 1556 l 1,1,-1
 977.144 1436 l 1,2,-1
 764.144 1436 l 1,3,-1
 455.856 -150 l 1,4,-1
 668.856 -150 l 1,5,-1
 645.531 -270 l 1,6,-1
 78.5312 -270 l 1,7,-1
 433.469 1556 l 1,0,-1
EndSplineSet
EndChar
StartChar: backslash
Encoding: 92 92 92
Width: 748
Flags: W
Fore
384.571 1493 m 1,0,-1
 584.429 -190 l 1,1,-1
 362.429 -190 l 1,2,-1
 163.571 1493 l 1,3,-1
 384.571 1493 l 1,0,-1
EndSplineSet
EndChar
StartChar: bracketright
Encoding: 93 93 93
Width: 969
Flags: W
Fore
890.469 1556 m 1,0,-1
 535.531 -270 l 1,1,-1
 -32.4688 -270 l 1,2,-1
 -9.14355 -150 l 1,3,-1
 203.856 -150 l 1,4,-1
 512.144 1436 l 1,5,-1
 299.144 1436 l 1,6,-1
 322.469 1556 l 1,7,-1
 890.469 1556 l 1,0,-1
EndSplineSet
EndChar
StartChar: asciicircum
Encoding: 94 94 94
Width: 1716
Flags: W
Fore
973 1493 m 1,0,-1
 1509 936 l 1,1,-1
 1296 936 l 1,2,-1
 858 1251 l 1,3,-1
 420 936 l 1,4,-1
 207 936 l 1,5,-1
 750 1493 l 1,6,-1
 973 1493 l 1,0,-1
EndSplineSet
EndChar
StartChar: underscore
Encoding: 95 95 95
Width: 1024
Flags: W
Fore
1024 -293 m 1,0,-1
 1024 -483 l 1,1,-1
 0 -483 l 1,2,-1
 0 -293 l 1,3,-1
 1024 -293 l 1,0,-1
EndSplineSet
EndChar
StartChar: grave
Encoding: 96 96 96
Width: 1024
Flags: W
Fore
542 1638 m 1,0,-1
 726 1262 l 1,1,-1
 562 1262 l 1,2,-1
 263 1638 l 1,3,-1
 542 1638 l 1,0,-1
EndSplineSet
EndChar
StartChar: a
Encoding: 97 97 97
Width: 1327
Flags: W
AnchorPoint: "below" 496.687 0 basechar 0
AnchorPoint: "above" 708 1092 basechar 0
Fore
840.97 876 m 17,0,1
 837.627 936 837.627 936 780.627 936 c 0,2,3
 646.547 936 646.547 936 515.526 776 c 0,4,5
 455.056 701.545 455.056 701.545 407.146 455.05 c 0,6,7
 371.092 269.562 371.092 269.562 396.834 198.28 c 128,-1,8
 422.573 127 422.573 127 518.494 127 c 0,9,10
 610.903 127 610.903 127 669.273 210 c 128,-1,11
 727.647 293.006 727.647 293.006 763.801 479 c 2,12,-1
 840.97 876 l 17,0,1
1181.09 1031 m 9,13,-1
 1005.73 121 l 1,14,-1
 1139.05 123.265 l 1,15,-1
 1115.09 0 l 1,16,-1
 670.69 0 l 1,17,-1
 696.936 135 l 1,18,19
 586.795 -29 586.795 -29 392.253 -29 c 0,20,21
 199.175 -29 199.175 -29 113.317 98.5 c 128,-1,22
 27.4658 226 27.4658 226 70.5889 447.85 c 0,23,24
 114.058 671.479 114.058 671.479 305.834 864 c 0,25,26
 532.95 1092 532.95 1092 836.95 1092 c 0,27,28
 1136.95 1092 1136.95 1092 1181.09 1031 c 9,13,-1
EndSplineSet
EndChar
StartChar: b
Encoding: 98 98 98
Width: 1432
Flags: W
AnchorPoint: "above" 460.357 1465 basechar 0
AnchorPoint: "below" 524.591 0 basechar 0
Fore
329.72 1436 m 1,0,-1
 177.72 1436 l 1,1,-1
 201.05 1556 l 1,2,-1
 707.05 1556 l 1,3,-1
 584.98 928 l 1,4,5
 646.11 1011 646.11 1011 729.98 1051.5 c 128,-1,6
 813.85 1092 813.85 1092 925.85 1092 c 0,7,8
 1152.85 1092 1152.85 1092 1254.29 942.5 c 0,9,10
 1321.91 842.84 1321.91 842.84 1321.91 693.63 c 0,11,12
 1321.91 619.01 1321.91 619.01 1305 532 c 0,13,14
 1254.27 271 1254.27 271 1094.61 121 c 0,15,16
 934.95 -29 934.95 -29 707.95 -29 c 0,17,18
 595.95 -29 595.95 -29 527.83 11.5 c 0,19,20
 459.7 52 459.7 52 430.83 135 c 1,21,-1
 404.59 0 l 1,22,-1
 50.59 0 l 1,23,-1
 329.72 1436 l 1,0,-1
497.7 479 m 2,24,25
 478.34 379.4 478.34 379.4 478.34 309.34 c 0,26,27
 478.34 248.56 478.34 248.56 492.91 210 c 0,28,29
 524.28 127 524.28 127 630.28 127 c 0,30,31
 739.28 127 739.28 127 800.88 215 c 0,32,33
 862.49 303 862.49 303 907 532 c 0,34,35
 934.52 673.57 934.52 673.57 934.52 761.06 c 0,36,37
 934.52 815.09 934.52 815.09 924.02 848.5 c 0,38,39
 896.53 936 896.53 936 787.53 936 c 0,40,41
 681.53 936 681.53 936 617.9 853 c 0,42,43
 554.26 770 554.26 770 518.11 584 c 2,44,-1
 497.7 479 l 2,24,25
EndSplineSet
EndChar
StartChar: c
Encoding: 99 99 99
Width: 1247
Flags: W
AnchorPoint: "below" 560.687 0 basechar 0
AnchorPoint: "above" 772 1092 basechar 0
Fore
1116.22 332 m 1,0,1
 1042.84 150 1042.84 150 907.95 60.5 c 128,-1,2
 773.05 -29 773.05 -29 571.05 -29 c 0,3,4
 287.05 -29 287.05 -29 159.62 118 c 0,5,6
 69.08 222.46 69.08 222.46 69.08 387.5 c 0,7,8
 69.08 454.73 69.08 454.73 84.1 532 c 0,9,10
 135.41 796 135.41 796 318.18 944 c 128,-1,11
 500.95 1092 500.95 1092 774.95 1092 c 0,12,13
 885.95 1092 885.95 1092 994.87 1071 c 128,-1,14
 1103.79 1050 1103.79 1050 1212.62 1008 c 1,15,-1
 1155.28 713 l 1,16,-1
 1043.28 713 l 1,17,18
 1045.01 735.85 1045.01 735.85 1045.01 756.7 c 0,19,20
 1045.01 859.08 1045.01 859.08 1003.25 913.5 c 0,21,22
 952.98 979 952.98 979 838.98 979 c 0,23,24
 690.98 979 690.98 979 609.05 879 c 128,-1,25
 527.11 779 527.11 779 479.1 532 c 0,26,27
 454.08 403.31 454.08 403.31 454.08 313.82 c 0,28,29
 454.08 235.73 454.08 235.73 473.13 187.5 c 0,30,31
 514.02 84 514.02 84 652.02 84 c 0,32,33
 759.02 84 759.02 84 835.96 148 c 128,-1,34
 912.9 212 912.9 212 950.22 332 c 1,35,-1
 1116.22 332 l 1,0,1
EndSplineSet
EndChar
StartChar: d
Encoding: 100 100 100
Width: 1432
Flags: W
AnchorPoint: "above" 1115.36 1465 basechar 0
AnchorPoint: "below" 532.591 0 basechar 0
Fore
823.7 479 m 2,0,-1
 844.11 584 l 2,1,2
 863.33 682.86 863.33 682.86 863.33 752.63 c 0,3,4
 863.33 814.12 863.33 814.12 848.4 853 c 0,5,6
 816.53 936 816.53 936 711.53 936 c 0,7,8
 601.53 936 601.53 936 540.02 848.5 c 128,-1,9
 478.51 761 478.51 761 434 532 c 0,10,11
 406.64 391.22 406.64 391.22 406.64 303.73 c 0,12,13
 406.64 248.9 406.64 248.9 417.38 215 c 0,14,15
 445.28 127 445.28 127 554.28 127 c 0,16,17
 659.28 127 659.28 127 723.41 210 c 0,18,19
 787.54 293 787.54 293 823.7 479 c 2,0,-1
1387.05 1556 m 1,20,-1
 1084.59 0 l 1,21,-1
 730.59 0 l 1,22,-1
 756.83 135 l 1,23,24
 695.7 52 695.7 52 611.33 11.5 c 0,25,26
 526.95 -29 526.95 -29 414.95 -29 c 0,27,28
 188.95 -29 188.95 -29 88.61 121 c 0,29,30
 21.96 220.63 21.96 220.63 21.96 369.22 c 0,31,32
 21.96 444.35 21.96 444.35 39 532 c 0,33,34
 89.93 794 89.93 794 248.39 943 c 0,35,36
 406.85 1092 406.85 1092 632.85 1092 c 0,37,38
 744.85 1092 744.85 1092 813.48 1051.5 c 128,-1,39
 882.11 1011 882.11 1011 910.98 928 c 1,40,-1
 1009.72 1436 l 1,41,-1
 857.72 1436 l 1,42,-1
 881.05 1556 l 1,43,-1
 1387.05 1556 l 1,20,-1
EndSplineSet
EndChar
StartChar: e
Encoding: 101 101 101
Width: 1303
Flags: W
AnchorPoint: "below" 547.687 0 basechar 0
AnchorPoint: "above" 759 1092 basechar 0
Fore
860 832 m 0,0,1
 860 979 860 979 736 979 c 0,2,3
 641 979 641 979 585 889.5 c 128,-1,4
 529 800 529 800 478 519 c 1,5,6
 500 519 l 0,7,8
 806 519 806 519 853 762 c 0,9,10
 860 800 860 800 860 832 c 0,0,1
454 400 m 1,11,12
 448 366 448 366 448 295 c 0,13,14
 449 84 449 84 654 84 c 0,15,16
 769 84 769 84 852 145 c 128,-1,17
 935 206 935 206 977 322 c 1,18,-1
 1143 322 l 1,19,20
 1065 141 1065 141 920.5 56 c 128,-1,21
 776 -29 776 -29 546 -29 c 0,22,23
 270 -29 270 -29 151 116 c 0,24,25
 68 218 68 218 68 379 c 0,26,27
 68 448 68 448 84 529 c 0,28,29
 135 796 135 796 315 944 c 128,-1,30
 495 1092 495 1092 759 1092 c 0,31,32
 950 1092 950 1092 1082.5 1017.5 c 128,-1,33
 1215 943 1215 943 1215 808 c 0,34,35
 1215 781 1215 781 1209 752 c 0,36,37
 1146 428 1146 428 454 400 c 1,11,12
EndSplineSet
EndChar
StartChar: f
Encoding: 102 102 102
Width: 881
Flags: W
AnchorPoint: "below" 21.9951 -430 basechar 0
AnchorPoint: "above" 750.347 1465 basechar 0
Fore
-98.2646 -277 m 17,0,1
 -18.2646 -277 -18.2646 -277 28.9141 -219.5 c 128,-1,2
 76.0889 -162 76.0889 -162 101.165 -33 c 2,3,-1
 290.687 942 l 1,4,-1
 132.687 942 l 1,5,-1
 156.205 1063 l 1,6,-1
 314.205 1063 l 1,7,-1
 340.057 1196 l 2,8,9
 374.463 1373 374.463 1373 505.25 1464.5 c 128,-1,10
 636.035 1556 636.035 1556 855.035 1556 c 0,11,12
 940.035 1556 940.035 1556 1019.19 1546.5 c 128,-1,13
 1098.34 1537 1098.34 1537 1172.65 1518 c 1,14,-1
 1128.33 1290 l 1,15,-1
 1016.33 1290 l 1,16,17
 1017.71 1304.99 1017.71 1304.99 1017.71 1318.49 c 0,18,19
 1017.71 1375.3 1017.71 1375.3 993.379 1406 c 0,20,21
 963.265 1444 963.265 1444 894.265 1444 c 0,22,23
 814.265 1444 814.265 1444 767.088 1386.5 c 128,-1,24
 719.909 1329 719.909 1329 694.837 1200 c 2,25,-1
 668.205 1063 l 1,26,-1
 935.205 1063 l 1,27,-1
 911.687 942 l 1,28,-1
 644.687 942 l 1,29,-1
 455.942 -29 l 2,30,31
 415.249 -238.351 415.249 -238.351 290.751 -297.5 c 0,32,33
 98.1621 -389 98.1621 -389 -120.838 -389 c 1,34,35
 -109.552 -333 -109.552 -333 -98.2646 -277 c 17,0,1
EndSplineSet
EndChar
StartChar: g
Encoding: 103 103 103
Width: 1432
Flags: W
AnchorPoint: "below" 532.506 -430 basechar 0
AnchorPoint: "above" 786 1092 basechar 0
Fore
987.365 876 m 17,0,1
 982.071 936 982.071 936 917.66 936 c 0,2,3
 735.569 936 735.569 936 622.134 776 c 0,4,5
 550.528 675 550.528 675 507.774 455.05 c 0,6,7
 471.72 269.562 471.72 269.562 502.611 198.28 c 128,-1,8
 533.499 127 533.499 127 641.892 127 c 0,9,10
 746.315 127 746.315 127 810.177 210 c 128,-1,11
 874.042 293.006 874.042 293.006 910.196 479 c 2,12,-1
 987.365 876 l 17,0,1
1364.69 996 m 1,13,-1
 1173.81 14 l 2,14,15
 1126.09 -231.5 1126.09 -231.5 946.958 -332.5 c 0,16,17
 729.139 -455 729.139 -455 472.649 -455 c 0,18,19
 366.649 -455 366.649 -455 260.85 -438.5 c 128,-1,20
 155.061 -422 155.061 -422 46.4795 -389 c 1,21,-1
 95.8506 -135 l 1,22,-1
 208.851 -135 l 1,23,24
 208.399 -143.74 208.399 -143.74 208.399 -152.11 c 0,25,26
 208.399 -244.25 208.399 -244.25 263.021 -291 c 0,27,28
 322.609 -342 322.609 -342 451.609 -342 c 0,29,30
 615.609 -342 615.609 -342 698.37 -263.5 c 128,-1,31
 781.128 -185.002 781.128 -185.002 819.811 14 c 2,32,-1
 843.33 135 l 1,33,34
 721.06 -29 721.06 -29 496.362 -29 c 0,35,36
 273.356 -29 273.356 -29 170.349 98.5 c 128,-1,37
 67.3477 226 67.3477 226 110.471 447.85 c 0,38,39
 163.287 719.565 163.287 719.565 416.143 916 c 0,40,41
 642.693 1092 642.693 1092 976.215 1092 c 0,42,43
 1244.68 1092 1244.68 1092 1364.69 996 c 1,13,-1
EndSplineSet
EndChar
StartChar: h
Encoding: 104 104 104
Width: 1489
Flags: W
AnchorPoint: "below" 603.772 0 basechar 0
AnchorPoint: "above" 483.504 1465 basechar 0
Fore
69.77 0 m 1,0,-1
 348.9 1436 l 1,1,-1
 190.9 1436 l 1,2,-1
 214.23 1556 l 1,3,-1
 726.23 1556 l 1,4,-1
 601.24 913 l 1,5,6
 683.71 1008 683.71 1008 773.87 1050 c 0,7,8
 864.03 1092 864.03 1092 989.03 1092 c 0,9,10
 1168.04 1092 1168.04 1092 1239.03 986.5 c 0,11,12
 1284.5 918.93 1284.5 918.93 1284.5 810.54 c 0,13,14
 1284.5 749.7 1284.5 749.7 1270.17 676 c 2,15,-1
 1162.29 121 l 1,16,-1
 1314.29 121 l 1,17,-1
 1290.77 0 l 1,18,-1
 784.77 0 l 1,19,-1
 918.12 686 l 2,20,21
 931.74 756.1 931.74 756.1 931.74 803.95 c 0,22,23
 931.74 848.26 931.74 848.26 920.06 873.5 c 0,24,25
 895.77 926 895.77 926 810.77 926 c 0,26,27
 703.77 926 703.77 926 638.51 847.5 c 128,-1,28
 573.25 769 573.25 769 540.01 598 c 2,29,-1
 423.77 0 l 1,30,-1
 69.77 0 l 1,0,-1
EndSplineSet
EndChar
StartChar: i
Encoding: 105 105 105
Width: 778
Flags: W
AnchorPoint: "below" 229.772 0 basechar 0
AnchorPoint: "above" 592.635 1584 basechar 0
Fore
301.91 1364 m 0,0,1
 317.65 1445 317.65 1445 384.44 1500.5 c 128,-1,2
 451.23 1556 451.23 1556 532.23 1556 c 0,3,4
 611.23 1556 611.23 1556 655.94 1500.5 c 0,5,6
 689.01 1459.45 689.01 1459.45 689.01 1404.46 c 0,7,8
 689.01 1385.09 689.01 1385.09 684.91 1364 c 0,9,10
 669.55 1285 669.55 1285 603.26 1229.5 c 0,11,12
 536.97 1174 536.97 1174 457.98 1174 c 0,13,14
 376.98 1174 376.98 1174 331.67 1229 c 0,15,16
 297.93 1269.95 297.93 1269.95 297.93 1324.75 c 0,17,18
 297.93 1343.56 297.93 1343.56 301.91 1364 c 0,0,1
447.29 121 m 1,19,-1
 599.29 121 l 1,20,-1
 575.77 0 l 1,21,-1
 69.77 0 l 1,22,-1
 252.88 942 l 1,23,-1
 101.88 942 l 1,24,-1
 125.4 1063 l 1,25,-1
 630.4 1063 l 1,26,-1
 447.29 121 l 1,19,-1
EndSplineSet
Substitution2: "Single Substitution - Dotless Form" dotlessi
EndChar
StartChar: j
Encoding: 106 106 106
Width: 741
Flags: W
AnchorPoint: "below" 28.4102 -430 basechar 0
AnchorPoint: "above" 610.635 1584 basechar 0
Fore
336.13 1364 m 0,0,1
 351.87 1445 351.87 1445 418.16 1500.5 c 128,-1,2
 484.45 1556 484.45 1556 566.45 1556 c 0,3,4
 644.45 1556 644.45 1556 689.56 1500 c 0,5,6
 723.11 1458.35 723.11 1458.35 723.11 1403.44 c 0,7,8
 723.11 1384.51 723.11 1384.51 719.13 1364 c 0,9,10
 703.77 1285 703.77 1285 637.48 1229.5 c 0,11,12
 571.2 1174 571.2 1174 492.2 1174 c 0,13,14
 411.2 1174 411.2 1174 365.89 1229 c 0,15,16
 332.15 1269.95 332.15 1269.95 332.15 1324.75 c 0,17,18
 332.15 1343.56 332.15 1343.56 336.13 1364 c 0,0,1
295.1 942 m 1,19,-1
 144.1 942 l 1,20,-1
 167.62 1063 l 1,21,-1
 672.62 1063 l 1,22,-1
 441.7 -125 l 2,23,24
 410.01 -288 410.01 -288 278.28 -371.5 c 0,25,26
 146.55 -455 146.55 -455 -78.45 -455 c 0,27,28
 -138.45 -455 -138.45 -455 -204.51 -445 c 0,29,30
 -270.56 -435 -270.56 -435 -339.87 -416 c 1,31,-1
 -295.94 -190 l 1,32,-1
 -183.13 -191 l 1,33,34
 -188.21 -220.99 -188.21 -220.99 -188.21 -244.72 c 0,35,36
 -188.21 -284.31 -188.21 -284.31 -174.08 -306.5 c 0,37,38
 -151.48 -342 -151.48 -342 -85.48 -342 c 0,39,40
 -12.48 -342 -12.48 -342 25.65 -295 c 0,41,42
 63.79 -248 63.79 -248 87.7 -125 c 2,43,-1
 295.1 942 l 1,19,-1
EndSplineSet
Substitution2: "Single Substitution - Dotless Form" dotlessj
EndChar
StartChar: k
Encoding: 107 107 107
Width: 1419
Flags: W
AnchorPoint: "above" 457.539 1465 basechar 0
AnchorPoint: "below" 603.772 0 basechar 0
Fore
423.77 0 m 1,0,-1
 69.77 0 l 1,1,-1
 348.9 1436 l 1,2,-1
 197.9 1436 l 1,3,-1
 221.23 1556 l 1,4,-1
 726.23 1556 l 1,5,-1
 532.04 557 l 1,6,-1
 1035.88 942 l 1,7,-1
 908.88 942 l 1,8,-1
 932.4 1063 l 1,9,-1
 1220.4 1063 l 1,10,-1
 1196.88 942 l 1,11,-1
 875.06 696 l 1,12,-1
 1211.29 121 l 1,13,-1
 1326.29 121 l 1,14,-1
 1302.77 0 l 1,15,-1
 911.77 0 l 1,16,-1
 619.96 500 l 1,17,-1
 503.86 412 l 1,18,-1
 423.77 0 l 1,0,-1
EndSplineSet
EndChar
StartChar: l
Encoding: 108 108 108
Width: 778
Flags: W
AnchorPoint: "above" 457.539 1465 basechar 0
AnchorPoint: "below" 229.772 0 basechar 0
Fore
447.29 121 m 1,0,-1
 599.29 121 l 1,1,-1
 575.77 0 l 1,2,-1
 69.77 0 l 1,3,-1
 348.9 1436 l 1,4,-1
 197.9 1436 l 1,5,-1
 221.23 1556 l 1,6,-1
 726.23 1556 l 1,7,-1
 447.29 121 l 1,0,-1
EndSplineSet
EndChar
StartChar: m
Encoding: 109 109 109
Width: 2167
Flags: W
AnchorPoint: "below" 988.868 0 basechar 0
AnchorPoint: "above" 1201.13 1092 basechar 0
Fore
1309.67 889 m 1,0,1
 1404.28 995 1404.28 995 1499.7 1043.5 c 0,2,3
 1595.13 1092 1595.13 1092 1710.13 1092 c 0,4,5
 1893.13 1092 1893.13 1092 1963.51 988.5 c 0,6,7
 2008.13 922.88 2008.13 922.88 2008.13 814.84 c 0,8,9
 2008.13 752.48 2008.13 752.48 1993.27 676 c 2,10,-1
 1885.39 121 l 1,11,-1
 2037.39 121 l 1,12,-1
 2013.87 0 l 1,13,-1
 1507.87 0 l 1,14,-1
 1628.97 623 l 2,15,16
 1654.3 753.31 1654.3 753.31 1654.3 820.59 c 0,17,18
 1654.3 856.05 1654.3 856.05 1647.26 874 c 0,19,20
 1626.86 926 1626.86 926 1543.86 926 c 0,21,22
 1449.86 926 1449.86 926 1383.77 853.5 c 128,-1,23
 1317.68 781 1317.68 781 1291.63 647 c 2,24,-1
 1165.87 0 l 1,25,-1
 811.87 0 l 1,26,-1
 932.97 623 l 2,27,28
 958.08 752.21 958.08 752.21 958.08 819.45 c 0,29,30
 958.08 855.76 958.08 855.76 950.76 874 c 0,31,32
 929.86 926 929.86 926 847.86 926 c 0,33,34
 752.86 926 752.86 926 686.77 853.5 c 0,35,36
 620.68 781 620.68 781 594.63 647 c 2,37,-1
 468.87 0 l 1,38,-1
 114.87 0 l 1,39,-1
 297.98 942 l 1,40,-1
 146.98 942 l 1,41,-1
 170.49 1063 l 1,42,-1
 675.49 1063 l 1,43,-1
 646.34 913 l 1,44,45
 726.41 1006 726.41 1006 814.77 1049 c 0,46,47
 903.13 1092 903.13 1092 1013.13 1092 c 0,48,49
 1143.13 1092 1143.13 1092 1214.51 1042.5 c 128,-1,50
 1285.89 993 1285.89 993 1309.67 889 c 1,0,1
EndSplineSet
EndChar
StartChar: n
Encoding: 110 110 110
Width: 1489
Flags: W
AnchorPoint: "below" 648.868 0 basechar 0
AnchorPoint: "above" 774 1092 basechar 0
Fore
114.87 0 m 1,0,-1
 297.98 942 l 1,1,-1
 146.98 942 l 1,2,-1
 170.49 1063 l 1,3,-1
 675.49 1063 l 1,4,-1
 646.34 913 l 1,5,6
 728.8 1008 728.8 1008 818.97 1050 c 0,7,8
 909.13 1092 909.13 1092 1034.13 1092 c 0,9,10
 1213.13 1092 1213.13 1092 1284.12 986.5 c 0,11,12
 1329.6 918.93 1329.6 918.93 1329.6 810.53 c 0,13,14
 1329.6 749.7 1329.6 749.7 1315.27 676 c 2,15,-1
 1207.39 121 l 1,16,-1
 1359.39 121 l 1,17,-1
 1335.87 0 l 1,18,-1
 829.87 0 l 1,19,-1
 963.21 686 l 2,20,21
 976.84 756.1 976.84 756.1 976.84 803.95 c 0,22,23
 976.84 848.26 976.84 848.26 965.16 873.5 c 0,24,25
 940.86 926 940.86 926 855.86 926 c 0,26,27
 748.86 926 748.86 926 683.6 847.5 c 0,28,29
 618.35 769 618.35 769 585.11 598 c 2,30,-1
 468.87 0 l 1,31,-1
 114.87 0 l 1,0,-1
EndSplineSet
EndChar
StartChar: o
Encoding: 111 111 111
Width: 1366
Flags: W
AnchorPoint: "below" 580.687 0 basechar 0
AnchorPoint: "above" 792 1092 basechar 0
Fore
597.02 84 m 0,0,1
 709.02 84 709.02 84 773.18 180 c 128,-1,2
 837.34 276 837.34 276 887.1 532 c 0,3,4
 919.59 699.18 919.59 699.18 919.59 797.91 c 0,5,6
 919.59 850.37 919.59 850.37 910.42 883.5 c 0,7,8
 883.98 979 883.98 979 770.98 979 c 128,-1,9
 657.98 979 657.98 979 593.23 882.5 c 128,-1,10
 528.47 786 528.47 786 479.1 532 c 0,11,12
 447.24 368.11 447.24 368.11 447.24 269.58 c 0,13,14
 447.24 215.41 447.24 215.41 456.87 181 c 0,15,16
 484.02 84 484.02 84 597.02 84 c 0,0,1
575.05 -29 m 128,-1,18
 294.05 -29 294.05 -29 163.61 120.5 c 0,19,20
 69.8 228.02 69.8 228.02 69.8 393.73 c 0,21,22
 69.8 458.43 69.8 458.43 84.1 532 c 0,23,24
 135.22 795 135.22 795 323.58 943.5 c 128,-1,25
 511.95 1092 511.95 1092 792.95 1092 c 0,26,27
 1074.95 1092 1074.95 1092 1205.08 943.5 c 0,28,29
 1298.52 836.88 1298.52 836.88 1298.52 671.24 c 0,30,31
 1298.52 606.17 1298.52 606.17 1284.1 532 c 0,32,33
 1233.17 270 1233.17 270 1044.61 120.5 c 128,-1,17
 856.05 -29 856.05 -29 575.05 -29 c 128,-1,18
EndSplineSet
EndChar
StartChar: p
Encoding: 112 112 112
Width: 1432
Flags: W
AnchorPoint: "below" 232.688 -430 basechar 0
AnchorPoint: "above" 901.535 1092 basechar 0
Fore
601.79 584 m 2,0,-1
 581.38 479 l 2,1,2
 562.02 379.4 562.02 379.4 562.02 309.34 c 0,3,4
 562.02 248.56 562.02 248.56 576.59 210 c 0,5,6
 607.96 127 607.96 127 713.96 127 c 0,7,8
 822.96 127 822.96 127 884.56 215 c 0,9,10
 946.17 303 946.17 303 990.68 532 c 0,11,12
 1018.2 673.56 1018.2 673.56 1018.2 761.05 c 0,13,14
 1018.2 815.09 1018.2 815.09 1007.7 848.5 c 0,15,16
 980.21 936 980.21 936 871.21 936 c 0,17,18
 765.21 936 765.21 936 701.58 853 c 0,19,20
 637.94 770 637.94 770 601.79 584 c 2,0,-1
317.38 942 m 1,21,-1
 165.38 942 l 1,22,-1
 188.9 1063 l 1,23,-1
 694.9 1063 l 1,24,-1
 668.66 928 l 1,25,26
 729.79 1011 729.79 1011 813.66 1051.5 c 0,27,28
 897.53 1092 897.53 1092 1009.53 1092 c 0,29,30
 1236.53 1092 1236.53 1092 1337.97 942.5 c 0,31,32
 1405.6 842.84 1405.6 842.84 1405.6 693.64 c 0,33,34
 1405.6 619.02 1405.6 619.02 1388.68 532 c 0,35,36
 1337.95 271 1337.95 271 1178.29 121 c 0,37,38
 1018.63 -29 1018.63 -29 791.64 -29 c 0,39,40
 679.64 -29 679.64 -29 611.51 11.5 c 128,-1,41
 543.38 52 543.38 52 514.51 135 c 1,42,-1
 405.47 -426 l 1,43,-1
 51.47 -426 l 1,44,-1
 317.38 942 l 1,21,-1
EndSplineSet
EndChar
StartChar: q
Encoding: 113 113 113
Width: 1432
Flags: W
AnchorPoint: "below" 907.688 -430 basechar 0
AnchorPoint: "above" 820.535 1092 basechar 0
Fore
1361.88 996 m 1,0,-1
 1109.97 -300 l 1,1,-1
 1270.71 -301.753 l 1,2,-1
 1246.94 -424 l 1,3,-1
 731.471 -426 l 1,4,-1
 840.512 135 l 1,5,6
 718.244 -29 718.244 -29 493.544 -29 c 0,7,8
 270.538 -29 270.538 -29 167.53 98.5 c 128,-1,9
 64.5293 226 64.5293 226 107.652 447.85 c 0,10,11
 160.469 719.565 160.469 719.565 413.323 916 c 0,12,13
 639.875 1092 639.875 1092 973.396 1092 c 0,14,15
 1241.86 1092 1241.86 1092 1361.88 996 c 1,0,-1
984.547 876 m 17,16,17
 979.252 936 979.252 936 914.841 936 c 0,18,19
 732.751 936 732.751 936 619.315 776 c 0,20,21
 547.71 675 547.71 675 504.955 455.05 c 0,22,23
 468.901 269.562 468.901 269.562 499.793 198.28 c 128,-1,24
 530.681 127 530.681 127 639.073 127 c 0,25,26
 743.497 127 743.497 127 807.357 210 c 128,-1,27
 871.224 293.006 871.224 293.006 907.378 479 c 2,28,-1
 984.547 876 l 17,16,17
EndSplineSet
EndChar
StartChar: r
Encoding: 114 114 114
Width: 1079
Flags: W
AnchorPoint: "below" 274.868 0 basechar 0
AnchorPoint: "above" 772 1092 basechar 0
Fore
1202.83 1075 m 1,0,-1
 1141.21 758 l 1,1,-1
 1028.21 758 l 1,2,3
 1030.82 779.07 1030.82 779.07 1030.82 797.46 c 0,4,5
 1030.82 853.28 1030.82 853.28 1006.8 884.5 c 0,6,7
 974.86 926 974.86 926 898.86 926 c 0,8,9
 782.86 926 782.86 926 696.04 824 c 0,10,11
 609.21 722 609.21 722 574.03 541 c 2,12,-1
 468.87 0 l 1,13,-1
 114.87 0 l 1,14,-1
 297.98 942 l 1,15,-1
 135.98 942 l 1,16,-1
 159.49 1063 l 1,17,-1
 675.49 1063 l 1,18,-1
 638.76 874 l 1,19,20
 712.33 985 712.33 985 808.23 1038.5 c 0,21,22
 904.13 1092 904.13 1092 1028.13 1092 c 0,23,24
 1059.13 1092 1059.13 1092 1102.76 1087.5 c 0,25,26
 1146.38 1083 1146.38 1083 1202.83 1075 c 1,0,-1
EndSplineSet
EndChar
StartChar: s
Encoding: 115 115 115
Width: 1153
Flags: W
AnchorPoint: "below" 474.687 0 basechar 0
AnchorPoint: "above" 686 1092 basechar 0
Fore
56 328 m 1,0,-1
 169 328 l 1,1,2
 168 313 168 313 168 299 c 0,3,4
 168 201 168 201 227 142.5 c 128,-1,5
 286 84 286 84 405 84 c 0,6,7
 638 84 638 84 666 229 c 0,8,9
 670 248 670 248 670 276 c 0,10,11
 670 303 670 303 644.5 333 c 128,-1,12
 619 363 619 363 519 389 c 2,13,-1
 380 426 l 2,14,15
 223 467 223 467 173 532 c 128,-1,16
 123 597 123 597 123 677 c 0,17,18
 123 711 123 711 130 750 c 0,19,20
 164 923 164 923 300.5 1007.5 c 128,-1,21
 437 1092 437 1092 655 1092 c 128,-1,23
 873 1092 873 1092 1111 1028 c 1,24,-1
 1058 760 l 1,25,-1
 945 760 l 1,26,27
 948 779 948 779 948 796 c 0,28,29
 948 979 948 979 722 979 c 0,30,31
 495 979 495 979 469 844 c 0,32,33
 466 828 466 828 466 805 c 0,34,35
 466 740 466 740 589 707 c 2,36,-1
 727 670 l 2,37,38
 926 617 926 617 981 550.5 c 128,-1,39
 1036 484 1036 484 1036 398 c 0,40,41
 1036 363 1036 363 1028 322 c 0,42,43
 993 142 993 142 848 56.5 c 128,-1,44
 703 -29 703 -29 432 -29 c 0,45,46
 235 -29 235 -29 -1 31 c 1,47,-1
 56 328 l 1,0,-1
EndSplineSet
EndChar
StartChar: t
Encoding: 116 116 116
Width: 946
Flags: W
AnchorPoint: "above" 532.2 1465 basechar 0
AnchorPoint: "below" 424.433 0 basechar 0
Fore
253.54 942 m 1,0,-1
 99.54 942 l 1,1,-1
 123.06 1063 l 1,2,-1
 277.06 1063 l 1,3,-1
 341.2 1393 l 1,4,-1
 695.2 1393 l 1,5,-1
 631.06 1063 l 1,6,-1
 926.06 1063 l 1,7,-1
 902.54 942 l 1,8,-1
 607.54 942 l 1,9,-1
 481 291 l 2,10,11
 463.78 202.44 463.78 202.44 463.78 156.51 c 0,12,13
 463.78 130.34 463.78 130.34 469.37 118 c 0,14,15
 484.76 84 484.76 84 542.76 84 c 0,16,17
 606.76 84 606.76 84 646.12 127 c 128,-1,18
 685.48 170 685.48 170 704.97 260 c 1,19,-1
 853.97 260 l 1,20,21
 813.87 100 813.87 100 722.83 35.5 c 0,22,23
 631.8 -29 631.8 -29 439.8 -29 c 0,24,25
 220.8 -29 220.8 -29 156.11 39.5 c 0,26,27
 114.38 83.7 114.38 83.7 114.38 175.55 c 0,28,29
 114.38 226.07 114.38 226.07 127 291 c 2,30,-1
 253.54 942 l 1,0,-1
EndSplineSet
EndChar
StartChar: u
Encoding: 117 117 117
Width: 1489
Flags: W
AnchorPoint: "below" 606.506 0 basechar 0
AnchorPoint: "above" 815 1092 basechar 0
Fore
1374.13 1063 m 1,0,-1
 1191.03 121 l 1,1,-1
 1342.03 121 l 1,2,-1
 1318.51 0 l 1,3,-1
 812.51 0 l 1,4,-1
 841.66 150 l 1,5,6
 760.2 55 760.2 55 670.03 13 c 0,7,8
 579.87 -29 579.87 -29 454.87 -29 c 0,9,10
 275.87 -29 275.87 -29 204.88 76.5 c 0,11,12
 159.4 144.07 159.4 144.07 159.4 252.46 c 0,13,14
 159.4 313.3 159.4 313.3 173.73 387 c 2,15,-1
 281.61 942 l 1,16,-1
 129.61 942 l 1,17,-1
 153.13 1063 l 1,18,-1
 659.13 1063 l 1,19,-1
 538.42 442 l 2,20,21
 514.17 317.25 514.17 317.25 514.17 249.86 c 0,22,23
 514.17 210.29 514.17 210.29 522.53 190.5 c 0,24,25
 545.14 137 545.14 137 633.14 137 c 0,26,27
 740.14 137 740.14 137 804.99 216 c 0,28,29
 869.85 295 869.85 295 903.28 467 c 2,30,-1
 1019.13 1063 l 1,31,-1
 1374.13 1063 l 1,0,-1
EndSplineSet
EndChar
StartChar: v
Encoding: 118 118 118
Width: 1190
Flags: W
AnchorPoint: "above" 714.95 1092 basechar 0
AnchorPoint: "below" 501.715 -5 basechar 0
Fore
637.689 0 m 1,0,-1
 353.689 0 l 1,1,-1
 159.79 942 l 1,2,-1
 42.79 942 l 1,3,-1
 66.3096 1063 l 1,4,-1
 499.31 1063 l 1,5,-1
 662.169 270 l 1,6,7
 688.176 270.429 688.176 270.429 848.687 484 c 0,8,9
 996.072 688.307 996.072 688.307 1060.79 942 c 1,10,-1
 943.79 942 l 1,11,-1
 967.753 1065.27 l 1,12,-1
 1205.31 1063 l 1,13,14
 1207.82 814.273 1207.82 814.273 1006.4 480 c 0,15,16
 816 164 816 164 637.689 0 c 1,0,-1
EndSplineSet
EndChar
StartChar: w
Encoding: 119 119 119
Width: 1763
Flags: W
AnchorPoint: "below" 789.687 0 basechar 0
AnchorPoint: "above" 991.67 1092 basechar 0
Fore
1316.69 300 m 1,0,1
 1325.69 308 1325.69 308 1466.69 482 c 0,2,3
 1608.97 664.89 1608.97 664.89 1665.79 942 c 1,4,-1
 1526.35 939.736 l 1,5,-1
 1550.31 1063 l 1,6,-1
 1822.31 1063 l 1,7,8
 1765.2 680.728 1765.2 680.728 1639.68 485 c 0,9,10
 1446 180 1446 180 1254.69 0 c 1,11,-1
 1010.69 0 l 1,12,-1
 915.146 666 l 1,13,-1
 558.689 0 l 1,14,-1
 316.689 0 l 1,15,-1
 177.79 942 l 1,16,-1
 61.7891 942 l 1,17,-1
 85.3096 1063 l 1,18,-1
 521.31 1063 l 1,19,-1
 623.02 367 l 1,20,-1
 996.307 1063 l 1,21,-1
 1207.31 1063 l 1,22,-1
 1316.69 300 l 1,0,1
EndSplineSet
EndChar
StartChar: x
Encoding: 120 120 120
Width: 1221
Flags: W
AnchorPoint: "above" 714.95 1092 basechar 0
AnchorPoint: "below" 500.743 -10 basechar 0
Fore
747.48 678 m 1,0,-1
 1096.31 1063 l 1,1,-1
 1239.31 1063 l 1,2,-1
 784.12 563 l 1,3,-1
 1014.21 121 l 1,4,-1
 1155.21 121 l 1,5,-1
 1131.69 0 l 1,6,-1
 678.69 0 l 1,7,-1
 470.63 401 l 1,8,-1
 104.69 0 l 1,9,-1
 -37.31 0 l 1,10,-1
 431.38 518 l 1,11,-1
 208.79 942 l 1,12,-1
 89.79 942 l 1,13,-1
 113.31 1063 l 1,14,-1
 546.31 1063 l 1,15,-1
 747.48 678 l 1,0,-1
EndSplineSet
EndChar
StartChar: y
Encoding: 121 121 121
Width: 1190
Flags: W
AnchorPoint: "below" 463.325 -430 basechar 0
AnchorPoint: "above" 704.67 1092 basechar 0
Fore
496.295 -272.994 m 1,0,-1
 212.01 942 l 1,1,-1
 97.0098 942 l 1,2,-1
 120.53 1063 l 1,3,-1
 554.53 1063 l 1,4,-1
 793.021 34.9707 l 1,5,6
 908.054 201.143 908.054 201.143 985.027 388.572 c 128,-1,7
 1062 576 1062 576 1138 940 c 1,8,-1
 995.723 941 l 1,9,-1
 1019.24 1062 l 1,10,-1
 1305.53 1063 l 1,11,12
 1280.9 934.89 1280.9 934.89 1244.77 769.762 c 0,13,14
 1156 364 1156 364 1044.91 176 c 0,15,16
 752.087 -313.837 752.087 -313.837 516.909 -404 c 0,17,18
 383.884 -455 383.884 -455 192.472 -455 c 0,19,20
 97.8477 -455 97.8477 -455 -39.1797 -412 c 1,21,-1
 3.98047 -190 l 1,22,-1
 116.78 -191 l 1,23,24
 113.041 -215.074 113.041 -215.074 113.041 -235.24 c 0,25,26
 113.041 -304.349 113.041 -304.349 159.5 -325.888 c 0,27,28
 180.993 -335.852 180.993 -335.852 224.431 -342 c 0,29,30
 248.24 -345.37 248.24 -345.37 272.162 -345.37 c 0,31,32
 383.022 -345.37 383.022 -345.37 496.295 -272.994 c 1,0,-1
EndSplineSet
EndChar
StartChar: z
Encoding: 122 122 122
Width: 1163
Flags: W
AnchorPoint: "below" 478.687 0 basechar 0
AnchorPoint: "above" 690 1092 basechar 0
Fore
1174.18 944 m 1,0,-1
 473.707 194.816 l 1,1,2
 507.452 183.248 507.452 183.248 535.959 166 c 0,3,4
 662.549 98 662.549 98 741.741 98 c 0,5,6
 861.741 98 861.741 98 1041.93 243 c 1,7,-1
 1011.21 85 l 1,8,9
 833.559 -83 833.559 -83 673.559 -83 c 0,10,11
 590.864 -79.2336 590.864 -79.2336 463.238 -14.5841 c 0,12,13
 319.947 58 319.947 58 263.957 58 c 0,14,15
 207.966 58 207.966 58 149.995 35 c 128,-1,16
 92.0244 12 92.0244 12 68.3027 -2 c 1,17,-1
 -31.3105 0 l 1,18,-1
 -7.79004 121 l 1,19,-1
 690.477 868.794 l 1,20,21
 657.799 880.264 657.799 880.264 630.043 897 c 0,22,23
 503.483 965 503.483 965 424.261 965 c 0,24,25
 304.261 965 304.261 965 124.076 820 c 1,26,-1
 154.788 978 l 1,27,28
 332.443 1146 332.443 1146 492.443 1146 c 0,29,30
 575.132 1142.23 575.132 1142.23 702.761 1077.58 c 0,31,32
 846.046 1005 846.046 1005 902.041 1005 c 0,33,34
 958.036 1005 958.036 1005 1016.01 1028 c 128,-1,35
 1073.98 1051 1073.98 1051 1097.7 1065 c 1,36,-1
 1197.31 1063 l 1,37,-1
 1174.18 944 l 1,0,-1
EndSplineSet
EndChar
StartChar: braceleft
Encoding: 123 123 123
Width: 1317
Flags: W
Fore
972.831 -213 m 1,0,-1
 949.311 -334 l 1,1,-1
 801.311 -334 l 2,2,3
 565.311 -334 565.311 -334 488.073 -309.5 c 128,-1,4
 410.835 -285 410.835 -285 372.887 -223 c 0,5,6
 350.885 -187 350.885 -187 349.075 -132 c 128,-1,7
 347.267 -77 347.267 -77 369.037 35 c 2,8,-1
 417.632 285 l 2,9,10
 446.983 436 446.983 436 404.66 493.5 c 128,-1,11
 362.337 551 362.337 551 221.337 551 c 2,12,-1
 160.337 551 l 1,13,-1
 183.857 672 l 1,14,-1
 244.857 672 l 2,15,16
 385.857 672 385.857 672 450.534 729.5 c 128,-1,17
 515.211 787 515.211 787 544.562 938 c 2,18,-1
 593.157 1188 l 2,19,20
 614.928 1300 614.928 1300 638.021 1354.5 c 128,-1,21
 661.115 1409 661.115 1409 697.308 1446 c 0,22,23
 759.165 1507 759.165 1507 845.927 1531.5 c 128,-1,24
 932.689 1556 932.689 1556 1168.69 1556 c 2,25,-1
 1316.69 1556 l 1,26,-1
 1293.36 1436 l 1,27,-1
 1190.36 1436 l 2,28,29
 1078.36 1436 1078.36 1436 1028.23 1389 c 128,-1,30
 978.092 1342 978.092 1342 951.656 1206 c 2,31,-1
 899.174 936 l 2,32,33
 868.268 777 868.268 777 805.646 709.5 c 128,-1,34
 743.025 642 743.025 642 608.194 612 c 1,35,36
 732.585 578 732.585 578 768.256 512 c 128,-1,37
 803.928 446 803.928 446 773.021 287 c 2,38,-1
 720.344 16 l 2,39,40
 694.103 -119 694.103 -119 725.967 -166 c 128,-1,41
 757.831 -213 757.831 -213 869.831 -213 c 2,42,-1
 972.831 -213 l 1,0,-1
EndSplineSet
EndChar
StartChar: bar
Encoding: 124 124 124
Width: 745
Flags: W
Fore
479 1565 m 1,0,-1
 479 -483 l 1,1,-1
 264 -483 l 1,2,-1
 264 1565 l 1,3,-1
 479 1565 l 1,0,-1
EndSplineSet
EndChar
StartChar: braceright
Encoding: 125 125 125
Width: 1317
Flags: W
Fore
25.8311 -213 m 1,0,-1
 126.831 -213 l 2,1,2
 237.831 -213 237.831 -213 288.467 -166 c 128,-1,3
 339.103 -119 339.103 -119 365.344 16 c 2,4,-1
 418.021 287 l 2,5,6
 448.538 444 448.538 444 510.562 511 c 128,-1,7
 572.585 578 572.585 578 711.194 612 c 1,8,9
 587.025 642 587.025 642 550.243 710 c 128,-1,10
 513.462 778 513.462 778 544.174 936 c 2,11,-1
 596.656 1206 l 2,12,13
 623.092 1342 623.092 1342 590.728 1389 c 128,-1,14
 558.363 1436 558.363 1436 447.363 1436 c 2,15,-1
 346.363 1436 l 1,16,-1
 369.689 1556 l 1,17,-1
 515.689 1556 l 2,18,19
 751.689 1556 751.689 1556 828.927 1531.5 c 128,-1,20
 906.165 1507 906.165 1507 944.308 1446 c 0,21,22
 966.115 1409 966.115 1409 968.021 1354.5 c 128,-1,23
 969.928 1300 969.928 1300 948.157 1188 c 2,24,-1
 899.562 938 l 2,25,26
 870.211 787 870.211 787 912.534 729.5 c 128,-1,27
 954.857 672 954.857 672 1094.86 672 c 2,28,-1
 1156.86 672 l 1,29,-1
 1133.34 551 l 1,30,-1
 1071.34 551 l 2,31,32
 931.337 551 931.337 551 866.66 493.5 c 128,-1,33
 801.983 436 801.983 436 772.632 285 c 2,34,-1
 724.037 35 l 2,35,36
 702.267 -77 702.267 -77 679.075 -132 c 128,-1,37
 655.885 -187 655.885 -187 619.887 -223 c 0,38,39
 557.835 -285 557.835 -285 471.073 -309.5 c 128,-1,40
 384.311 -334 384.311 -334 148.311 -334 c 2,41,-1
 2.31055 -334 l 1,42,-1
 25.8311 -213 l 1,0,-1
EndSplineSet
EndChar
StartChar: asciitilde
Encoding: 126 126 126
Width: 1716
Flags: W
Fore
1499 831 m 1,0,-1
 1499 625 l 1,1,2
 1406 539 1406 539 1312.5 498 c 128,-1,3
 1219 457 1219 457 1118 457 c 0,4,5
 1023 457 1023 457 871 515 c 0,6,7
 854 521 854 521 846 524 c 0,8,9
 839 527 839 527 826 532 c 0,10,11
 654 598 654 598 557 598 c 0,12,13
 480 598 480 598 396.5 562 c 128,-1,14
 313 526 313 526 217 453 c 1,15,-1
 217 659 l 1,16,17
 313 746 313 746 405.5 786.5 c 128,-1,18
 498 827 498 827 598 827 c 0,19,20
 693 827 693 827 844 770 c 0,21,22
 862 763 862 763 870 760 c 2,23,-1
 885 754 l 2,24,25
 1058 686 1058 686 1159 686 c 0,26,27
 1236 686 1236 686 1319.5 722 c 128,-1,28
 1403 758 1403 758 1499 831 c 1,0,-1
EndSplineSet
EndChar
StartChar: exclamdown
Encoding: 161 161 161
Width: 899
Flags: W
Fore
749.603 1329 m 0,0,1
 734.44 1251 734.44 1251 667.75 1196 c 128,-1,2
 601.059 1141 601.059 1141 523.059 1141 c 0,3,4
 444.059 1141 444.059 1141 399.75 1196 c 128,-1,5
 355.44 1251 355.44 1251 370.603 1329 c 0,6,7
 385.958 1408 385.958 1408 452.344 1464 c 128,-1,8
 518.729 1520 518.729 1520 596.729 1520 c 0,9,10
 674.729 1520 674.729 1520 719.746 1463.5 c 128,-1,11
 764.764 1407 764.764 1407 749.603 1329 c 0,0,1
489.271 0 m 1,12,-1
 114.271 0 l 1,13,-1
 394.939 842 l 1,14,-1
 431.871 1032 l 1,15,-1
 570.871 1032 l 1,16,-1
 533.939 842 l 1,17,-1
 489.271 0 l 1,12,-1
EndSplineSet
EndChar
StartChar: cent
Encoding: 162 162 162
Width: 1425
Flags: W
Fore
654.542 94 m 1,0,-1
 824.625 969 l 1,1,2
 720.765 944 720.765 944 657.729 843.5 c 128,-1,3
 594.694 743 594.694 743 553.681 532 c 0,4,5
 512.666 321 512.666 321 536.229 221 c 128,-1,6
 559.79 121 559.79 121 654.542 94 c 1,0,-1
1194.8 332 m 1,7,8
 1132.29 175 1132.29 175 1020.39 85.5 c 128,-1,9
 908.492 -4 908.492 -4 752.799 -23 c 1,10,-1
 699.15 -299 l 1,11,-1
 578.15 -299 l 1,12,-1
 630.633 -29 l 1,13,14
 354.799 -23 354.799 -23 232.276 123.5 c 128,-1,15
 109.753 270 109.753 270 160.681 532 c 0,16,17
 211.608 794 211.608 794 390.891 939.5 c 128,-1,18
 570.173 1085 570.173 1085 848.533 1092 c 1,19,-1
 899.85 1356 l 1,20,-1
 1020.85 1356 l 1,21,-1
 968.562 1087 l 1,22,23
 1026.78 1083 1026.78 1083 1103.59 1064 c 128,-1,24
 1180.4 1045 1180.4 1045 1291.21 1008 c 1,25,-1
 1233.86 713 l 1,26,-1
 1120.86 713 l 1,27,28
 1130.36 839 1130.36 839 1087.89 903.5 c 128,-1,29
 1045.43 968 1045.43 968 947.568 979 c 1,30,-1
 774.375 88 l 1,31,32
 868.485 104 868.485 104 932.343 165 c 128,-1,33
 996.2 226 996.2 226 1028.8 332 c 1,34,-1
 1194.8 332 l 1,7,8
EndSplineSet
EndChar
StartChar: sterling
Encoding: 163 163 163
Width: 1425
Flags: W
Fore
1332.92 1202 m 1,0,-1
 1212.92 1202 l 1,1,2
 1225.77 1299 1225.77 1299 1186.77 1353 c 128,-1,3
 1147.76 1407 1147.76 1407 1063.76 1407 c 0,4,5
 946.764 1407 946.764 1407 881.283 1332.5 c 128,-1,6
 815.802 1258 815.802 1258 781.785 1083 c 2,7,-1
 729.691 815 l 1,8,-1
 1081.69 815 l 1,9,-1
 1058.17 694 l 1,10,-1
 706.171 694 l 1,11,-1
 597.901 137 l 1,12,-1
 1017.9 137 l 1,13,-1
 1062.22 365 l 1,14,-1
 1199.22 365 l 1,15,-1
 1128.27 0 l 1,16,-1
 -0.729492 0 l 1,17,-1
 22.791 121 l 1,18,-1
 215.791 121 l 1,19,-1
 327.171 694 l 1,20,-1
 134.171 694 l 1,21,-1
 157.691 815 l 1,22,-1
 350.691 815 l 1,23,-1
 404.534 1092 l 2,24,25
 446.521 1308 446.521 1308 600.625 1414 c 128,-1,26
 754.729 1520 754.729 1520 1028.73 1520 c 0,27,28
 1093.73 1520 1093.73 1520 1182.48 1511 c 128,-1,29
 1271.23 1502 1271.23 1502 1387.93 1485 c 1,30,-1
 1332.92 1202 l 1,0,-1
EndSplineSet
EndChar
StartChar: currency
Encoding: 164 164 164
Width: 1303
Flags: W
Fore
653 422 m 0,0,1
 744 422 744 422 808 485.5 c 128,-1,2
 872 549 872 549 872 641 c 0,3,4
 872 733 872 733 808.5 796.5 c 128,-1,5
 745 860 745 860 653 860 c 0,6,7
 562 860 562 860 498 796.5 c 128,-1,8
 434 733 434 733 434 641 c 0,9,10
 434 548 434 548 497 485 c 128,-1,11
 560 422 560 422 653 422 c 0,0,1
436 268 m 1,12,-1
 227 61 l 1,13,-1
 76 215 l 1,14,-1
 285 424 l 1,15,16
 254 470 254 470 239.5 523.5 c 128,-1,17
 225 577 225 577 225 641 c 0,18,19
 225 704 225 704 240 758 c 128,-1,20
 255 812 255 812 285 858 c 1,21,-1
 76 1063 l 1,22,-1
 229 1221 l 1,23,-1
 436 1010 l 1,24,25
 484 1040 484 1040 538 1054.5 c 128,-1,26
 592 1069 592 1069 653 1069 c 0,27,28
 708 1069 708 1069 762.5 1054.5 c 128,-1,29
 817 1040 817 1040 874 1010 c 1,30,-1
 1079 1221 l 1,31,-1
 1231 1067 l 1,32,-1
 1022 862 l 1,33,34
 1052 806 1052 806 1066.5 750.5 c 128,-1,35
 1081 695 1081 695 1081 641 c 0,36,37
 1081 578 1081 578 1066.5 525.5 c 128,-1,38
 1052 473 1052 473 1022 426 c 1,39,-1
 1231 215 l 1,40,-1
 1075 61 l 1,41,-1
 868 272 l 1,42,43
 822 242 822 242 769 227.5 c 128,-1,44
 716 213 716 213 653 213 c 0,45,46
 595 213 595 213 541 227 c 128,-1,47
 487 241 487 241 436 268 c 1,12,-1
EndSplineSet
EndChar
StartChar: yen
Encoding: 165 165 165
Width: 1425
Flags: W
Fore
180.896 0 m 1,0,-1
 204.415 121 l 1,1,-1
 394.415 121 l 1,2,-1
 461.671 467 l 1,3,-1
 58.6709 467 l 1,4,-1
 81.4131 584 l 1,5,-1
 484.413 584 l 1,6,-1
 495.882 643 l 1,7,-1
 461.123 778 l 1,8,-1
 119.123 778 l 1,9,-1
 141.865 895 l 1,10,-1
 427.865 895 l 1,11,-1
 297.585 1372 l 1,12,-1
 160.585 1372 l 1,13,-1
 184.104 1493 l 1,14,-1
 878.104 1493 l 1,15,-1
 854.585 1372 l 1,16,-1
 684.585 1372 l 1,17,-1
 835.481 821 l 1,18,-1
 1198.58 1372 l 1,19,-1
 1047.58 1372 l 1,20,-1
 1071.1 1493 l 1,21,-1
 1507.1 1493 l 1,22,-1
 1483.58 1372 l 1,23,-1
 1348.58 1372 l 1,24,-1
 1034.87 895 l 1,25,-1
 1326.87 895 l 1,26,-1
 1304.12 778 l 1,27,-1
 954.123 778 l 1,28,-1
 878.575 662 l 1,29,-1
 863.413 584 l 1,30,-1
 1266.41 584 l 1,31,-1
 1243.67 467 l 1,32,-1
 840.671 467 l 1,33,-1
 773.415 121 l 1,34,-1
 963.415 121 l 1,35,-1
 939.896 0 l 1,36,-1
 180.896 0 l 1,0,-1
EndSplineSet
EndChar
StartChar: brokenbar
Encoding: 166 166 166
Width: 745
Flags: W
Fore
479 1432 m 1,0,-1
 479 674 l 1,1,-1
 264 674 l 1,2,-1
 264 1432 l 1,3,-1
 479 1432 l 1,0,-1
479 408 m 1,4,-1
 479 -350 l 1,5,-1
 264 -350 l 1,6,-1
 264 408 l 1,7,-1
 479 408 l 1,4,-1
EndSplineSet
EndChar
StartChar: section
Encoding: 167 167 167
Width: 1071
Flags: W
Fore
1054.93 1475 m 1,0,-1
 1008.28 1235 l 1,1,-1
 889.283 1235 l 1,2,3
 899.999 1321 899.999 1321 856.357 1364 c 128,-1,4
 812.716 1407 812.716 1407 715.716 1407 c 0,5,6
 634.716 1407 634.716 1407 582.024 1370 c 128,-1,7
 529.332 1333 529.332 1333 516.309 1266 c 0,8,9
 507.173 1219 507.173 1219 527.758 1186 c 128,-1,10
 548.344 1153 548.344 1153 629.208 1106 c 2,11,-1
 750.212 1034 l 1,12,13
 920.163 936 920.163 936 974.335 852 c 128,-1,14
 1028.51 768 1028.51 768 1006.15 653 c 0,15,16
 985.938 549 985.938 549 914.554 475 c 128,-1,17
 843.17 401 843.17 401 720.812 358 c 1,18,19
 794.676 311 794.676 311 820.832 247.5 c 128,-1,20
 846.989 184 846.989 184 829.495 94 c 0,21,22
 802.864 -43 802.864 -43 679.092 -119 c 128,-1,23
 555.319 -195 555.319 -195 355.319 -195 c 0,24,25
 272.319 -195 272.319 -195 184.055 -183.5 c 128,-1,26
 95.79 -172 95.79 -172 -1.93359 -150 c 1,27,-1
 44.7168 90 l 1,28,-1
 162.717 90 l 1,29,30
 153.223 0 153.223 0 197.254 -41 c 128,-1,31
 241.284 -82 241.284 -82 347.284 -82 c 0,32,33
 434.284 -82 434.284 -82 487.976 -45 c 128,-1,34
 541.668 -8 541.668 -8 555.08 61 c 0,35,36
 564.216 108 564.216 108 544.131 141 c 128,-1,37
 524.045 174 524.045 174 442.181 221 c 2,38,-1
 321.177 293 l 2,39,40
 152.42 392 152.42 392 97.748 476 c 128,-1,41
 43.0762 560 43.0762 560 65.2354 674 c 0,42,43
 85.2568 777 85.2568 777 156.946 850 c 128,-1,44
 228.636 923 228.636 923 352.188 967 c 1,45,46
 278.13 1013 278.13 1013 251.168 1077.5 c 128,-1,47
 224.205 1142 224.205 1142 241.505 1231 c 0,48,49
 267.941 1367 267.941 1367 391.811 1443.5 c 128,-1,50
 515.681 1520 515.681 1520 711.681 1520 c 0,51,52
 785.681 1520 785.681 1520 870.445 1508.5 c 128,-1,53
 955.21 1497 955.21 1497 1054.93 1475 c 1,0,-1
441.359 901 m 1,54,55
 390.945 868 390.945 868 360.364 829 c 128,-1,56
 329.783 790 329.783 790 321.036 745 c 0,57,58
 309.179 684 309.179 684 344.766 633 c 128,-1,59
 380.353 582 380.353 582 479.078 524 c 2,60,-1
 629.973 436 l 1,61,62
 681.776 471 681.776 471 712.954 510.5 c 128,-1,63
 744.132 550 744.132 550 752.296 592 c 0,64,65
 763.959 652 763.959 652 727.372 703 c 128,-1,66
 690.786 754 690.786 754 590.254 813 c 2,67,-1
 441.359 901 l 1,54,55
EndSplineSet
EndChar
StartChar: dieresis
Encoding: 168 168 168
Width: 1024
Flags: W
Fore
335 1468 m 0,0,1
 347 1528 347 1528 399 1571 c 128,-1,2
 451 1614 451 1614 511 1614 c 128,-1,3
 571 1614 571 1614 606 1571 c 0,4,5
 640 1528 640 1528 628 1468 c 128,-1,6
 616 1408 616 1408 565 1364 c 0,7,8
 514 1321 514 1321 455 1321 c 0,9,10
 395 1321 395 1321 359 1365 c 0,11,12
 324 1409 324 1409 335 1468 c 0,0,1
782 1468 m 0,13,14
 794 1528 794 1528 846 1571 c 0,15,16
 897 1614 897 1614 957 1614 c 128,-1,17
 1017 1614 1017 1614 1053 1571 c 128,-1,18
 1089 1528 1089 1528 1077 1468 c 0,19,20
 1066 1409 1066 1409 1013 1365 c 0,21,22
 961 1321 961 1321 901 1321 c 128,-1,23
 841 1321 841 1321 806 1365 c 128,-1,24
 771 1409 771 1409 782 1468 c 0,13,14
EndSplineSet
LCarets2: 1 0 
EndChar
StartChar: copyright
Encoding: 169 169 169
Width: 2048
Flags: W
Fore
1024 1485 m 0,0,1
 1176 1485 1176 1485 1307.5 1430 c 128,-1,2
 1439 1375 1439 1375 1548 1266 c 0,3,4
 1657 1157 1657 1157 1711 1026 c 128,-1,5
 1765 895 1765 895 1765 741 c 0,6,7
 1765 589 1765 589 1711 458.5 c 128,-1,8
 1657 328 1657 328 1548 219 c 0,9,10
 1439 110 1439 110 1307.5 55 c 128,-1,11
 1176 0 1176 0 1024 0 c 0,12,13
 872 0 872 0 740.5 55 c 128,-1,14
 609 110 609 110 500 219 c 0,15,16
 391 328 391 328 337 458.5 c 128,-1,17
 283 589 283 589 283 741 c 0,18,19
 283 895 283 895 337 1026 c 128,-1,20
 391 1157 391 1157 500 1266 c 0,21,22
 609 1375 609 1375 740.5 1430 c 128,-1,23
 872 1485 872 1485 1024 1485 c 0,0,1
1024 1331 m 0,24,25
 903 1331 903 1331 799 1287.5 c 128,-1,26
 695 1244 695 1244 608 1157 c 0,27,28
 522 1071 522 1071 479 967.5 c 128,-1,29
 436 864 436 864 436 741 c 0,30,31
 436 619 436 619 479 515.5 c 128,-1,32
 522 412 522 412 608 326 c 0,33,34
 694 240 694 240 798.5 197 c 128,-1,35
 903 154 903 154 1024 154 c 0,36,37
 1147 154 1147 154 1250 196.5 c 128,-1,38
 1353 239 1353 239 1440 326 c 0,39,40
 1526 412 1526 412 1569 515.5 c 128,-1,41
 1612 619 1612 619 1612 741 c 0,42,43
 1612 864 1612 864 1569 967.5 c 128,-1,44
 1526 1071 1526 1071 1440 1157 c 0,45,46
 1352 1245 1352 1245 1248.5 1288 c 128,-1,47
 1145 1331 1145 1331 1024 1331 c 0,24,25
1391 580 m 1,48,49
 1364 441 1364 441 1272.5 371 c 128,-1,50
 1181 301 1181 301 1026 301 c 0,51,52
 838 301 838 301 722 422 c 128,-1,53
 606 543 606 543 606 741 c 0,54,55
 606 943 606 943 723 1063.5 c 128,-1,56
 840 1184 840 1184 1036 1184 c 0,57,58
 1115 1184 1115 1184 1195 1165.5 c 128,-1,59
 1275 1147 1275 1147 1362 1108 c 1,60,-1
 1362 885 l 1,61,-1
 1257 885 l 1,62,63
 1245 979 1245 979 1192.5 1032 c 128,-1,64
 1140 1085 1140 1085 1059 1085 c 0,65,66
 955 1085 955 1085 895.5 993.5 c 128,-1,67
 836 902 836 902 836 741 c 0,68,69
 836 580 836 580 895 489.5 c 128,-1,70
 954 399 954 399 1059 399 c 0,71,72
 1132 399 1132 399 1181 445 c 128,-1,73
 1230 491 1230 491 1253 580 c 1,74,-1
 1391 580 l 1,48,49
EndSplineSet
EndChar
StartChar: ordfeminine
Encoding: 170 170 170
Width: 997
Flags: W
Fore
661.65 1136 m 2,0,-1
 674.48 1202 l 2,1,2
 682.93 1245.5 682.93 1245.5 682.93 1280.98 c 0,3,4
 682.93 1336.85 682.93 1336.85 661.97 1372.82 c 0,5,6
 634.52 1420.31 634.52 1420.31 579.31 1420.31 c 0,7,8
 565.81 1420.31 565.81 1420.31 550.65 1417.47 c 0,9,10
 475.01 1403.3 475.01 1403.3 414.05 1318.88 c 0,11,12
 353.1 1234.45 353.1 1234.45 328.19 1106.3 c 0,13,14
 317.17 1049.62 317.17 1049.62 317.17 1004.79 c 0,15,16
 317.17 948.27 317.17 948.27 334.69 910.6 c 0,17,18
 360.66 854.77 360.66 854.77 416.85 854.77 c 0,19,20
 428.63 854.77 428.63 854.77 441.75 857.23 c 0,21,22
 518.91 871.68 518.91 871.68 579.33 947.66 c 0,23,24
 639.88 1024 639.88 1024 661.65 1136 c 2,0,-1
592.26 779 m 17,25,-1
 617.33 908 l 1,26,27
 571.92 839 571.92 839 510.43 795.83 c 0,28,29
 449.4 752.7 449.4 752.7 380.64 739.82 c 0,30,31
 346.15 733.35 346.15 733.35 316.28 733.35 c 0,32,33
 219.8 733.35 219.8 733.35 171.63 800.79 c 0,34,35
 131.27 857.29 131.27 857.29 131.27 952.43 c 0,36,37
 131.27 1006 131.27 1006 144.06 1071.81 c 0,38,39
 179.57 1254.52 179.57 1254.52 282.97 1373.59 c 0,40,41
 386.36 1492.67 386.36 1492.67 532.29 1520 c 0,42,43
 557.21 1524.67 557.21 1524.67 579.42 1524.67 c 0,44,45
 618.53 1524.67 618.53 1524.67 649.29 1510.21 c 0,46,47
 698.07 1488 698.07 1488 719.19 1432 c 1,48,-1
 736.49 1521 l 1,49,-1
 897.49 1521 l 1,50,-1
 782.41 929 l 1,51,-1
 897.41 929 l 25,52,-1
 868.26 779 l 25,53,-1
 592.26 779 l 17,25,-1
40.04 639 m 1,54,-1
 838.04 639 l 1,55,-1
 811.8 504 l 1,56,-1
 13.8 504 l 1,57,-1
 40.04 639 l 1,54,-1
EndSplineSet
EndChar
StartChar: guillemotleft
Encoding: 171 171 171
Width: 1280
Flags: W
Fore
1178.16 1069 m 1,0,-1
 1149.59 922 l 1,1,-1
 848 600 l 1,2,-1
 1024.6 279 l 1,3,-1
 995.836 131 l 1,4,-1
 601.672 516 l 1,5,-1
 634.328 684 l 1,6,-1
 1178.16 1069 l 1,0,-1
718.164 1069 m 1,7,-1
 689.591 922 l 1,8,-1
 387 600 l 1,9,-1
 564.604 279 l 1,10,-1
 535.836 131 l 1,11,-1
 141.672 516 l 1,12,-1
 174.328 684 l 1,13,-1
 718.164 1069 l 1,7,-1
EndSplineSet
EndChar
StartChar: logicalnot
Encoding: 172 172 172
Width: 1716
Flags: W
Fore
217 903 m 1,0,-1
 1499 903 l 1,1,-1
 1499 287 l 1,2,-1
 1270 287 l 1,3,-1
 1270 676 l 1,4,-1
 217 676 l 1,5,-1
 217 903 l 1,0,-1
EndSplineSet
EndChar
StartChar: sfthyphen
Encoding: 173 173 173
Width: 850
Flags: W
Fore
137.241 684 m 1,0,-1
 765.241 684 l 1,1,-1
 712.759 414 l 1,2,-1
 84.7588 414 l 1,3,-1
 137.241 684 l 1,0,-1
EndSplineSet
EndChar
StartChar: registered
Encoding: 174 174 174
Width: 2048
Flags: W
Fore
1166 754 m 1,0,1
 1205 743 1205 743 1235 716.5 c 128,-1,2
 1265 690 1265 690 1284 649 c 2,3,-1
 1384 434 l 1,4,-1
 1444 434 l 1,5,-1
 1444 352 l 1,6,-1
 1221 352 l 1,7,-1
 1104 606 l 1,8,9
 1072 674 1072 674 1042.5 695.5 c 128,-1,10
 1013 717 1013 717 958 717 c 2,11,-1
 932 717 l 1,12,-1
 932 434 l 1,13,-1
 1018 434 l 1,14,-1
 1018 352 l 1,15,-1
 649 352 l 1,16,-1
 649 434 l 1,17,-1
 735 434 l 1,18,-1
 735 1077 l 1,19,-1
 649 1077 l 1,20,-1
 649 1159 l 1,21,-1
 1102 1159 l 2,22,23
 1222 1159 1222 1159 1291 1104 c 128,-1,24
 1360 1049 1360 1049 1360 954 c 0,25,26
 1360 865 1360 865 1310.5 814 c 128,-1,27
 1261 763 1261 763 1166 754 c 1,0,1
932 799 m 1,28,-1
 999 799 l 2,29,30
 1078 799 1078 799 1120.5 835 c 128,-1,31
 1163 871 1163 871 1163 938 c 0,32,33
 1163 1005 1163 1005 1120.5 1041 c 128,-1,34
 1078 1077 1078 1077 999 1077 c 2,35,-1
 932 1077 l 1,36,-1
 932 799 l 1,28,-1
1024 1485 m 0,37,38
 1176 1485 1176 1485 1307.5 1430 c 128,-1,39
 1439 1375 1439 1375 1548 1266 c 0,40,41
 1657 1157 1657 1157 1711 1026 c 128,-1,42
 1765 895 1765 895 1765 741 c 0,43,44
 1765 589 1765 589 1711 458.5 c 128,-1,45
 1657 328 1657 328 1548 219 c 0,46,47
 1439 110 1439 110 1307.5 55 c 128,-1,48
 1176 0 1176 0 1024 0 c 0,49,50
 872 0 872 0 740.5 55 c 128,-1,51
 609 110 609 110 500 219 c 0,52,53
 391 328 391 328 337 458.5 c 128,-1,54
 283 589 283 589 283 741 c 0,55,56
 283 895 283 895 337 1026 c 128,-1,57
 391 1157 391 1157 500 1266 c 0,58,59
 609 1375 609 1375 740.5 1430 c 128,-1,60
 872 1485 872 1485 1024 1485 c 0,37,38
1024 1331 m 0,61,62
 903 1331 903 1331 799 1287.5 c 128,-1,63
 695 1244 695 1244 608 1157 c 0,64,65
 522 1071 522 1071 479 967.5 c 128,-1,66
 436 864 436 864 436 741 c 0,67,68
 436 619 436 619 479 515.5 c 128,-1,69
 522 412 522 412 608 326 c 0,70,71
 694 240 694 240 798.5 197 c 128,-1,72
 903 154 903 154 1024 154 c 0,73,74
 1147 154 1147 154 1250 196.5 c 128,-1,75
 1353 239 1353 239 1440 326 c 0,76,77
 1526 412 1526 412 1569 515.5 c 128,-1,78
 1612 619 1612 619 1612 741 c 0,79,80
 1612 864 1612 864 1569 967.5 c 128,-1,81
 1526 1071 1526 1071 1440 1157 c 0,82,83
 1352 1245 1352 1245 1248.5 1288 c 128,-1,84
 1145 1331 1145 1331 1024 1331 c 0,61,62
EndSplineSet
EndChar
StartChar: macron
Encoding: 175 175 175
Width: 1024
Flags: W
Fore
355 1548 m 1,0,-1
 985 1548 l 1,1,-1
 949 1360 l 1,2,-1
 319 1360 l 1,3,-1
 355 1548 l 1,0,-1
EndSplineSet
LCarets2: 1 0 
EndChar
StartChar: degree
Encoding: 176 176 176
Width: 1024
Flags: W
Fore
512 1534 m 0,0,1
 578 1534 578 1534 639 1508.5 c 128,-1,2
 700 1483 700 1483 748 1436 c 1,3,4
 795 1388 795 1388 819.5 1328 c 128,-1,5
 844 1268 844 1268 844 1200 c 0,6,7
 844 1133 844 1133 819.5 1072.5 c 128,-1,8
 795 1012 795 1012 750 967 c 0,9,10
 702 919 702 919 640 893.5 c 128,-1,11
 578 868 578 868 510 868 c 0,12,13
 369 868 369 868 273.5 963.5 c 128,-1,14
 178 1059 178 1059 178 1200 c 0,15,16
 178 1341 178 1341 274.5 1437.5 c 128,-1,17
 371 1534 371 1534 512 1534 c 0,0,1
512 1372 m 0,18,19
 440 1372 440 1372 390 1322 c 128,-1,20
 340 1272 340 1272 340 1200 c 0,21,22
 340 1128 340 1128 389.5 1079 c 128,-1,23
 439 1030 439 1030 512 1030 c 0,24,25
 584 1030 584 1030 634 1079.5 c 128,-1,26
 684 1129 684 1129 684 1200 c 0,27,28
 684 1272 684 1272 633.5 1322 c 128,-1,29
 583 1372 583 1372 512 1372 c 0,18,19
EndSplineSet
EndChar
StartChar: plusminus
Encoding: 177 177 177
Width: 1716
Flags: W
Fore
217 227 m 1,0,-1
 1499 227 l 1,1,-1
 1499 0 l 1,2,-1
 217 0 l 1,3,-1
 217 227 l 1,0,-1
973 1284 m 1,4,-1
 973 926 l 1,5,-1
 1499 926 l 1,6,-1
 1499 698 l 1,7,-1
 973 698 l 1,8,-1
 973 340 l 1,9,-1
 743 340 l 1,10,-1
 743 698 l 1,11,-1
 217 698 l 1,12,-1
 217 926 l 1,13,-1
 743 926 l 1,14,-1
 743 1284 l 1,15,-1
 973 1284 l 1,4,-1
EndSplineSet
EndChar
StartChar: twosuperior
Encoding: 178 178 178
Width: 897
Flags: W
Fore
223.377 1284 m 1,0,-1
 129.377 1284 l 1,1,-1
 167.281 1479 l 1,2,3
 243.169 1499 243.169 1499 320.71 1509.5 c 128,-1,4
 398.251 1520 398.251 1520 478.251 1520 c 0,5,6
 659.251 1520 659.251 1520 746.811 1456 c 128,-1,7
 834.37 1392 834.37 1392 812.211 1278 c 0,8,9
 796.271 1196 796.271 1196 729.234 1131.5 c 128,-1,10
 662.196 1067 662.196 1067 487.702 977 c 2,11,-1
 216.684 838 l 1,12,-1
 630.684 838 l 1,13,-1
 649.344 934 l 1,14,-1
 749.344 934 l 1,15,-1
 700.749 684 l 1,16,-1
 4.74902 684 l 1,17,-1
 30.6016 817 l 1,18,-1
 175.93 901 l 2,19,20
 386.838 1024 386.838 1024 450.445 1094 c 128,-1,21
 514.052 1164 514.052 1164 532.129 1257 c 0,22,23
 548.457 1341 548.457 1341 516.19 1388.5 c 128,-1,24
 483.923 1436 483.923 1436 410.923 1436 c 0,25,26
 347.923 1436 347.923 1436 296.356 1394.5 c 128,-1,27
 244.789 1353 244.789 1353 223.377 1284 c 1,0,-1
EndSplineSet
EndChar
StartChar: threesuperior
Encoding: 179 179 179
Width: 897
Flags: W
Fore
186.226 1481 m 1,0,1
 277.918 1500 277.918 1500 354.362 1510 c 128,-1,2
 430.806 1520 430.806 1520 494.806 1520 c 0,3,4
 674.806 1520 674.806 1520 757.601 1467.5 c 128,-1,5
 840.396 1415 840.396 1415 820.958 1315 c 0,6,7
 806.963 1243 806.963 1243 745.327 1196 c 128,-1,8
 683.691 1149 683.691 1149 578.581 1133 c 1,9,10
 695.471 1117 695.471 1117 746.683 1061.5 c 128,-1,11
 797.895 1006 797.895 1006 779.817 913 c 0,12,13
 756.103 791 756.103 791 642.148 729.5 c 128,-1,14
 528.194 668 528.194 668 327.194 668 c 0,15,16
 247.194 668 247.194 668 169.235 678.5 c 128,-1,17
 91.2764 689 91.2764 689 15.5527 711 c 1,18,-1
 54.4287 911 l 1,19,-1
 150.429 911 l 1,20,21
 141.878 831 141.878 831 177.2 791.5 c 128,-1,22
 212.521 752 212.521 752 291.521 752 c 0,23,24
 379.521 752 379.521 752 434.38 795 c 128,-1,25
 489.238 838 489.238 838 505.178 920 c 0,26,27
 520.729 1000 520.729 1000 480.184 1043.5 c 128,-1,28
 439.64 1087 439.64 1087 348.64 1087 c 2,29,-1
 307.64 1087 l 1,30,-1
 323.967 1171 l 1,31,-1
 354.967 1171 l 2,32,33
 435.967 1171 435.967 1171 486.076 1205 c 128,-1,34
 536.186 1239 536.186 1239 548.625 1303 c 0,35,36
 560.871 1366 560.871 1366 528.675 1401 c 128,-1,37
 496.479 1436 496.479 1436 424.479 1436 c 0,38,39
 358.479 1436 358.479 1436 311.383 1399.5 c 128,-1,40
 264.288 1363 264.288 1363 246.848 1299 c 1,41,-1
 150.653 1298 l 1,42,-1
 186.226 1481 l 1,0,1
EndSplineSet
EndChar
StartChar: acute
Encoding: 180 180 180
Width: 1024
Flags: W
Fore
797 1638 m 1,0,-1
 1076 1638 l 1,1,-1
 629 1262 l 1,2,-1
 465 1262 l 1,3,-1
 797 1638 l 1,0,-1
EndSplineSet
LCarets2: 1 0 
EndChar
StartChar: mu
Encoding: 181 181 181
Width: 1499
Flags: W
Fore
1422.72 1063 m 1,0,-1
 1239.61 121 l 1,1,-1
 1391.61 121 l 1,2,-1
 1368.09 0 l 1,3,-1
 862.09 0 l 1,4,-1
 886.39 125 l 1,5,6
 815.25 42 815.25 42 753.85 6.5 c 0,7,8
 692.45 -29 692.45 -29 618.45 -29 c 0,9,10
 587.45 -29 587.45 -29 559.9 -19 c 0,11,12
 532.34 -9 532.34 -9 503.42 12 c 1,13,-1
 418.28 -426 l 1,14,-1
 64.28 -426 l 1,15,-1
 330.2 942 l 1,16,-1
 178.2 942 l 1,17,-1
 201.72 1063 l 1,18,-1
 707.72 1063 l 1,19,-1
 591.87 467 l 2,20,21
 564.19 324.61 564.19 324.61 564.19 251.34 c 0,22,23
 564.19 211.4 564.19 211.4 572.41 192 c 0,24,25
 595.72 137 595.72 137 683.72 137 c 0,26,27
 789.72 137 789.72 137 854.67 216.5 c 0,28,29
 919.63 296 919.63 296 952.87 467 c 2,30,-1
 1068.72 1063 l 1,31,-1
 1422.72 1063 l 1,0,-1
EndSplineSet
EndChar
StartChar: paragraph
Encoding: 182 182 182
Width: 1303
Flags: W
Fore
787.251 1493 m 2,0,-1
 1342.25 1493 l 1,1,-1
 1317.95 1368 l 1,2,-1
 1204.95 1368 l 1,3,-1
 900.749 -197 l 1,4,-1
 748.749 -197 l 1,5,-1
 1052.95 1368 l 1,6,-1
 889.954 1368 l 1,7,-1
 585.749 -197 l 1,8,-1
 433.749 -197 l 1,9,-1
 598.194 649 l 1,10,11
 386.499 666 386.499 666 289.978 776.5 c 128,-1,12
 193.457 887 193.457 887 229.223 1071 c 0,13,14
 266.155 1261 266.155 1261 418.703 1377 c 128,-1,15
 571.251 1493 571.251 1493 787.251 1493 c 2,0,-1
EndSplineSet
EndChar
StartChar: periodcentered
Encoding: 183 183 183
Width: 713
Flags: W
Fore
165.902 711 m 0,0,1
 181.064 789 181.064 789 247.95 845 c 128,-1,2
 314.835 901 314.835 901 392.835 901 c 0,3,4
 471.835 901 471.835 901 516.95 845 c 128,-1,5
 562.064 789 562.064 789 546.902 711 c 0,6,7
 531.741 633 531.741 633 464.953 577.5 c 128,-1,8
 398.165 522 398.165 522 319.165 522 c 0,9,10
 241.165 522 241.165 522 195.953 577.5 c 128,-1,11
 150.741 633 150.741 633 165.902 711 c 0,0,1
EndSplineSet
EndChar
StartChar: cedilla
Encoding: 184 184 184
Width: 1024
Flags: W
Fore
632.974 0 m 1,0,1
 682.533 -64 682.533 -64 701.439 -118.5 c 128,-1,2
 720.346 -173 720.346 -173 710.237 -225 c 0,3,4
 693.521 -311 693.521 -311 620.273 -356 c 128,-1,5
 547.026 -401 547.026 -401 426.026 -401 c 0,6,7
 378.026 -401 378.026 -401 328.29 -394.5 c 128,-1,8
 278.554 -388 278.554 -388 229.081 -375 c 1,9,-1
 258.404 -219 l 1,10,11
 300.1 -236 300.1 -236 340.85 -245 c 128,-1,12
 381.601 -254 381.601 -254 417.601 -254 c 0,13,14
 477.601 -254 477.601 -254 513.669 -230.5 c 128,-1,15
 549.736 -207 549.736 -207 558.483 -162 c 0,16,17
 563.926 -134 563.926 -134 553.841 -101 c 128,-1,18
 543.756 -68 543.756 -68 505.974 0 c 1,19,-1
 632.974 0 l 1,0,1
EndSplineSet
LCarets2: 1 0 
EndChar
StartChar: onesuperior
Encoding: 185 185 185
Width: 897
Flags: W
Fore
80.749 684 m 1,0,-1
 99.0205 778 l 1,1,-1
 263.021 778 l 1,2,-1
 382.176 1391 l 1,3,-1
 179.544 1290 l 1,4,-1
 199.953 1395 l 1,5,-1
 446.251 1520 l 1,6,-1
 673.251 1520 l 1,7,-1
 529.021 778 l 1,8,-1
 693.021 778 l 1,9,-1
 674.749 684 l 1,10,-1
 80.749 684 l 1,0,-1
EndSplineSet
EndChar
StartChar: ordmasculine
Encoding: 186 186 186
Width: 1024
Flags: W
Fore
40.4961 639 m 1,0,-1
 838.496 639 l 1,1,-1
 812.255 504 l 1,2,-1
 14.2549 504 l 1,3,-1
 40.4961 639 l 1,0,-1
475.262 823 m 0,4,5
 551.262 823 551.262 823 598.563 894 c 128,-1,6
 645.864 965 645.864 965 677.548 1128 c 0,7,8
 709.427 1292 709.427 1292 689.728 1363 c 128,-1,9
 670.028 1434 670.028 1434 594.028 1434 c 0,10,11
 517.028 1434 517.028 1434 470.422 1364 c 128,-1,12
 423.815 1294 423.815 1294 391.548 1128 c 0,13,14
 359.476 963 359.476 963 378.869 893 c 128,-1,15
 398.262 823 398.262 823 475.262 823 c 0,4,5
458.546 737 m 0,16,17
 246.545 737 246.545 737 147.261 841 c 128,-1,18
 47.9766 945 47.9766 945 83.5479 1128 c 0,19,20
 119.12 1311 119.12 1311 258.933 1415.5 c 128,-1,21
 398.745 1520 398.745 1520 610.745 1520 c 0,22,23
 822.745 1520 822.745 1520 921.933 1415.5 c 128,-1,24
 1021.12 1311 1021.12 1311 985.548 1128 c 0,25,26
 949.977 945 949.977 945 810.261 841 c 128,-1,27
 670.545 737 670.545 737 458.546 737 c 0,16,17
EndSplineSet
EndChar
StartChar: guillemotright
Encoding: 187 187 187
Width: 1280
Flags: W
Fore
284.164 1069 m 1,0,-1
 678.328 684 l 1,1,-1
 645.672 516 l 1,2,-1
 101.836 131 l 1,3,-1
 130.604 279 l 1,4,-1
 432 600 l 1,5,-1
 255.591 922 l 1,6,-1
 284.164 1069 l 1,0,-1
744.164 1069 m 1,7,-1
 1138.33 684 l 1,8,-1
 1105.67 516 l 1,9,-1
 561.836 131 l 1,10,-1
 590.604 279 l 1,11,-1
 893 600 l 1,12,-1
 715.591 922 l 1,13,-1
 744.164 1069 l 1,7,-1
EndSplineSet
EndChar
StartChar: questiondown
Encoding: 191 191 191
Width: 1200
Flags: W
Fore
971.421 1329 m 0,0,1
 956.259 1251 956.259 1251 889.568 1196 c 128,-1,2
 822.877 1141 822.877 1141 744.877 1141 c 0,3,4
 665.877 1141 665.877 1141 621.568 1196 c 128,-1,5
 577.259 1251 577.259 1251 592.421 1329 c 0,6,7
 607.777 1408 607.777 1408 674.162 1464 c 128,-1,8
 740.548 1520 740.548 1520 818.548 1520 c 0,9,10
 896.548 1520 896.548 1520 941.565 1463.5 c 128,-1,11
 986.583 1407 986.583 1407 971.421 1329 c 0,0,1
929.67 39 m 1,12,13
 799.062 5 799.062 5 683.757 -12 c 128,-1,14
 568.452 -29 568.452 -29 463.452 -29 c 0,15,16
 211.452 -29 211.452 -29 97.9316 81.5 c 128,-1,17
 -15.5898 192 -15.5898 192 24.2588 397 c 0,18,19
 63.5234 599 63.5234 599 216.669 715.5 c 128,-1,20
 369.813 832 369.813 832 618.312 850 c 1,21,-1
 658.161 1055 l 1,22,-1
 797.161 1055 l 1,23,-1
 739.041 756 l 1,24,25
 591.683 713 591.683 713 508.202 620.5 c 128,-1,26
 424.723 528 424.723 528 394.982 375 c 0,27,28
 366.797 230 366.797 230 413.607 157 c 128,-1,29
 460.417 84 460.417 84 580.417 84 c 0,30,31
 689.417 84 689.417 84 761.746 150 c 128,-1,32
 834.075 216 834.075 216 869.345 346 c 1,33,-1
 989.345 346 l 1,34,-1
 929.67 39 l 1,12,13
EndSplineSet
EndChar
StartChar: Aring
Encoding: 197 197 197
Width: 1589
Flags: W
Fore
786.36 1616 m 0,0,1
 775.863 1562 775.863 1562 807.38 1523.5 c 128,-1,2
 838.896 1485 838.896 1485 891.896 1485 c 0,3,4
 946.896 1485 946.896 1485 992.88 1523.5 c 128,-1,5
 1038.86 1562 1038.86 1562 1049.36 1616 c 0,6,7
 1059.86 1670 1059.86 1670 1028.34 1708.5 c 128,-1,8
 996.824 1747 996.824 1747 942.824 1747 c 0,9,10
 889.824 1747 889.824 1747 843.34 1708.5 c 128,-1,11
 796.856 1670 796.856 1670 786.36 1616 c 0,0,1
-200.759 0 m 1,12,-1
 -177.238 121 l 1,13,-1
 -55.2383 121 l 1,14,-1
 709.264 1384 l 1,15,16
 658.456 1421 658.456 1421 638.716 1481.5 c 128,-1,17
 618.976 1542 618.976 1542 633.36 1616 c 0,18,19
 656.103 1733 656.103 1733 755.931 1817 c 128,-1,20
 855.759 1901 855.759 1901 972.759 1901 c 0,21,22
 1090.76 1901 1090.76 1901 1157.93 1817 c 128,-1,23
 1225.1 1733 1225.1 1733 1202.36 1616 c 0,24,25
 1187.98 1542 1187.98 1542 1146.01 1483 c 128,-1,26
 1104.04 1424 1104.04 1424 1036.26 1384 c 1,27,-1
 1308.76 121 l 1,28,-1
 1450.76 121 l 1,29,-1
 1427.24 0 l 1,30,-1
 728.241 0 l 1,31,-1
 751.762 121 l 1,32,-1
 897.762 121 l 1,33,-1
 834.048 426 l 1,34,-1
 273.048 426 l 1,35,-1
 88.7617 121 l 1,36,-1
 266.762 121 l 1,37,-1
 243.241 0 l 1,38,-1
 -200.759 0 l 1,12,-1
345.567 547 m 1,39,-1
 808.567 547 l 1,40,-1
 691.559 1118 l 1,41,-1
 345.567 547 l 1,39,-1
EndSplineSet
EndChar
StartChar: AE
Encoding: 198 198 198
Width: 2118
Flags: W
AnchorPoint: "above" 1355.66 1465 basechar 0
AnchorPoint: "below" 1070.9 0 basechar 0
Fore
361.832 545 m 1,0,-1
 826.832 545 l 1,1,-1
 987.585 1372 l 1,2,-1
 912.585 1372 l 1,3,-1
 361.832 545 l 1,0,-1
530.896 0 m 1,4,-1
 554.415 121 l 1,5,-1
 744.415 121 l 1,6,-1
 803.312 424 l 1,7,-1
 281.312 424 l 1,8,-1
 79.415 121 l 1,9,-1
 243.415 121 l 1,10,-1
 219.896 0 l 1,11,-1
 -208.104 0 l 1,12,-1
 -184.585 121 l 1,13,-1
 -70.585 121 l 1,14,-1
 764.585 1372 l 1,15,-1
 563.585 1372 l 1,16,-1
 587.104 1493 l 1,17,-1
 2138.1 1493 l 1,18,-1
 2069.68 1141 l 1,19,-1
 1931.68 1141 l 1,20,-1
 1973.47 1356 l 1,21,-1
 1371.47 1356 l 1,22,-1
 1278.37 877 l 1,23,-1
 1645.37 877 l 1,24,-1
 1682.3 1067 l 1,25,-1
 1817.3 1067 l 1,26,-1
 1717 551 l 1,27,-1
 1582 551 l 1,28,-1
 1618.93 741 l 1,29,-1
 1251.93 741 l 1,30,-1
 1134.53 137 l 1,31,-1
 1757.53 137 l 1,32,-1
 1799.32 352 l 1,33,-1
 1934.32 352 l 1,34,-1
 1865.9 0 l 1,35,-1
 530.896 0 l 1,4,-1
EndSplineSet
EndChar
StartChar: Eth
Encoding: 208 208 208
Width: 1790
Flags: W
Fore
564.415 121 m 1,0,-1
 703.415 121 l 2,1,2
 937.415 121 937.415 121 1073.97 270.5 c 128,-1,3
 1210.54 420 1210.54 420 1274.29 748 c 0,4,5
 1337.66 1074 1337.66 1074 1259.12 1223 c 128,-1,6
 1180.58 1372 1180.58 1372 946.585 1372 c 2,7,-1
 807.585 1372 l 1,8,-1
 706.118 850 l 1,9,-1
 1038.12 850 l 1,10,-1
 1011.49 713 l 1,11,-1
 679.488 713 l 1,12,-1
 564.415 121 l 1,0,-1
-36.1045 0 m 1,13,-1
 -12.585 121 l 1,14,-1
 179.415 121 l 1,15,-1
 294.488 713 l 1,16,-1
 81.4883 713 l 1,17,-1
 108.118 850 l 1,18,-1
 321.118 850 l 1,19,-1
 422.585 1372 l 1,20,-1
 230.585 1372 l 1,21,-1
 254.104 1493 l 1,22,-1
 1022.1 1493 l 2,23,24
 1422.1 1493 1422.1 1493 1597.38 1301.5 c 128,-1,25
 1772.66 1110 1772.66 1110 1702.29 748 c 0,26,27
 1631.73 385 1631.73 385 1381.81 192.5 c 128,-1,28
 1131.9 0 1131.9 0 731.896 0 c 2,29,-1
 -36.1045 0 l 1,13,-1
EndSplineSet
EndChar
StartChar: multiply
Encoding: 215 215 215
Width: 1716
Flags: W
Fore
1452 1081 m 1,0,-1
 1012 641 l 1,1,-1
 1452 201 l 1,2,-1
 1298 47 l 1,3,-1
 858 487 l 1,4,-1
 418 47 l 1,5,-1
 264 201 l 1,6,-1
 705 641 l 1,7,-1
 264 1081 l 1,8,-1
 418 1237 l 1,9,-1
 858 797 l 1,10,-1
 1298 1237 l 1,11,-1
 1452 1081 l 1,0,-1
EndSplineSet
EndChar
StartChar: Oslash
Encoding: 216 216 216
Width: 1784
Flags: W
AnchorPoint: "below" 748.09 0 basechar 0
AnchorPoint: "above" 1032.86 1465 basechar 0
Fore
483.197 479 m 1,0,-1
 1291.99 1157 l 1,1,2
 1273.12 1276 1273.12 1276 1203.57 1337.5 c 128,-1,3
 1134.03 1399 1134.03 1399 1018.03 1399 c 0,4,5
 828.027 1399 828.027 1399 702.94 1236.5 c 128,-1,6
 577.854 1074 577.854 1074 513.902 745 c 0,7,8
 499.13 669 499.13 669 491.301 603 c 128,-1,9
 483.472 537 483.472 537 483.197 479 c 1,0,-1
491.013 334 m 1,10,11
 512.298 212 512.298 212 580.136 152 c 128,-1,12
 647.973 92 647.973 92 763.973 92 c 0,13,14
 958.973 92 958.973 92 1083.43 259 c 128,-1,15
 1207.9 426 1207.9 426 1277.48 784 c 0,16,17
 1290.12 849 1290.12 849 1293.93 899.5 c 128,-1,18
 1297.75 950 1297.75 950 1293.11 993 c 1,19,-1
 491.013 334 l 1,10,11
1619.9 1280 m 1,20,21
 1689.68 1176 1689.68 1176 1708.73 1042.5 c 128,-1,22
 1727.78 909 1727.78 909 1695.9 745 c 0,23,24
 1625.54 383 1625.54 383 1371 177 c 128,-1,25
 1116.45 -29 1116.45 -29 740.452 -29 c 0,26,27
 582.452 -29 582.452 -29 457.533 10 c 128,-1,28
 332.614 49 332.614 49 241.775 127 c 1,29,-1
 -2.07227 -78 l 1,30,-1
 -74.5781 12 l 1,31,-1
 164.492 213 l 1,32,33
 93.3193 315 93.3193 315 73.7695 448.5 c 128,-1,34
 54.2188 582 54.2188 582 85.9023 745 c 0,35,36
 156.269 1107 156.269 1107 410.908 1313.5 c 128,-1,37
 665.548 1520 665.548 1520 1041.55 1520 c 0,38,39
 1201.55 1520 1201.55 1520 1327.06 1481.5 c 128,-1,40
 1452.58 1443 1452.58 1443 1541.61 1366 c 1,41,-1
 1784.07 1569 l 1,42,-1
 1856.58 1479 l 1,43,-1
 1619.9 1280 l 1,20,21
EndSplineSet
EndChar
StartChar: Thorn
Encoding: 222 222 222
Width: 1550
Flags: W
Fore
-49.1045 0 m 1,0,-1
 -25.585 121 l 1,1,-1
 165.415 121 l 1,2,-1
 408.585 1372 l 1,3,-1
 217.585 1372 l 1,4,-1
 241.104 1493 l 1,5,-1
 1056.1 1493 l 1,6,-1
 1032.58 1372 l 1,7,-1
 793.585 1372 l 1,8,-1
 760.54 1202 l 1,9,-1
 1034.54 1202 l 2,10,11
 1283.54 1202 1283.54 1202 1407.51 1083.5 c 128,-1,12
 1531.47 965 1531.47 965 1492.79 766 c 0,13,14
 1454.11 567 1454.11 567 1283.38 447.5 c 128,-1,15
 1112.65 328 1112.65 328 864.651 328 c 2,16,-1
 590.651 328 l 1,17,-1
 550.415 121 l 1,18,-1
 791.415 121 l 1,19,-1
 767.896 0 l 1,20,-1
 -49.1045 0 l 1,0,-1
614.172 449 m 1,21,-1
 726.172 449 l 2,22,23
 856.172 449 856.172 449 950.389 535 c 128,-1,24
 1044.61 621 1044.61 621 1072.79 766 c 0,25,26
 1100.78 910 1100.78 910 1040.4 995.5 c 128,-1,27
 980.021 1081 980.021 1081 849.021 1081 c 2,28,-1
 737.021 1081 l 1,29,-1
 614.172 449 l 1,21,-1
EndSplineSet
EndChar
StartChar: germandbls
Encoding: 223 223 223
Width: 1556
Flags: W
Fore
1085.93 1221 m 1,0,1
 1103.03 1345 1103.03 1345 1064.65 1394.5 c 128,-1,2
 1026.28 1444 1026.28 1444 914.275 1444 c 0,3,4
 805.275 1444 805.275 1444 744.71 1384.5 c 128,-1,5
 684 1325 684 1325 658 1190 c 2,29,-1
 421 -29 l 2,30,31
 380 -238 380 -238 256 -298 c 0,32,33
 63 -389 63 -389 -156 -389 c 1,34,35
 -145 -333 -145 -333 -133 -277 c 17,0,1
 -53 -277 -53 -277 -6 -219.5 c 128,-1,2
 41 -162 41 -162 66 -33 c 2,3,-1
 296 1147 l 2,4,-1
 335 1348 335 1348 495.023 1452 c 128,-1,13
 655.047 1556 655.047 1556 924.047 1556 c 0,14,15
 1187.05 1556 1187.05 1556 1301.04 1450.5 c 128,-1,16
 1415.03 1345 1415.03 1345 1397.52 1116 c 1,17,-1
 1375.52 1116 l 2,18,19
 1220.52 1116 1220.52 1116 1132.17 1070.5 c 128,-1,20
 1043.83 1025 1043.83 1025 1026.53 936 c 0,21,22
 1018.76 896 1018.76 896 1035.24 862.5 c 0,23,24
 1053.25 825.909 1053.25 825.909 1122.88 768 c 2,24,-1
 1198.63 705 l 2,25,26
 1349.77 579.298 1349.77 579.298 1384.39 498 c 0,27,28
 1418.04 419 1418.04 419 1397.04 311 c 0,28,29
 1365.94 151 1365.94 151 1223.95 61 c 128,-1,30
 1081.95 -29 1081.95 -29 857.953 -29 c 0,31,32
 777.953 -29 777.953 -29 693.369 -14 c 128,-1,33
 608.785 1 608.785 1 514.616 31 c 1,34,-1
 564.767 289 l 1,35,-1
 685.767 289 l 1,36,37
 677.968 182 677.968 182 717.443 133 c 128,-1,38
 756.919 84 756.919 84 850.919 84 c 0,39,40
 926.919 84 926.919 84 982.472 128 c 128,-1,41
 1038.02 172 1038.02 172 1052.02 244 c 0,42,43
 1072.43 349 1072.43 349 931.172 466 c 0,44,45
 929.206 467.631 929.206 467.631 903.643 489 c 2,46,-1
 827.083 553 l 2,47,48
 739.887 625.891 739.887 625.891 709.726 705.5 c 0,49,50
 679.984 784 679.984 784 700.395 889 c 0,50,51
 726.441 1023 726.441 1023 822.479 1105.5 c 128,-1,52
 918.515 1188 918.515 1188 1085.93 1221 c 1,0,1
EndSplineSet
EndChar
StartChar: ae
Encoding: 230 230 230
Width: 1908
Flags: W
TeX: 0 0 0 0
AnchorPoint: "below" 859.67 4.5 basechar 0
AnchorPoint: "above" 1070.98 1096.5 basechar 0
Fore
1465 831 m 0,0,1
 1465 979 1465 979 1341 979 c 0,2,3
 1246 979 1246 979 1193.5 894.5 c 128,-1,4
 1141 810 1141 810 1094 581 c 2,5,-1
 1083 519 l 1,6,7
 1416 519 1416 519 1458 762 c 0,8,9
 1465 799 1465 799 1465 831 c 0,0,1
841 876 m 1,10,11
 838 936 838 936 781 936 c 0,12,13
 647 936 647 936 516 776 c 0,14,15
 455 702 455 702 421 527 c 128,-1,16
 387 352 387 352 387 288.5 c 128,-1,17
 387 225 387 225 397 198 c 0,18,19
 423 127 423 127 517 127 c 128,-1,20
 611 127 611 127 669.5 210 c 128,-1,21
 728 293 728 293 764 479 c 2,22,-1
 841 876 l 1,10,11
1137 1060 m 1,23,24
 1241 1092 1241 1092 1364 1092 c 0,25,26
 1555 1092 1555 1092 1687.5 1017.5 c 128,-1,27
 1820 943 1820 943 1820 808 c 0,28,29
 1820 781 1820 781 1814 752 c 0,30,31
 1751 428 1751 428 1060 400 c 1,32,33
 1053 366 1053 366 1053 334 c 0,34,35
 1053 84 1053 84 1259 84 c 0,36,37
 1374 84 1374 84 1457 145 c 128,-1,38
 1540 206 1540 206 1582 322 c 1,39,-1
 1748 322 l 1,40,41
 1670 141 1670 141 1525.5 56 c 128,-1,42
 1381 -29 1381 -29 1145.5 -29 c 128,-1,43
 910 -29 910 -29 788 82 c 1,44,45
 641 -29 641 -29 392 -29 c 0,46,47
 199 -29 199 -29 113 98 c 0,48,49
 56 183 56 183 56 310 c 0,50,51
 56 613 56 613 294.5 852.5 c 128,-1,52
 533 1092 533 1092 837 1092 c 0,53,54
 1054 1092 1054 1092 1137 1060 c 1,23,24
EndSplineSet
AlternateSubs2: "'aalt' Access All Alternates" ae.alt
Substitution2: "'salt' Stylistic Alternatives" ae.alt
EndChar
StartChar: eth
Encoding: 240 240 240
Width: 1366
Flags: W
Fore
1005.6 1337 m 1,0,1
 1164.64 1188 1164.64 1188 1225.97 986.5 c 128,-1,2
 1287.3 785 1287.3 785 1242.99 557 c 0,3,4
 1189.53 282 1189.53 282 1000.3 126.5 c 128,-1,5
 811.079 -29 811.079 -29 529.079 -29 c 0,6,7
 254.079 -29 254.079 -29 120.056 117.5 c 128,-1,8
 -13.9678 264 -13.9678 264 33.4609 508 c 0,9,10
 78.1689 738 78.1689 738 267.02 889 c 128,-1,11
 455.871 1040 455.871 1040 699.871 1040 c 0,12,13
 741.871 1040 741.871 1040 783.705 1034 c 128,-1,14
 825.539 1028 825.539 1028 867.206 1016 c 1,15,16
 858.452 1079 858.452 1079 836.644 1134 c 128,-1,17
 814.834 1189 814.834 1189 777.941 1241 c 1,18,-1
 429.979 1092 l 1,19,-1
 399.417 1192 l 1,20,-1
 703.881 1323 l 1,21,22
 659.268 1361 659.268 1361 588.793 1392 c 128,-1,23
 518.319 1423 518.319 1423 422.79 1446 c 1,24,-1
 472.172 1556 l 1,25,26
 608.867 1539 608.867 1539 718.772 1502.5 c 128,-1,27
 828.678 1466 828.678 1466 908.986 1411 c 1,28,-1
 1268.92 1565 l 1,29,-1
 1295.9 1462 l 1,30,-1
 1005.6 1337 l 1,0,1
861.909 891 m 1,31,32
 818.602 910 818.602 910 782.852 919 c 128,-1,33
 747.101 928 747.101 928 715.101 928 c 0,34,35
 604.101 928 604.101 928 538.537 832.5 c 128,-1,36
 472.975 737 472.975 737 428.461 508 c 0,37,38
 382.977 274 382.977 274 411.51 179 c 128,-1,39
 440.044 84 440.044 84 551.044 84 c 0,40,41
 662.044 84 662.044 84 726.315 178 c 128,-1,42
 790.587 272 790.587 272 836.461 508 c 0,43,44
 857.26 615 857.26 615 863.323 710.5 c 128,-1,45
 869.387 806 869.387 806 861.909 891 c 1,31,32
EndSplineSet
EndChar
StartChar: divide
Encoding: 247 247 247
Width: 1716
Flags: W
CounterMasks: 1 00
Fore
709 1012 m 0,0,1
 709 1073 709 1073 753 1117 c 128,-1,2
 797 1161 797 1161 858 1161 c 0,3,4
 920 1161 920 1161 964 1117 c 128,-1,5
 1008 1073 1008 1073 1008 1012 c 0,6,7
 1008 950 1008 950 964 906 c 128,-1,8
 920 862 920 862 858 862 c 0,9,10
 797 862 797 862 753 906 c 128,-1,11
 709 950 709 950 709 1012 c 0,0,1
709 272 m 0,12,13
 709 334 709 334 753 378 c 128,-1,14
 797 422 797 422 858 422 c 0,15,16
 920 422 920 422 964 378 c 128,-1,17
 1008 334 1008 334 1008 272 c 0,18,19
 1008 211 1008 211 964 167 c 128,-1,20
 920 123 920 123 858 123 c 0,21,22
 797 123 797 123 753 167 c 128,-1,23
 709 211 709 211 709 272 c 0,12,13
217 756 m 1,24,-1
 1499 756 l 1,25,-1
 1499 528 l 1,26,-1
 217 528 l 1,27,-1
 217 756 l 1,24,-1
EndSplineSet
EndChar
StartChar: oslash
Encoding: 248 248 248
Width: 1366
Flags: W
AnchorPoint: "below" 581.075 0 basechar 0
AnchorPoint: "above" 793.339 1092 basechar 0
Fore
458.938 416 m 1,0,-1
 920.774 801 l 1,1,2
 921.269 891 921.269 891 884.821 935 c 128,-1,3
 848.374 979 848.374 979 771.374 979 c 0,4,5
 661.374 979 661.374 979 596.311 883.5 c 128,-1,6
 531.247 788 531.247 788 485.568 553 c 2,7,-1
 458.938 416 l 1,0,-1
448.003 262 m 1,8,9
 445.703 173 445.703 173 483.054 128.5 c 128,-1,10
 520.403 84 520.403 84 597.403 84 c 0,11,12
 706.403 84 706.403 84 770.676 178 c 128,-1,13
 834.947 272 834.947 272 880.821 508 c 2,14,-1
 908.229 649 l 1,15,-1
 448.003 262 l 1,8,9
1225.54 913 m 1,16,17
 1277.55 841 1277.55 841 1292.49 745.5 c 128,-1,18
 1307.42 650 1307.42 650 1284.49 532 c 0,19,20
 1233.56 270 1233.56 270 1045 120.5 c 128,-1,21
 856.438 -29 856.438 -29 575.438 -29 c 0,22,23
 464.438 -29 464.438 -29 376.201 -4.5 c 128,-1,24
 287.963 20 287.963 20 217.683 70 c 1,25,-1
 12.249 -102 l 1,26,-1
 -55.0342 -16 l 1,27,-1
 140.649 147 l 1,28,29
 90.2285 222 90.2285 222 75.9854 318.5 c 128,-1,30
 61.7432 415 61.7432 415 84.4863 532 c 0,31,32
 135.608 795 135.608 795 323.974 943.5 c 128,-1,33
 512.339 1092 512.339 1092 793.339 1092 c 0,34,35
 909.339 1092 909.339 1092 998.979 1067 c 128,-1,36
 1088.62 1042 1088.62 1042 1151.1 993 c 1,37,-1
 1351.75 1161 l 1,38,-1
 1421.03 1075 l 1,39,-1
 1225.54 913 l 1,16,17
EndSplineSet
EndChar
StartChar: thorn
Encoding: 254 254 254
Width: 1432
Flags: W
Fore
556.69 584 m 2,0,-1
 536.28 479 l 2,1,2
 516.92 379.4 516.92 379.4 516.92 309.34 c 0,3,4
 516.92 248.56 516.92 248.56 531.49 210 c 0,5,6
 562.86 127 562.86 127 668.86 127 c 0,7,8
 777.86 127 777.86 127 839.47 215 c 0,9,10
 901.07 303 901.07 303 945.59 532 c 0,11,12
 973.1 673.56 973.1 673.56 973.1 761.05 c 0,13,14
 973.1 815.09 973.1 815.09 962.61 848.5 c 0,15,16
 935.11 936 935.11 936 826.11 936 c 0,17,18
 720.11 936 720.11 936 656.48 853 c 128,-1,19
 592.85 770 592.85 770 556.69 584 c 2,0,-1
368.31 1436 m 1,20,-1
 216.31 1436 l 1,21,-1
 239.63 1556 l 1,22,-1
 745.63 1556 l 1,23,-1
 623.56 928 l 1,24,25
 684.69 1011 684.69 1011 768.57 1051.5 c 0,26,27
 852.44 1092 852.44 1092 964.44 1092 c 0,28,29
 1191.44 1092 1191.44 1092 1292.88 942.5 c 0,30,31
 1360.5 842.84 1360.5 842.84 1360.5 693.63 c 0,32,33
 1360.5 619.01 1360.5 619.01 1343.59 532 c 0,34,35
 1292.85 271 1292.85 271 1133.2 121 c 0,36,37
 973.54 -29 973.54 -29 746.54 -29 c 0,38,39
 634.54 -29 634.54 -29 566.41 11.5 c 0,40,41
 498.28 52 498.28 52 469.42 135 c 1,42,-1
 360.37 -426 l 1,43,-1
 6.37 -426 l 1,44,-1
 368.31 1436 l 1,20,-1
EndSplineSet
EndChar
StartChar: dcroat
Encoding: 273 273 273
Width: 1432
Flags: W
Fore
823.7 479 m 2,0,-1
 844.11 584 l 2,1,2
 863.33 682.86 863.33 682.86 863.33 752.63 c 0,3,4
 863.33 814.12 863.33 814.12 848.4 853 c 0,5,6
 816.53 936 816.53 936 711.53 936 c 0,7,8
 601.53 936 601.53 936 540.02 848.5 c 128,-1,9
 478.51 761 478.51 761 434 532 c 0,10,11
 406.64 391.22 406.64 391.22 406.64 303.73 c 0,12,13
 406.64 248.9 406.64 248.9 417.38 215 c 0,14,15
 445.28 127 445.28 127 554.28 127 c 0,16,17
 659.28 127 659.28 127 723.41 210 c 0,18,19
 787.54 293 787.54 293 823.7 479 c 2,0,-1
1322.32 1223 m 1,20,-1
 1084.59 0 l 1,21,-1
 730.59 0 l 1,22,-1
 756.83 135 l 1,23,24
 695.7 52 695.7 52 611.33 11.5 c 0,25,26
 526.95 -29 526.95 -29 414.95 -29 c 0,27,28
 188.95 -29 188.95 -29 88.61 121 c 0,29,30
 21.96 220.63 21.96 220.63 21.96 369.22 c 0,31,32
 21.96 444.35 21.96 444.35 39 532 c 0,33,34
 89.93 794 89.93 794 248.39 943 c 0,35,36
 406.85 1092 406.85 1092 632.85 1092 c 0,37,38
 744.85 1092 744.85 1092 813.48 1051.5 c 128,-1,39
 882.11 1011 882.11 1011 910.98 928 c 1,40,-1
 968.32 1223 l 1,41,-1
 644.32 1223 l 1,42,-1
 667.64 1343 l 1,43,-1
 991.64 1343 l 1,44,-1
 1009.72 1436 l 1,45,-1
 857.72 1436 l 1,46,-1
 881.05 1556 l 1,47,-1
 1387.05 1556 l 1,48,-1
 1345.64 1343 l 1,49,-1
 1517.64 1343 l 1,50,-1
 1494.32 1223 l 1,51,-1
 1322.32 1223 l 1,20,-1
EndSplineSet
EndChar
StartChar: Hbar
Encoding: 294 294 294
Width: 1935
Flags: W
AnchorPoint: "above" 1129.5 1465 basechar 0
Fore
-49 0 m 1,0,-1
 -26 121 l 1,1,-1
 165 121 l 1,2,-1
 347 1053 l 1,3,-1
 156 1053 l 1,4,-1
 182 1190 l 1,5,-1
 373 1190 l 1,6,-1
 409 1372 l 1,7,-1
 218 1372 l 1,8,-1
 241 1493 l 1,9,-1
 1009 1493 l 1,10,-1
 986 1372 l 1,11,-1
 794 1372 l 1,12,-1
 758 1190 l 1,13,-1
 1352 1190 l 1,14,-1
 1388 1372 l 1,15,-1
 1197 1372 l 1,16,-1
 1220 1493 l 1,17,-1
 1988 1493 l 1,18,-1
 1965 1372 l 1,19,-1
 1773 1372 l 1,20,-1
 1737 1190 l 1,21,-1
 1929 1190 l 1,22,-1
 1903 1053 l 1,23,-1
 1711 1053 l 1,24,-1
 1529 121 l 1,25,-1
 1721 121 l 1,26,-1
 1698 0 l 1,27,-1
 930 0 l 1,28,-1
 953 121 l 1,29,-1
 1144 121 l 1,30,-1
 1263 733 l 1,31,-1
 669 733 l 1,32,-1
 550 121 l 1,33,-1
 742 121 l 1,34,-1
 719 0 l 1,35,-1
 -49 0 l 1,0,-1
696 870 m 1,36,-1
 1290 870 l 1,37,-1
 1326 1053 l 1,38,-1
 732 1053 l 1,39,-1
 696 870 l 1,36,-1
EndSplineSet
EndChar
StartChar: hbar
Encoding: 295 295 295
Width: 1489
Flags: W
AnchorPoint: "below" 603.772 0 basechar 0
AnchorPoint: "above" 483.504 1465 basechar 0
Fore
69.77 0 m 1,0,-1
 302.25 1196 l 1,1,-1
 144.25 1196 l 1,2,-1
 170.88 1333 l 1,3,-1
 328.88 1333 l 1,4,-1
 348.9 1436 l 1,5,-1
 190.9 1436 l 1,6,-1
 214.23 1556 l 1,7,-1
 726.23 1556 l 1,8,-1
 682.88 1333 l 1,9,-1
 1041.88 1333 l 1,10,-1
 1015.25 1196 l 1,11,-1
 656.25 1196 l 1,12,-1
 601.24 913 l 1,13,14
 683.71 1008 683.71 1008 773.87 1050 c 0,15,16
 864.03 1092 864.03 1092 989.03 1092 c 0,17,18
 1168.04 1092 1168.04 1092 1239.03 986.5 c 0,19,20
 1284.5 918.93 1284.5 918.93 1284.5 810.54 c 0,21,22
 1284.5 749.7 1284.5 749.7 1270.17 676 c 2,23,-1
 1162.29 121 l 1,24,-1
 1314.29 121 l 1,25,-1
 1290.77 0 l 1,26,-1
 784.77 0 l 1,27,-1
 918.12 686 l 2,28,29
 931.74 756.1 931.74 756.1 931.74 803.95 c 0,30,31
 931.74 848.26 931.74 848.26 920.06 873.5 c 0,32,33
 895.77 926 895.77 926 810.77 926 c 0,34,35
 703.77 926 703.77 926 638.51 847.5 c 128,-1,36
 573.25 769 573.25 769 540.01 598 c 2,37,-1
 423.77 0 l 1,38,-1
 69.77 0 l 1,0,-1
EndSplineSet
EndChar
StartChar: dotlessi
Encoding: 305 305 305
Width: 778
Flags: W
AnchorPoint: "above" 497 1092 basechar 0
Fore
495.21 121 m 1,0,-1
 647.21 121 l 1,1,-1
 623.69 0 l 1,2,-1
 117.69 0 l 1,3,-1
 300.79 942 l 1,4,-1
 149.79 942 l 1,5,-1
 173.31 1063 l 1,6,-1
 678.31 1063 l 1,7,-1
 495.21 121 l 1,0,-1
EndSplineSet
EndChar
StartChar: kgreenlandic
Encoding: 312 312 312
Width: 1419
Flags: W
Fore
471.98 0 m 1,0,-1
 117.98 0 l 1,1,-1
 300.5 939 l 1,2,-1
 149.5 939 l 1,3,-1
 173.02 1060 l 1,4,-1
 678.02 1060 l 1,5,-1
 580.05 556 l 1,6,-1
 1083.5 939 l 1,7,-1
 956.5 939 l 1,8,-1
 980.02 1060 l 1,9,-1
 1268.02 1060 l 1,10,-1
 1244.5 939 l 1,11,-1
 923.07 695 l 1,12,-1
 1259.5 121 l 1,13,-1
 1374.5 121 l 1,14,-1
 1350.98 0 l 1,15,-1
 959.98 0 l 1,16,-1
 667.97 499 l 1,17,-1
 551.87 411 l 1,18,-1
 471.98 0 l 1,0,-1
EndSplineSet
EndChar
StartChar: Lslash
Encoding: 321 321 321
Width: 1454
Flags: W
Fore
-36.1045 0 m 1,0,-1
 -12.585 121 l 1,1,-1
 179.415 121 l 1,2,-1
 262.61 549 l 1,3,-1
 22.9238 422 l 1,4,-1
 -24.334 539 l 1,5,-1
 293.322 707 l 1,6,-1
 422.585 1372 l 1,7,-1
 230.585 1372 l 1,8,-1
 254.104 1493 l 1,9,-1
 1022.1 1493 l 1,10,-1
 998.585 1372 l 1,11,-1
 807.585 1372 l 1,12,-1
 723.224 938 l 1,13,-1
 1102.29 1139 l 1,14,-1
 1149.55 1022 l 1,15,-1
 692.123 778 l 1,16,-1
 567.525 137 l 1,17,-1
 1155.53 137 l 1,18,-1
 1201.4 373 l 1,19,-1
 1336.4 373 l 1,20,-1
 1263.9 0 l 1,21,-1
 -36.1045 0 l 1,0,-1
EndSplineSet
EndChar
StartChar: lslash
Encoding: 322 322 322
Width: 788
Flags: W
Fore
452.29 121 m 1,0,-1
 603.29 121 l 1,1,-1
 579.77 0 l 1,2,-1
 73.77 0 l 1,3,-1
 200.7 653 l 1,4,-1
 27.04 557 l 1,5,-1
 -14.55 662 l 1,6,-1
 228.3 795 l 1,7,-1
 352.9 1436 l 1,8,-1
 201.9 1436 l 1,9,-1
 225.23 1556 l 1,10,-1
 731.23 1556 l 1,11,-1
 622.96 999 l 1,12,-1
 796.81 1096 l 1,13,-1
 840.4 991 l 1,14,-1
 595.55 858 l 1,15,-1
 452.29 121 l 1,0,-1
EndSplineSet
EndChar
StartChar: Eng
Encoding: 330 330 330
Width: 1786
Flags: W
TeX: 0 0 0 0
Fore
805 -173 m 0,0,1
 805 -305 805 -305 932 -305 c 0,2,3
 1029 -305 1029 -305 1082 -230.5 c 128,-1,4
 1135 -156 1135 -156 1175 49 c 2,5,-1
 1345 927 l 2,6,7
 1375 1080 1375 1080 1375 1158 c 128,-1,8
 1375 1236 1375 1236 1363 1273 c 0,9,10
 1332 1370 1332 1370 1210 1370 c 0,11,12
 1059 1370 1059 1370 962 1245.5 c 128,-1,13
 865 1121 865 1121 810 841 c 2,14,-1
 671 121 l 1,15,-1
 862 121 l 1,16,-1
 838 0 l 1,17,-1
 70 0 l 1,18,-1
 94 121 l 1,19,-1
 284 121 l 1,20,-1
 527 1372 l 1,21,-1
 376 1372 l 1,22,-1
 399 1493 l 1,23,-1
 937 1493 l 1,24,-1
 907 1339 l 1,25,26
 1006 1436 1006 1436 1117 1478.5 c 128,-1,27
 1228 1521 1228 1521 1388 1521 c 0,28,29
 1614 1521 1614 1521 1702 1380 c 0,30,31
 1757 1292 1757 1292 1757 1180 c 128,-1,32
 1757 1068 1757 1068 1737 965 c 2,33,-1
 1557 41 l 2,34,35
 1510 -202 1510 -202 1365.5 -314 c 128,-1,36
 1221 -426 1221 -426 954 -426 c 0,37,38
 790 -426 790 -426 629 -358 c 1,39,-1
 675 -123 l 1,40,-1
 808 -123 l 1,41,42
 805 -150 805 -150 805 -173 c 0,0,1
EndSplineSet
Substitution2: "'locl' Localized Forms in Latin - Sami" Eng.alt
EndChar
StartChar: eng
Encoding: 331 331 331
Width: 1489
Flags: W
Fore
849.79 -125 m 2,0,-1
 1007.43 686 l 2,1,2
 1021.06 756.1 1021.06 756.1 1021.06 803.96 c 0,3,4
 1021.06 848.26 1021.06 848.26 1009.38 873.5 c 0,5,6
 985.09 926 985.09 926 900.09 926 c 0,7,8
 793.09 926 793.09 926 727.83 847.5 c 128,-1,9
 662.57 769 662.57 769 629.33 598 c 2,10,-1
 513.09 0 l 1,11,-1
 159.09 0 l 1,12,-1
 342.2 942 l 1,13,-1
 191.2 942 l 1,14,-1
 214.72 1063 l 1,15,-1
 719.72 1063 l 1,16,-1
 690.56 913 l 1,17,18
 773.03 1008 773.03 1008 863.19 1050 c 128,-1,19
 953.35 1092 953.35 1092 1078.35 1092 c 0,20,21
 1257.35 1092 1257.35 1092 1328.35 986.5 c 0,22,23
 1373.82 918.93 1373.82 918.93 1373.82 810.54 c 0,24,25
 1373.82 749.7 1373.82 749.7 1359.49 676 c 2,26,-1
 1203.79 -125 l 2,27,28
 1172.11 -288 1172.11 -288 1040.38 -371.5 c 128,-1,29
 908.65 -455 908.65 -455 683.65 -455 c 0,30,31
 623.65 -455 623.65 -455 557.59 -445 c 0,32,33
 491.53 -435 491.53 -435 422.23 -416 c 1,34,-1
 466.16 -190 l 1,35,-1
 578.96 -191 l 1,36,37
 573.88 -220.99 573.88 -220.99 573.88 -244.72 c 0,38,39
 573.88 -284.31 573.88 -284.31 588.01 -306.5 c 0,40,41
 610.61 -342 610.61 -342 676.61 -342 c 0,42,43
 749.61 -342 749.61 -342 787.75 -295 c 0,44,45
 825.88 -248 825.88 -248 849.79 -125 c 2,0,-1
EndSplineSet
EndChar
StartChar: OE
Encoding: 338 338 338
Width: 2417
Flags: W
AnchorPoint: "below" 1208.9 0 basechar 0
AnchorPoint: "above" 1493.66 1465 basechar 0
Fore
1043.42 121 m 1,0,-1
 1286.58 1372 l 1,1,-1
 1159.58 1372 l 2,2,3
 895.585 1372 895.585 1372 731.067 1215 c 128,-1,4
 566.55 1058 566.55 1058 506.292 748 c 0,5,6
 445.256 434 445.256 434 547.836 277.5 c 128,-1,7
 650.415 121 650.415 121 916.415 121 c 2,8,-1
 1043.42 121 l 1,0,-1
2166.9 0 m 1,9,-1
 845.896 0 l 2,10,11
 638.896 0 638.896 0 508.449 26 c 128,-1,12
 378.003 52 378.003 52 288.083 109 c 1,13,14
 147.799 195 147.799 195 95.5664 361 c 128,-1,15
 43.334 527 43.334 527 86.292 748 c 0,16,17
 129.056 968 129.056 968 245.531 1132.5 c 128,-1,18
 362.006 1297 362.006 1297 535.917 1384 c 1,19,20
 647.191 1442 647.191 1442 786.148 1467.5 c 128,-1,21
 925.104 1493 925.104 1493 1136.1 1493 c 2,22,-1
 2439.1 1493 l 1,23,-1
 2370.68 1141 l 1,24,-1
 2233.68 1141 l 1,25,-1
 2275.47 1356 l 1,26,-1
 1670.47 1356 l 1,27,-1
 1577.37 877 l 1,28,-1
 1944.37 877 l 1,29,-1
 1981.3 1067 l 1,30,-1
 2118.3 1067 l 1,31,-1
 2018 551 l 1,32,-1
 1881 551 l 1,33,-1
 1917.93 741 l 1,34,-1
 1550.93 741 l 1,35,-1
 1433.53 137 l 1,36,-1
 2056.53 137 l 1,37,-1
 2098.32 352 l 1,38,-1
 2235.32 352 l 1,39,-1
 2166.9 0 l 1,9,-1
EndSplineSet
EndChar
StartChar: oe
Encoding: 339 339 339
Width: 2105
Flags: W
AnchorPoint: "above" 1193.95 1092 basechar 0
AnchorPoint: "below" 981.687 0 basechar 0
Fore
1258 400 m 1,0,1
 1252 366 1252 366 1252 295 c 0,2,3
 1253 84 1253 84 1458 84 c 0,4,5
 1573 84 1573 84 1656 145 c 128,-1,6
 1739 206 1739 206 1781 322 c 1,7,-1
 1947 322 l 1,8,9
 1869 141 1869 141 1724.5 56 c 128,-1,10
 1580 -29 1580 -29 1345 -29 c 128,-1,12
 1110 -29 1110 -29 989 81 c 1,13,14
 816 -29 816 -29 555 -29 c 128,-1,16
 294 -29 294 -29 164 120 c 0,17,18
 70 228 70 228 70 394 c 0,19,20
 70 458 70 458 84 532 c 0,21,22
 135 795 135 795 323.5 943.5 c 128,-1,23
 512 1092 512 1092 775 1092 c 0,24,25
 1037 1092 1037 1092 1168 980 c 1,26,27
 1334 1092 1334 1092 1544 1092 c 128,-1,29
 1754 1092 1754 1092 1876 1024 c 0,30,31
 2047 927 2047 927 2013 752 c 0,32,33
 1950 428 1950 428 1258 400 c 1,0,1
1657 762 m 0,34,35
 1672 837 1672 837 1656 894 c 0,36,37
 1634 979 1634 979 1539 979 c 0,38,39
 1445 979 1445 979 1391 893 c 0,40,41
 1335 799 1335 799 1281 519 c 1,42,43
 1608 510 1608 510 1657 762 c 0,34,35
457 181 m 0,44,45
 484 84 484 84 597 84 c 0,46,47
 709 84 709 84 773 180 c 128,-1,48
 837 276 837 276 878 488 c 0,49,50
 920 699 920 699 920 774.5 c 128,-1,51
 920 850 920 850 910 884 c 0,52,53
 884 979 884 979 771 979 c 128,-1,55
 658 979 658 979 593 882.5 c 128,-1,56
 528 786 528 786 488 577 c 0,57,58
 447 368 447 368 447 291.5 c 128,-1,59
 447 215 447 215 457 181 c 0,44,45
EndSplineSet
EndChar
StartChar: Tbar
Encoding: 358 358 358
Width: 1524
Flags: W
TeX: 0 0 0 0
Fore
226 0 m 1,0,-1
 249 121 l 1,1,-1
 447 121 l 1,2,-1
 552 659 l 1,3,-1
 305 659 l 1,4,-1
 342 851 l 1,5,-1
 589 851 l 1,6,-1
 687 1356 l 1,7,-1
 278 1356 l 1,8,-1
 233 1120 l 1,9,-1
 96 1120 l 1,10,-1
 168 1493 l 1,11,-1
 1648 1493 l 1,12,-1
 1576 1120 l 1,13,-1
 1441 1120 l 1,14,-1
 1486 1356 l 1,15,-1
 1074 1356 l 1,16,-1
 976 851 l 1,17,-1
 1223 851 l 1,18,-1
 1186 659 l 1,19,-1
 939 659 l 1,20,-1
 834 121 l 1,21,-1
 1033 121 l 1,22,-1
 1010 0 l 1,23,-1
 226 0 l 1,0,-1
EndSplineSet
EndChar
StartChar: tbar
Encoding: 359 359 359
Width: 946
Flags: W
TeX: 0 0 0 0
Fore
254 942 m 1,0,-1
 100 942 l 1,1,-1
 123 1063 l 1,2,-1
 277 1063 l 1,3,-1
 341 1393 l 1,4,-1
 695 1393 l 1,5,-1
 631 1063 l 1,6,-1
 926 1063 l 1,7,-1
 903 942 l 1,8,-1
 608 942 l 1,9,-1
 554 665 l 1,10,-1
 738 665 l 1,11,-1
 700 473 l 1,12,-1
 516 473 l 1,13,-1
 481 291 l 2,14,15
 464 202 464 202 464 157 c 0,16,17
 464 130 464 130 469 118 c 0,18,19
 485 84 485 84 543 84 c 0,20,21
 607 84 607 84 646 127 c 128,-1,22
 685 170 685 170 705 260 c 1,23,-1
 854 260 l 1,24,25
 814 100 814 100 722 36 c 0,26,27
 632 -29 632 -29 440 -29 c 0,28,29
 221 -29 221 -29 156 40 c 0,30,31
 114 84 114 84 114 176 c 0,32,33
 114 226 114 226 127 291 c 2,34,-1
 162 473 l 1,35,-1
 14 473 l 1,36,-1
 52 665 l 1,37,-1
 200 665 l 1,38,-1
 254 942 l 1,0,-1
EndSplineSet
EndChar
StartChar: longs
Encoding: 383 383 383
Width: 881
Flags: W
TeX: 0 0 0 0
Fore
1128 1290 m 1,0,-1
 1016 1290 l 1,1,2
 1018 1305 1018 1305 1018 1318 c 0,3,4
 1018 1375 1018 1375 993 1406 c 0,5,6
 963 1444 963 1444 894 1444 c 0,7,8
 814 1444 814 1444 767 1386.5 c 128,-1,9
 720 1329 720 1329 695 1200 c 2,29,-1
 456 -29 l 2,30,31
 415 -238 415 -238 291 -298 c 0,32,33
 98 -389 98 -389 -121 -389 c 1,34,35
 -110 -333 -110 -333 -98 -277 c 17,0,1
 -18 -277 -18 -277 29 -219.5 c 128,-1,2
 76 -162 76 -162 101 -33 c 2,3,-1
 291 942 l 25,4,-1
 133 942 l 1,30,-1
 156 1063 l 1,31,-1
 314 1063 l 1,32,-1
 340 1196 l 2,33,34
 374 1373 374 1373 505 1464.5 c 128,-1,35
 636 1556 636 1556 855 1556 c 0,36,37
 940 1556 940 1556 1019 1546.5 c 128,-1,38
 1098 1537 1098 1537 1173 1518 c 1,39,-1
 1128 1290 l 1,0,-1
EndSplineSet
EndChar
StartChar: uni0180
Encoding: 384 384 384
Width: 1432
Flags: W
TeX: 117 0 0 0
AnchorPoint: "below" 524.591 0 basechar 0
AnchorPoint: "above" 460.357 1465 basechar 0
Fore
329.72 1436 m 1,0,-1
 177.72 1436 l 1,1,-1
 201.05 1556 l 1,2,-1
 707.05 1556 l 1,3,-1
 663.7 1333 l 1,4,-1
 1022.7 1333 l 1,5,-1
 996.07 1196 l 1,6,-1
 637.07 1196 l 9,7,-1
 584.98 928 l 17,8,9
 646.11 1011 646.11 1011 729.98 1051.5 c 128,-1,10
 813.85 1092 813.85 1092 925.85 1092 c 0,11,12
 1152.85 1092 1152.85 1092 1254.29 942.5 c 0,13,14
 1321.91 842.84 1321.91 842.84 1321.91 693.63 c 0,15,16
 1321.91 619.01 1321.91 619.01 1305 532 c 0,17,18
 1254.27 271 1254.27 271 1094.61 121 c 128,-1,19
 934.95 -29 934.95 -29 707.95 -29 c 0,20,21
 595.95 -29 595.95 -29 527.83 11.5 c 128,-1,22
 459.7 52 459.7 52 430.83 135 c 1,23,-1
 404.59 0 l 1,24,-1
 50.5898 0 l 1,25,-1
 283.07 1196 l 1,26,-1
 125.07 1196 l 1,27,-1
 151.7 1333 l 1,28,-1
 309.7 1333 l 1,29,-1
 329.72 1436 l 1,0,-1
497.7 479 m 2,30,31
 478.34 379.4 478.34 379.4 478.34 309.34 c 0,32,33
 478.34 248.56 478.34 248.56 492.91 210 c 0,34,35
 524.28 127 524.28 127 630.28 127 c 0,36,37
 739.28 127 739.28 127 800.88 215 c 128,-1,38
 862.49 303 862.49 303 907 532 c 0,39,40
 934.52 673.57 934.52 673.57 934.52 761.06 c 0,41,42
 934.52 815.09 934.52 815.09 924.02 848.5 c 0,43,44
 896.53 936 896.53 936 787.53 936 c 0,45,46
 681.53 936 681.53 936 617.9 853 c 128,-1,47
 554.26 770 554.26 770 518.11 584 c 2,48,-1
 497.7 479 l 2,30,31
EndSplineSet
EndChar
StartChar: uni0181
Encoding: 385 385 385
Width: 1731
Flags: W
TeX: 117 0 0 0
Fore
432.104 1493 m 9,0,-1
 1126.1 1493 l 18,1,2
 1403.1 1493 1403.1 1493 1518.22 1401 c 0,3,4
 1636.76 1306 1636.76 1306 1601.38 1124 c 0,5,6
 1575.53 991 1575.53 991 1466.36 913 c 0,7,8
 1356.2 835 1356.2 835 1166.32 815 c 1,9,10
 1391.32 815 1391.32 815 1487.99 695 c 0,11,12
 1588.75 596 1588.75 596 1556.87 432 c 0,13,14
 1513.71 210 1513.71 210 1325.3 105 c 0,15,16
 1137.9 0 1137.9 0 780.896 0 c 2,17,-1
 -49.1045 0 l 1,18,-1
 -25.585 121 l 1,19,-1
 165.415 121 l 1,20,-1
 408.585 1372 l 0,21,22
 212.585 1372 212.585 1372 126.285 1283 c 0,23,24
 38.5967 1192 38.5967 1192 2.44141 1006 c 1,25,-1
 -195.559 1006 l 1,26,-1
 -125.97 1364 l 1,27,28
 -29.5576 1433 -29.5576 1433 215.801 1476 c 0,29,30
 314.104 1493 314.104 1493 432.104 1493 c 9,0,-1
696.006 870 m 1,31,-1
 827.006 870 l 2,32,33
 999.006 870 999.006 870 1094.06 932 c 0,34,35
 1189.3 995 1189.3 995 1214.38 1124 c 0,36,37
 1239.65 1254 1239.65 1254 1170.12 1313 c 0,38,39
 1101.58 1372 1101.58 1372 924.585 1372 c 2,40,-1
 793.585 1372 l 1,41,-1
 696.006 870 l 1,31,-1
550.415 121 m 1,42,-1
 693.415 121 l 2,43,44
 884.415 121 884.415 121 991.188 197 c 128,-1,45
 1097.96 273 1097.96 273 1128.87 432 c 0,46,47
 1159.97 592 1159.97 592 1082.32 671 c 128,-1,48
 1004.68 750 1004.68 750 815.681 750 c 2,49,-1
 672.681 750 l 1,50,-1
 550.415 121 l 1,42,-1
EndSplineSet
EndChar
StartChar: uni0183
Encoding: 387 387 387
Width: 1432
Flags: W
TeX: 117 0 0 0
Fore
497.699 479 m 2,0,1
 461.544 293 461.544 293 492.41 210 c 0,2,3
 524.277 127 524.277 127 630.277 127 c 0,4,5
 739.277 127 739.277 127 801.383 215 c 0,6,7
 862.488 303 862.488 303 907.001 532 c 128,-1,8
 951.514 761 951.514 761 924.425 848 c 0,9,10
 896.53 936 896.53 936 787.53 936 c 0,11,12
 681.53 936 681.53 936 617.397 853 c 0,13,14
 554.264 770 554.264 770 518.108 584 c 2,15,-1
 497.699 479 l 2,0,1
1306.05 1556 m 1,16,-1
 1250.06 1268 l 1,17,-1
 1129.06 1268 l 1,18,-1
 1161.72 1436 l 1,19,-1
 683.721 1436 l 1,20,-1
 584.976 928 l 1,21,22
 646.109 1011 646.109 1011 730.079 1052 c 0,23,24
 813.854 1092 813.854 1092 925.854 1092 c 0,25,26
 1152.85 1092 1152.85 1092 1254.7 942 c 0,27,28
 1355.73 793 1355.73 793 1305 532 c 128,-1,29
 1254.27 271 1254.27 271 1095.11 121 c 0,30,31
 934.953 -29 934.953 -29 707.953 -29 c 0,32,33
 595.953 -29 595.953 -29 527.923 12 c 0,34,35
 459.698 52 459.698 52 430.832 135 c 1,36,-1
 404.591 0 l 1,37,-1
 -101.409 0 l 1,38,-1
 -77.8896 121 l 1,39,-1
 74.1104 121 l 1,40,-1
 329.721 1436 l 1,41,-1
 177.721 1436 l 1,42,-1
 201.047 1556 l 1,43,-1
 1306.05 1556 l 1,16,-1
EndSplineSet
EndChar
StartChar: uni0184
Encoding: 388 388 388
Width: 1750
Flags: W
TeX: 117 0 0 0
Fore
696.006 870 m 1,0,-1
 828.006 870 l 2,1,2
 1032.34 870 1032.34 870 1169.37 852.375 c 0,3,4
 1182.4 850.698 1182.4 850.698 1191.92 849 c 0,5,6
 1382.59 814.987 1382.59 814.987 1504.05 697.868 c 0,7,8
 1505.52 696.44 1505.52 696.44 1506.99 695 c 0,9,10
 1607.75 596 1607.75 596 1575.87 432 c 0,11,12
 1532.71 209.997 1532.71 209.997 1344.8 105 c 128,-1,13
 1156.88 0 1156.88 0 781.896 0 c 2,14,-1
 -49.1045 0 l 1,15,-1
 -25.585 121 l 1,16,-1
 165.415 121 l 1,17,-1
 304.008 834 l 1,18,-1
 17.0078 834 l 1,19,-1
 40.5283 955 l 1,20,-1
 817.104 1493 l 1,21,-1
 696.006 870 l 1,0,-1
550.415 121 m 1,22,-1
 694.415 121 l 2,23,24
 896.146 121 896.146 121 1003.68 192.523 c 0,25,26
 1007.01 194.733 1007.01 194.733 1010.19 197 c 0,27,28
 1116.96 273.005 1116.96 273.005 1147.87 432 c 0,29,30
 1178.97 592 1178.97 592 1101.32 671 c 0,31,32
 1027.34 746.282 1027.34 746.282 832.949 749.852 c 0,33,34
 824.873 750 824.873 750 816.681 750 c 2,35,-1
 672.681 750 l 1,36,-1
 550.415 121 l 1,22,-1
EndSplineSet
EndChar
StartChar: uni0185
Encoding: 389 389 389
Width: 1432
Flags: W
TeX: 117 0 0 0
Fore
497.602 479 m 2,0,1
 461.447 293 461.447 293 492.813 210 c 128,-1,2
 524.18 127 524.18 127 630.18 127 c 0,3,4
 739.18 127 739.18 127 800.785 215 c 128,-1,5
 862.391 303 862.391 303 906.903 532 c 128,-1,6
 951.417 761 951.417 761 923.925 848.5 c 128,-1,7
 896.434 936 896.434 936 787.434 936 c 0,8,9
 681.434 936 681.434 936 617.8 853 c 128,-1,10
 554.166 770 554.166 770 518.012 584 c 2,11,-1
 497.602 479 l 2,0,1
47.4287 1008 m 1,12,-1
 70.7549 1128 l 1,13,-1
 707.144 1557 l 1,14,-1
 584.878 928 l 1,15,16
 646.012 1011 646.012 1011 729.885 1051.5 c 128,-1,17
 813.757 1092 813.757 1092 925.757 1092 c 0,18,19
 1152.76 1092 1152.76 1092 1254.2 942.5 c 128,-1,20
 1355.64 793 1355.64 793 1304.9 532 c 128,-1,21
 1254.17 271 1254.17 271 1094.51 121 c 128,-1,22
 934.856 -29 934.856 -29 707.856 -29 c 0,23,24
 595.856 -29 595.856 -29 527.729 11.5 c 128,-1,25
 459.602 52 459.602 52 430.734 135 c 1,26,-1
 404.493 0 l 1,27,-1
 -101.507 0 l 1,28,-1
 -77.9863 121 l 1,29,-1
 74.0137 121 l 1,30,-1
 245.429 1008 l 1,31,-1
 47.4287 1008 l 1,12,-1
EndSplineSet
EndChar
StartChar: uni0186
Encoding: 390 390 390
Width: 1630
Flags: W
TeX: 117 0 0 0
AnchorPoint: "above" 872.856 1465 basechar 0
Fore
148.104 1065 m 1,0,1
 252.007 1296 252.007 1296 426.777 1408 c 128,-1,2
 601.548 1520 601.548 1520 859.548 1520 c 0,3,4
 1237.55 1520 1237.55 1520 1416.52 1311.5 c 128,-1,5
 1595.49 1103 1595.49 1103 1526.1 746 c 0,6,7
 1456.51 388 1456.51 388 1196.48 179.5 c 128,-1,8
 936.452 -29 936.452 -29 558.452 -29 c 0,9,10
 425.452 -29 425.452 -29 287.673 3 c 128,-1,11
 149.893 35 149.893 35 1.52734 100 c 1,12,-1
 72.8652 467 l 1,13,-1
 199.865 467 l 1,14,15
 202.321 279 202.321 279 287.147 185.5 c 128,-1,16
 371.973 92 371.973 92 540.973 92 c 0,17,18
 758.973 92 758.973 92 896.171 252.5 c 128,-1,19
 1033.37 413 1033.37 413 1098.1 746 c 128,-1,20
 1162.83 1079 1162.83 1079 1087.93 1239 c 128,-1,21
 1013.03 1399 1013.03 1399 793.027 1399 c 0,22,23
 644.027 1399 644.027 1399 533.394 1316 c 128,-1,24
 422.761 1233 422.761 1233 347.104 1065 c 1,25,-1
 148.104 1065 l 1,0,1
EndSplineSet
EndChar
StartChar: uni0187
Encoding: 391 391 391
Width: 1630
Flags: W
TeX: 117 0 0 0
AnchorPoint: "above" 1009.32 1465 basechar 0
Fore
1444.36 426 m 1,0,1
 1340.46 195 1340.46 195 1165.69 83 c 0,2,3
 990.917 -29 990.917 -29 732.917 -29 c 0,4,5
 354.917 -29 354.917 -29 176.543 180 c 0,6,7
 -3.02637 388 -3.02637 388 66.3672 745 c 0,8,9
 135.956 1103 135.956 1103 396.581 1312 c 0,10,11
 656.013 1520 656.013 1520 1034.01 1520 c 0,12,13
 1167.01 1520 1167.01 1520 1304.79 1488 c 0,14,15
 1360.27 1475 1360.27 1475 1417.77 1457 c 1,16,17
 1459.26 1583 1459.26 1583 1556.67 1652 c 0,18,19
 1655.08 1721 1655.08 1721 1757.08 1721 c 0,20,21
 1817.08 1721 1817.08 1721 1883.14 1711 c 0,22,23
 1949.2 1701 1949.2 1701 2018.5 1682 c 1,24,-1
 1974.77 1457 l 1,25,-1
 1861.77 1457 l 1,26,27
 1877.32 1537 1877.32 1537 1853.12 1572 c 0,28,29
 1830.12 1608 1830.12 1608 1764.12 1608 c 0,30,31
 1691.12 1608 1691.12 1608 1652.98 1561 c 0,32,33
 1614.85 1514 1614.85 1514 1590.94 1391 c 2,34,-1
 1519.6 1024 l 1,35,-1
 1392.6 1024 l 1,36,37
 1390.14 1212 1390.14 1212 1305.42 1306 c 0,38,39
 1220.49 1399 1220.49 1399 1051.49 1399 c 0,40,41
 833.492 1399 833.492 1399 696.197 1238 c 0,42,43
 559.097 1078 559.097 1078 494.367 745 c 0,44,45
 429.639 412 429.639 412 504.538 252 c 0,46,47
 579.438 92 579.438 92 799.438 92 c 0,48,49
 948.438 92 948.438 92 1059.57 175 c 0,50,51
 1169.7 258 1169.7 258 1245.36 426 c 1,52,-1
 1444.36 426 l 1,0,1
EndSplineSet
EndChar
StartChar: uni0188
Encoding: 392 392 392
Width: 1247
Flags: W
TeX: 117 0 0 0
AnchorPoint: "above" 737.864 1092 basechar 0
Fore
1081.14 332 m 1,0,1
 1007.76 150 1007.76 150 873.264 60 c 0,2,3
 737.964 -29 737.964 -29 535.964 -29 c 0,4,5
 251.964 -29 251.964 -29 124.538 118 c 0,6,7
 -2.8877 265 -2.8877 265 49.0117 532 c 0,8,9
 100.328 796 100.328 796 283.097 944 c 0,10,11
 465.864 1092 465.864 1092 739.864 1092 c 0,12,13
 849.864 1092 849.864 1092 957.782 1071 c 1,14,-1
 967.891 1123 l 2,15,16
 999.574 1286 999.574 1286 1131.9 1370 c 0,17,18
 1263.04 1453 1263.04 1453 1366.04 1453 c 0,19,20
 1426.04 1453 1426.04 1453 1492.09 1443 c 0,21,22
 1558.15 1433 1558.15 1433 1627.46 1414 c 1,23,-1
 1583.72 1189 l 1,24,-1
 1470.72 1189 l 1,25,26
 1486.27 1269 1486.27 1269 1461.07 1304 c 0,27,28
 1439.07 1340 1439.07 1340 1373.07 1340 c 0,29,30
 1300.07 1340 1300.07 1340 1261.93 1293 c 0,31,32
 1223.8 1246 1223.8 1246 1199.89 1123 c 2,33,-1
 1177.54 1008 l 1,34,-1
 1120.19 713 l 1,35,-1
 1008.19 713 l 1,36,37
 1018.44 848 1018.44 848 968.265 914 c 0,38,39
 917.899 979 917.899 979 803.899 979 c 0,40,41
 655.899 979 655.899 979 574.462 879 c 0,42,43
 492.023 779 492.023 779 444.012 532 c 0,44,45
 397.166 291 397.166 291 438.145 188 c 0,46,47
 478.929 84 478.929 84 616.929 84 c 0,48,49
 723.929 84 723.929 84 800.369 148 c 0,50,51
 877.81 212 877.81 212 915.136 332 c 1,52,-1
 1081.14 332 l 1,0,1
EndSplineSet
EndChar
StartChar: uni018A
Encoding: 394 394 394
Width: 1776
Flags: W
TeX: 117 0 0 0
AnchorPoint: "above" 1004.66 1465 basechar 0
Fore
432.104 1493 m 2,0,-1
 1007.1 1493 l 2,1,2
 1409.1 1493 1409.1 1493 1584.78 1301 c 128,-1,3
 1760.46 1109 1760.46 1109 1690.29 748 c 0,4,5
 1619.73 385 1619.73 385 1368.22 192 c 0,6,7
 1117.9 0 1117.9 0 716.896 0 c 2,8,-1
 -49.1045 0 l 1,9,-1
 -25.585 121 l 1,10,-1
 165.415 121 l 1,11,-1
 408.585 1372 l 17,12,13
 212.585 1372 212.585 1372 126.285 1283 c 0,14,15
 38.5967 1192 38.5967 1192 2.44141 1006 c 1,16,-1
 -195.559 1006 l 1,17,-1
 -125.97 1364 l 1,18,19
 -29.5576 1433 -29.5576 1433 215.801 1476 c 0,20,21
 314.104 1493 314.104 1493 432.104 1493 c 2,0,-1
550.415 121 m 1,22,-1
 689.415 121 l 2,23,24
 923.415 121 923.415 121 1061.57 271 c 0,25,26
 1198.73 421 1198.73 421 1262.29 748 c 0,27,28
 1325.46 1073 1325.46 1073 1246.43 1222 c 0,29,30
 1167.58 1372 1167.58 1372 932.585 1372 c 2,31,-1
 793.585 1372 l 1,32,-1
 550.415 121 l 1,22,-1
EndSplineSet
EndChar
StartChar: uni018B
Encoding: 395 395 395
Width: 1750
Flags: W
TeX: 117 0 0 0
Fore
1179.47 1356 m 1,0,-1
 440.475 1356 l 1,1,-1
 394.601 1120 l 1,2,-1
 259.601 1120 l 1,3,-1
 332.104 1493 l 1,4,-1
 1782.1 1493 l 1,5,-1
 1758.58 1372 l 1,6,-1
 1567.58 1372 l 1,7,-1
 1324.42 121 l 1,8,-1
 1515.42 121 l 1,9,-1
 1491.9 0 l 1,10,-1
 660.896 0 l 2,11,12
 285.896 0 285.896 0 139.305 105 c 0,13,14
 -8.28516 210 -8.28516 210 34.8672 432 c 0,15,16
 66.7461 596 66.7461 596 205.989 695 c 0,17,18
 208.184 696 208.184 696 210.572 698 c 0,19,20
 377.315 815 377.315 815 580.924 849 c 0,21,22
 591.312 851 591.312 851 604.507 852 c 0,23,24
 749.006 870 749.006 870 953.006 870 c 2,25,-1
 1085.01 870 l 1,26,-1
 1179.47 1356 l 1,0,-1
939.415 121 m 1,27,-1
 1061.68 750 l 1,28,-1
 917.681 750 l 2,29,-1
 901.681 750 l 0,30,31
 706.681 750 706.681 750 602.324 671 c 0,32,33
 493.968 592 493.968 592 462.867 432 c 0,34,35
 431.961 273 431.961 273 509.188 197 c 0,36,37
 511.799 195 511.799 195 514.41 193 c 0,38,39
 593.415 121 593.415 121 795.415 121 c 2,40,-1
 939.415 121 l 1,27,-1
EndSplineSet
EndChar
StartChar: uni018C
Encoding: 396 396 396
Width: 1432
Flags: W
TeX: 117 0 0 0
Fore
788.699 479 m 2,0,-1
 809.108 584 l 2,1,2
 845.264 770 845.264 770 813.397 853 c 0,3,4
 782.53 936 782.53 936 676.53 936 c 0,5,6
 567.53 936 567.53 936 506.425 848 c 0,7,8
 444.514 761 444.514 761 400.001 532 c 128,-1,9
 355.488 303 355.488 303 383.383 215 c 0,10,11
 410.277 127 410.277 127 519.277 127 c 0,12,13
 625.277 127 625.277 127 688.41 210 c 0,14,15
 752.544 293 752.544 293 788.699 479 c 2,0,-1
1479.72 1436 m 1,16,-1
 1328.72 1436 l 1,17,-1
 1073.11 121 l 1,18,-1
 1225.11 121 l 1,19,-1
 1201.59 0 l 1,20,-1
 695.591 0 l 1,21,-1
 721.832 135 l 1,22,23
 660.698 52 660.698 52 576.923 12 c 0,24,25
 492.953 -29 492.953 -29 380.953 -29 c 0,26,27
 153.953 -29 153.953 -29 53.1104 121 c 0,28,29
 -48.7324 271 -48.7324 271 2.00098 532 c 128,-1,30
 52.7344 793 52.7344 793 212.697 942 c 0,31,32
 371.854 1092 371.854 1092 598.854 1092 c 0,33,34
 710.854 1092 710.854 1092 779.079 1052 c 0,35,36
 847.109 1011 847.109 1011 875.976 928 c 1,37,-1
 974.721 1436 l 1,38,-1
 496.721 1436 l 1,39,-1
 464.064 1268 l 1,40,-1
 343.064 1268 l 1,41,-1
 399.047 1556 l 1,42,-1
 1503.05 1556 l 1,43,-1
 1479.72 1436 l 1,16,-1
EndSplineSet
EndChar
StartChar: uni018D
Encoding: 397 397 397
Width: 1366
Flags: W
TeX: 117 0 0 0
Fore
962.822 41 m 8,0,1
 1107.55 -53 1107.55 -53 1079.56 -197 c 0,2,3
 1046.71 -366 1046.71 -366 900.297 -435 c 0,4,-1
 887.131 -441 l 0,5,6
 745.885 -504 745.885 -504 528.885 -504 c 0,7,8
 428.885 -504 428.885 -504 308.411 -491 c 0,9,10
 190.938 -478 190.938 -478 79.6035 -454 c 1,11,-1
 121.007 -241 l 1,12,-1
 233.007 -241 l 1,13,14
 231.009 -277 231.009 -277 242.927 -298 c 0,15,16
 250.205 -312 250.205 -312 288.791 -345 c 1,17,18
 345.85 -391 345.85 -391 452.85 -391 c 0,19,20
 572.85 -391 572.85 -391 646.18 -343 c 1,21,-1
 684.428 -316 l 1,22,23
 730.231 -281 730.231 -281 739.337 -193 c 0,24,25
 771.215 -29 771.215 -29 621.215 -29 c 1,26,27
 338.215 -29 338.215 -29 209.178 120 c 0,28,29
 79.1406 269 79.1406 269 130.068 531 c 128,-1,30
 180.996 793 180.996 793 369.958 942 c 0,31,32
 558.115 1092 558.115 1092 839.115 1092 c 128,-1,33
 1120.12 1092 1120.12 1092 1249.96 942 c 0,34,35
 1381 793 1381 793 1330.07 531 c 0,36,37
 1278.95 268 1278.95 268 1090.18 120 c 0,38,39
 977.878 31 977.878 31 962.822 41 c 8,0,1
817.15 979 m 0,40,41
 705.15 979 705.15 979 640.49 883 c 0,42,43
 576.829 787 576.829 787 527.068 531 c 128,-1,44
 477.307 275 477.307 275 503.841 180 c 0,45,46
 530.18 84 530.18 84 643.18 84 c 128,-1,47
 756.18 84 756.18 84 820.841 180 c 0,48,49
 885.695 277 885.695 277 935.068 531 c 128,-1,50
 984.44 785 984.44 785 957.296 882 c 128,-1,51
 930.15 979 930.15 979 817.15 979 c 0,40,41
EndSplineSet
EndChar
StartChar: uni018E
Encoding: 398 398 398
Width: 1561
Flags: W
TeX: 117 0 0 0
AnchorPoint: "above" 876.662 1465 basechar 0
Fore
1310.9 0 m 1,0,-1
 -49.1045 0 l 1,1,-1
 19.3174 352 l 1,2,-1
 156.317 352 l 1,3,-1
 114.525 137 l 1,4,-1
 761.525 137 l 1,5,-1
 878.931 741 l 1,6,-1
 487.931 741 l 1,7,-1
 450.999 551 l 1,8,-1
 313.999 551 l 1,9,-1
 414.299 1067 l 1,10,-1
 551.299 1067 l 1,11,-1
 514.366 877 l 1,12,-1
 905.366 877 l 1,13,-1
 998.475 1356 l 1,14,-1
 370.475 1356 l 1,15,-1
 328.683 1141 l 1,16,-1
 190.683 1141 l 1,17,-1
 259.104 1493 l 1,18,-1
 1601.1 1493 l 1,19,-1
 1577.58 1372 l 1,20,-1
 1386.58 1372 l 1,21,-1
 1143.42 121 l 1,22,-1
 1334.42 121 l 1,23,-1
 1310.9 0 l 1,0,-1
EndSplineSet
EndChar
StartChar: uni018F
Encoding: 399 399 399
Width: 1784
Flags: W
TeX: 117 0 0 0
AnchorPoint: "above" 1032.95 1465 basechar 0
Fore
1282.52 830 m 1,0,1
 1334.81 1099 1334.81 1099 1257.83 1238 c 0,2,3
 1182.93 1398 1182.93 1398 962.931 1398 c 0,4,5
 813.931 1398 813.931 1398 702.797 1315 c 0,6,7
 592.663 1232 592.663 1232 516.812 1063 c 1,8,-1
 317.812 1063 l 1,9,10
 421.715 1294 421.715 1294 596.68 1407 c 0,11,12
 771.45 1519 771.45 1519 1029.45 1519 c 0,13,14
 1407.45 1519 1407.45 1519 1585.83 1310 c 0,15,16
 1765.39 1102 1765.39 1102 1696 745 c 0,17,18
 1625.63 383 1625.63 383 1371.59 177 c 0,19,20
 1116.55 -29 1116.55 -29 740.55 -29 c 0,21,22
 363.55 -29 363.55 -29 189.592 177 c 0,23,24
 15.6348 383 15.6348 383 86 745 c 2,25,-1
 102.522 830 l 1,26,-1
 1282.52 830 l 1,0,1
1252.23 669 m 1,27,-1
 500.228 669 l 1,28,29
 445.606 388 445.606 388 512.56 254 c 0,30,31
 581.069 92 581.069 92 764.069 92 c 0,32,33
 955.069 92 955.069 92 1079.37 253 c 0,34,35
 1198.97 395 1198.97 395 1252.23 669 c 1,27,-1
EndSplineSet
EndChar
StartChar: uni0190
Encoding: 400 400 400
Width: 1477
Flags: W
TeX: 117 0 0 0
AnchorPoint: "above" 1063.77 1465 basechar 0
AnchorPoint: "below" 779 0 basechar 0
Fore
373 1075 m 0,0,1
 373 866 373 866 641 815 c 1,2,3
 242 753 242 753 174 403 c 0,4,5
 165 356 165 356 165 314 c 0,6,7
 165 169 165 169 274 82 c 0,8,9
 414 -29 414 -29 794 -29 c 0,10,11
 1030 -29 1030 -29 1189.5 65.5 c 128,-1,12
 1349 160 1349 160 1416 265 c 1,13,-1
 1217 265 l 1,14,15
 1089 88 1089 88 865 88 c 0,16,17
 673 88 673 88 613 172 c 0,18,19
 573 228 573 228 573 295 c 0,20,21
 573 539 573 539 718 662 c 0,22,23
 822 750 822 750 1101 750 c 2,24,-1
 1167 750 l 1,25,-1
 1190 870 l 1,26,-1
 1138 870 l 2,27,28
 871 870 871 870 810 938 c 0,29,30
 767 986 767 986 767 1065 c 0,31,32
 767 1098 767 1098 775 1137 c 0,33,34
 800 1268 800 1268 883 1335.5 c 128,-1,35
 966 1403 966 1403 1135 1403 c 0,36,37
 1304 1403 1304 1403 1356 1343.5 c 128,-1,38
 1408 1284 1408 1284 1408 1186 c 0,39,40
 1408 1169 1408 1169 1407 1151 c 1,41,-1
 1528 1151 l 1,42,-1
 1586 1450 l 1,43,44
 1335 1520 1335 1520 1087 1520 c 0,45,46
 741 1520 741 1520 578 1423.5 c 128,-1,47
 415 1327 415 1327 380 1147 c 0,48,49
 373 1109 373 1109 373 1075 c 0,0,1
EndSplineSet
EndChar
StartChar: uni0191
Encoding: 401 401 401
Width: 1454
Flags: W
TeX: 117 0 0 0
Fore
-24.5078 -426 m 0,0,1
 -188.508 -426 -188.508 -426 -349.29 -358 c 1,2,-1
 -303.61 -123 l 1,3,-1
 -173.61 -123 l 1,4,5
 -201.407 -266 -201.407 -266 -107.238 -296 c 0,6,7
 -82.9883 -305 -82.9883 -305 -49.9883 -305 c 0,8,9
 47.0117 -305 47.0117 -305 99.5908 -230 c 0,10,11
 154.169 -155 154.169 -155 192.822 49 c 1,12,-1
 449.988 1372 l 1,13,-1
 258.988 1372 l 1,14,-1
 282.508 1493 l 1,15,-1
 1613.51 1493 l 1,16,-1
 1545.09 1141 l 1,17,-1
 1408.09 1141 l 1,18,-1
 1449.88 1356 l 1,19,-1
 833.878 1356 l 1,20,-1
 740.77 877 l 1,21,-1
 1119.77 877 l 1,22,-1
 1156.7 1067 l 1,23,-1
 1293.7 1067 l 1,24,-1
 1193.4 551 l 1,25,-1
 1056.4 551 l 1,26,-1
 1093.33 741 l 1,27,-1
 714.334 741 l 1,28,-1
 578.268 41 l 2,29,30
 527.146 -222 527.146 -222 360.764 -332 c 0,31,32
 218.492 -426 218.492 -426 -24.5078 -426 c 0,0,1
EndSplineSet
EndChar
StartChar: florin
Encoding: 402 402 402
Width: 881
Flags: W
Fore
1128.33 1290 m 1,0,-1
 1016.33 1290 l 1,1,2
 1017.25 1305 1017.25 1305 1017.77 1318 c 0,3,4
 1017.85 1375 1017.85 1375 993.878 1406 c 0,5,6
 963.265 1444 963.265 1444 894.265 1444 c 0,7,8
 814.265 1444 814.265 1444 766.99 1386 c 0,9,10
 719.91 1329 719.91 1329 694.836 1200 c 2,11,-1
 668.205 1063 l 1,12,-1
 935.205 1063 l 1,13,-1
 911.686 942 l 1,14,-1
 644.686 942 l 1,15,-1
 455.942 -29 l 2,16,17
 421.537 -206 421.537 -206 290.653 -298 c 0,18,19
 159.965 -389 159.965 -389 -59.0352 -389 c 0,20,21
 -144.035 -389 -144.035 -389 -223.285 -380 c 0,22,23
 -302.342 -370 -302.342 -370 -376.648 -351 c 1,24,-1
 -332.33 -123 l 1,25,-1
 -220.33 -123 l 1,26,27
 -221.245 -138 -221.245 -138 -221.772 -151 c 0,28,29
 -221.852 -208 -221.852 -208 -197.878 -239 c 0,30,31
 -167.265 -277 -167.265 -277 -98.2646 -277 c 0,32,33
 -18.2646 -277 -18.2646 -277 28.8154 -220 c 0,34,35
 76.0898 -162 76.0898 -162 101.164 -33 c 2,36,-1
 290.686 942 l 1,37,-1
 132.686 942 l 1,38,-1
 156.205 1063 l 1,39,-1
 314.205 1063 l 1,40,-1
 340.058 1196 l 2,41,42
 374.463 1373 374.463 1373 505.152 1464 c 0,43,44
 636.035 1556 636.035 1556 855.035 1556 c 0,45,46
 940.035 1556 940.035 1556 1019.09 1546 c 0,47,48
 1098.34 1537 1098.34 1537 1172.65 1518 c 1,49,-1
 1128.33 1290 l 1,0,-1
EndSplineSet
EndChar
StartChar: uni0193
Encoding: 403 403 403
Width: 1749
Flags: W
TeX: 117 0 0 0
AnchorPoint: "above" 1029.32 1465 basechar 0
Fore
1464.49 1435 m 1,0,1
 1518.62 1590 1518.62 1590 1607.67 1652 c 0,2,3
 1706.08 1721 1706.08 1721 1808.08 1721 c 0,4,5
 1868.08 1721 1868.08 1721 1934.14 1711 c 128,-1,6
 2000.2 1701 2000.2 1701 2069.5 1682 c 1,7,-1
 2025.77 1457 l 1,8,-1
 1912.77 1457 l 1,9,10
 1928.32 1537 1928.32 1537 1903.12 1572 c 0,11,12
 1881.12 1608 1881.12 1608 1815.12 1608 c 0,13,14
 1742.12 1608 1742.12 1608 1703.98 1561 c 128,-1,15
 1665.85 1514 1665.85 1514 1641.94 1391 c 2,16,-1
 1570.6 1024 l 1,17,-1
 1443.6 1024 l 1,18,19
 1437.09 1222 1437.09 1222 1349.19 1310 c 0,20,21
 1261.49 1399 1261.49 1399 1070.49 1399 c 0,22,23
 838.492 1399 838.492 1399 698.975 1242 c 0,24,25
 560.263 1084 560.263 1084 494.367 745 c 0,26,27
 429.056 409 429.056 409 502.149 250 c 0,28,29
 575.438 92 575.438 92 795.438 92 c 0,30,31
 879.438 92 879.438 92 955.131 111 c 128,-1,32
 1030.82 130 1030.82 130 1097.21 168 c 1,33,-1
 1176.91 578 l 1,34,-1
 996.906 578 l 1,35,-1
 1020.23 698 l 1,36,-1
 1558.23 698 l 1,37,-1
 1446.85 125 l 1,38,39
 1263.69 47 1263.69 47 1089.3 9 c 0,40,41
 913.917 -29 913.917 -29 738.917 -29 c 0,42,43
 354.917 -29 354.917 -29 176.154 178 c 0,44,45
 -3.60938 385 -3.60938 385 66.3672 745 c 0,46,47
 136.539 1106 136.539 1106 396.775 1313 c 0,48,49
 656.013 1520 656.013 1520 1040.01 1520 c 0,50,51
 1276.01 1520 1276.01 1520 1348.79 1488 c 0,52,-1
 1464.49 1435 l 1,0,1
EndSplineSet
EndChar
StartChar: uni0194
Encoding: 404 404 404
Width: 1578
Flags: W
TeX: 0 0 0 0
AnchorPoint: "above" 983.5 1465 basechar 0
Fore
685.477 710 m 0,0,-1
 336.578 1386 l 1,1,-1
 152.578 1386 l 1,2,-1
 173.377 1493 l 1,3,-1
 854.177 1493 l 1,4,-1
 833.378 1386 l 1,5,-1
 777.578 1386 l 1,6,-1
 963.238 966 l 1,7,-1
 1355.63 1386 l 1,8,-1
 1156.53 1386 l 1,9,-1
 1177.33 1493 l 1,10,-1
 1739.68 1493 l 1,11,-1
 1718.88 1386 l 1,12,-1
 1525.68 1386 l 1,13,-1
 1018.66 855 l 0,14,15
 1434.96 90 1434.96 90 1220.11 -44 c 0,16,17
 990.363 -188 990.363 -188 607.923 -188 c 16,18,19
 200.824 -188 200.824 -188 168.398 12 c 0,20,21
 138.855 193 138.855 193 685.477 710 c 0,0,-1
748.123 595 m 1,22,23
 356.354 212.406 356.354 212.406 333.018 80 c 24,24,25
 306.632 -69.7031 306.632 -69.7031 631.443 -67 c 16,26,27
 920.351 -64.5957 920.351 -64.5957 933.989 85 c 16,28,29
 944.675 202.221 944.675 202.221 748.123 595 c 1,22,23
EndSplineSet
EndChar
StartChar: uni0195
Encoding: 405 405 405
Width: 2136
Flags: W
TeX: 117 0 0 0
Fore
1206 346 m 18,0,1
 1162 120 1162 120 1315 121 c 24,2,3
 1416 121 1416 121 1500 233 c 128,-1,5
 1584 345 1584 345 1620 530 c 0,6,7
 1651 691 1651 691 1628 787 c 0,8,9
 1599 908 1599 908 1574 935 c 1,10,-1
 1582 979 l 1,11,-1
 1711 979 l 1,12,13
 1875 915 1875 915 1953 786 c 0,14,15
 2032 656 2032 656 2004 514 c 0,16,17
 1983 406 1983 406 1914 307 c 0,18,19
 1846 208 1846 208 1739 135 c 0,20,21
 1643 68 1643 68 1528 33 c 0,22,23
 1412 -3 1412 -3 1290 -3 c 8,24,25
 784 -3 784 -3 853 348 c 10,26,-1
 918 686 l 18,27,28
 945 823 945 823 921 874 c 0,29,30
 896 926 896 926 811 926 c 0,31,32
 704 926 704 926 639 848 c 0,33,34
 574 769 574 769 540 598 c 2,35,-1
 424 0 l 1,38,-1
 70 0 l 1,39,-1
 349 1436 l 1,42,-1
 191 1436 l 1,43,-1
 215 1556 l 1,44,-1
 727 1556 l 1,45,-1
 602 913 l 1,46,47
 684 1008 684 1008 774 1050 c 128,-1,48
 864 1092 864 1092 989 1092 c 0,49,50
 1166 1092 1166 1092 1239 986 c 0,51,52
 1310 881 1310 881 1270 676 c 10,53,-1
 1206 346 l 18,0,1
EndSplineSet
EndChar
StartChar: uni0196
Encoding: 406 406 406
Width: 958
Flags: W
TeX: 117 0 0 0
AnchorPoint: "above" 618.662 1465 basechar 0
Fore
207.401 337 m 2,0,-1
 408.585 1372 l 1,1,-1
 217.585 1372 l 1,2,-1
 241.104 1493 l 1,3,-1
 1009.1 1493 l 1,4,-1
 985.585 1372 l 1,5,-1
 793.585 1372 l 1,6,-1
 595.123 351 l 2,7,8
 569.659 220 569.659 220 596.996 160 c 0,9,10
 625.139 99 625.139 99 720.139 99 c 1,11,-1
 700.896 0 l 1,12,-1
 500.896 0 l 2,13,14
 299.896 0 299.896 0 267.561 24 c 0,15,16
 161.722 102 161.722 102 207.401 337 c 2,0,-1
EndSplineSet
EndChar
StartChar: uni0197
Encoding: 407 407 407
Width: 958
Flags: W
TeX: 117 0 0 0
AnchorPoint: "above" 618.662 1465 basechar 0
Fore
692.312 851 m 1,0,-1
 940.312 851 l 1,1,-1
 902.992 659 l 1,2,-1
 654.992 659 l 1,3,-1
 550.415 121 l 1,4,-1
 742.415 121 l 1,5,-1
 718.896 0 l 1,6,-1
 -49.1045 0 l 1,7,-1
 -25.585 121 l 1,8,-1
 165.415 121 l 1,9,-1
 269.992 659 l 1,10,-1
 20.9922 659 l 1,11,-1
 58.3125 851 l 1,12,-1
 307.312 851 l 1,13,-1
 408.585 1372 l 1,14,-1
 217.585 1372 l 1,15,-1
 241.104 1493 l 1,16,-1
 1009.1 1493 l 1,17,-1
 985.585 1372 l 1,18,-1
 793.585 1372 l 1,19,-1
 692.312 851 l 1,0,-1
EndSplineSet
EndChar
StartChar: uni0198
Encoding: 408 408 408
Width: 1780
Flags: W
TeX: 117 0 0 0
Fore
1571.81 1332 m 2,0,-1
 998.976 911 l 1,1,-1
 1574.42 121 l 1,2,-1
 1721.42 121 l 1,3,-1
 1697.9 0 l 1,4,-1
 1191.9 0 l 1,5,-1
 667.821 725 l 1,6,-1
 550.415 121 l 1,7,-1
 742.415 121 l 1,8,-1
 718.896 0 l 1,9,-1
 -49.1045 0 l 1,10,-1
 -25.585 121 l 1,11,-1
 165.415 121 l 1,12,-1
 408.585 1372 l 1,13,-1
 217.585 1372 l 1,14,-1
 241.104 1493 l 1,15,-1
 1009.1 1493 l 1,16,-1
 985.585 1372 l 1,17,-1
 793.585 1372 l 1,18,-1
 687.647 827 l 1,19,-1
 1426.58 1372 l 2,20,21
 1587.72 1491 1587.72 1491 1729.1 1493 c 0,22,23
 1781.1 1493 1781.1 1493 1855.36 1484 c 0,24,25
 1921.41 1474 1921.41 1474 1990.72 1455 c 1,26,-1
 1946.98 1230 l 1,27,-1
 1833.98 1230 l 1,28,29
 1849.53 1310 1849.53 1310 1824.53 1346 c 0,30,31
 1800.92 1384 1800.92 1384 1736.33 1381 c 0,32,33
 1631.56 1377 1631.56 1377 1571.81 1332 c 2,0,-1
EndSplineSet
EndChar
StartChar: uni0199
Encoding: 409 409 409
Width: 1419
Flags: W
TeX: 117 0 0 0
Fore
504 412 m 1,33,-1
 424 0 l 1,36,-1
 70 0 l 1,37,-1
 308 1226 l 2,0,1
 340 1389 340 1389 471 1472 c 0,2,3
 603 1556 603 1556 828 1556 c 0,4,5
 888 1556 888 1556 954 1546 c 128,-1,6
 1020 1536 1020 1536 1090 1517 c 1,7,-1
 1046 1292 l 1,8,-1
 933 1292 l 1,9,10
 948 1372 948 1372 924 1408 c 0,11,12
 901 1443 901 1443 835 1443 c 0,13,14
 762 1443 762 1443 724 1396 c 0,15,16
 686 1347 686 1347 662 1226 c 2,17,-1
 532 557 l 1,6,-1
 1036 942 l 1,7,-1
 909 942 l 1,8,-1
 932 1063 l 1,9,-1
 1220 1063 l 1,10,-1
 1197 942 l 1,11,-1
 875 696 l 1,12,-1
 1211 121 l 1,13,-1
 1326 121 l 1,14,-1
 1303 0 l 1,15,-1
 912 0 l 1,16,-1
 620 500 l 1,17,-1
 504 412 l 1,33,-1
EndSplineSet
EndChar
StartChar: uni019A
Encoding: 410 410 410
Width: 778
Flags: W
TeX: 117 0 0 0
Fore
447 121 m 1,0,-1
 599 121 l 1,1,-1
 576 0 l 1,2,-1
 70 0 l 1,3,-1
 163 479 l 1,6,-1
 12 479 l 1,7,-1
 35 600 l 1,8,-1
 186 600 l 1,9,-1
 349 1436 l 1,10,-1
 198 1436 l 1,11,-1
 221 1556 l 1,12,-1
 726 1556 l 1,13,-1
 540 600 l 1,14,-1
 692 600 l 1,15,-1
 669 479 l 1,16,-1
 517 479 l 1,17,-1
 447 121 l 1,0,-1
EndSplineSet
EndChar
StartChar: uni019B
Encoding: 411 411 411
Width: 1436
Flags: W
TeX: 117 0 0 0
Fore
1104.46 121 m 1,0,-1
 1227.46 121 l 1,1,-1
 1203.94 0 l 1,2,-1
 804.943 0 l 1,3,-1
 828.464 121 l 1,4,-1
 967.464 121 l 1,5,-1
 849.01 700 l 1,6,-1
 430.464 121 l 1,7,-1
 559.464 121 l 1,8,-1
 535.943 0 l 1,9,-1
 -74.0566 0 l 1,10,-1
 -50.5361 121 l 1,11,-1
 66.4639 121 l 1,12,-1
 761.512 1109 l 1,13,-1
 761.706 1110 l 1,14,-1
 291.917 859 l 1,15,-1
 250.326 964 l 1,16,-1
 728.088 1220 l 1,17,18
 682.386 1345 682.386 1345 622.411 1376 c 0,19,20
 582.688 1398 582.688 1398 495.076 1400 c 0,21,22
 430.076 1400 430.076 1400 387.884 1363 c 0,23,24
 346.692 1326 346.692 1326 328.725 1249 c 1,25,-1
 215.725 1249 l 1,26,-1
 258.683 1470 l 1,27,28
 336.959 1492 336.959 1492 395.903 1502 c 0,29,30
 467.235 1514 467.235 1514 507.041 1513 c 0,31,32
 733.041 1513 733.041 1513 825.195 1272 c 1,33,-1
 1061.69 1398 l 1,34,-1
 1105.28 1293 l 1,35,-1
 859.813 1162 l 1,36,-1
 860.425 1160 l 1,37,-1
 1104.46 121 l 1,0,-1
EndSplineSet
EndChar
StartChar: uni019C
Encoding: 412 412 412
Width: 2167
Flags: W
TeX: 117 0 0 0
Fore
838.536 174 m 1,0,1
 743.932 68 743.932 68 648.504 19.5 c 128,-1,2
 553.076 -29 553.076 -29 438.076 -29 c 0,3,4
 255.076 -29 255.076 -29 184.695 74.5 c 128,-1,5
 114.313 178 114.313 178 154.938 387 c 2,6,-1
 346.403 1372 l 1,7,-1
 194.403 1372 l 1,8,-1
 217.924 1493 l 1,9,-1
 850.924 1493 l 1,10,-1
 827.403 1372 l 1,11,-1
 700.403 1372 l 1,12,-1
 519.241 440 l 2,13,14
 480.56 241 480.56 241 500.951 189 c 128,-1,15
 521.344 137 521.344 137 604.344 137 c 0,16,17
 698.344 137 698.344 137 764.437 209.5 c 128,-1,18
 830.529 282 830.529 282 856.576 416 c 2,19,-1
 1042.4 1372 l 1,20,-1
 915.403 1372 l 1,21,-1
 938.924 1493 l 1,22,-1
 1546.92 1493 l 1,23,-1
 1523.4 1372 l 1,24,-1
 1396.4 1372 l 1,25,-1
 1215.24 440 l 2,26,27
 1176.56 241 1176.56 241 1197.45 189 c 128,-1,28
 1218.34 137 1218.34 137 1300.34 137 c 0,29,30
 1395.34 137 1395.34 137 1461.44 209.5 c 128,-1,31
 1527.53 282 1527.53 282 1553.58 416 c 2,32,-1
 1739.4 1372 l 1,33,-1
 1612.4 1372 l 1,34,-1
 1635.92 1493 l 1,35,-1
 2267.92 1493 l 1,36,-1
 2244.4 1372 l 1,37,-1
 2093.4 1372 l 1,38,-1
 1850.23 121 l 1,39,-1
 2001.23 121 l 1,40,-1
 1977.71 0 l 1,41,-1
 1472.71 0 l 1,42,-1
 1501.87 150 l 1,43,44
 1421.79 57 1421.79 57 1333.43 14 c 128,-1,45
 1245.08 -29 1245.08 -29 1135.08 -29 c 0,46,47
 1005.08 -29 1005.08 -29 933.698 20.5 c 128,-1,48
 862.32 70 862.32 70 838.536 174 c 1,0,1
EndSplineSet
EndChar
StartChar: uni019D
Encoding: 413 413 413
Width: 1872
Flags: W
TeX: 117 0 0 0
Fore
-355.29 -358 m 1,0,-1
 -309.61 -123 l 1,1,-1
 -179.61 -123 l 1,2,3
 -207.407 -266 -207.407 -266 -113.238 -296 c 0,4,5
 -88.9883 -305 -88.9883 -305 -55.9883 -305 c 0,6,7
 41.0117 -305 41.0117 -305 93.5908 -230 c 0,8,9
 146.975 -156 146.975 -156 186.822 49 c 2,10,-1
 443.988 1372 l 1,11,-1
 252.988 1372 l 1,12,-1
 276.508 1493 l 1,13,-1
 743.508 1493 l 1,14,-1
 1439.05 436 l 1,15,-1
 1620.99 1372 l 1,16,-1
 1430.99 1372 l 1,17,-1
 1454.51 1493 l 1,18,-1
 1976.51 1493 l 1,19,-1
 1952.99 1372 l 1,20,-1
 1761.99 1372 l 1,21,-1
 1495.3 0 l 1,22,-1
 1233.3 0 l 1,23,-1
 528.034 1079 l 1,24,-1
 326.268 41 l 2,25,26
 270.869 -244 270.869 -244 140.653 -348 c 0,27,28
 44.4922 -426 44.4922 -426 -96.5078 -426 c 0,29,30
 -113.508 -426 -113.508 -426 -194.203 -409 c 0,31,32
 -274.899 -392 -274.899 -392 -355.29 -358 c 1,0,-1
EndSplineSet
EndChar
StartChar: uni019E
Encoding: 414 414 414
Width: 1489
Flags: W
TeX: 117 0 0 0
AnchorPoint: "above" 811.535 1092 basechar 0
Fore
156 0 m 1,0,-1
 339 942 l 1,1,-1
 188 942 l 1,2,-1
 212 1063 l 1,3,-1
 717 1063 l 1,4,-1
 688 913 l 1,5,6
 770 1008 770 1008 860.5 1050 c 128,-1,7
 951 1092 951 1092 1076 1092 c 0,8,9
 1255 1092 1255 1092 1325 986 c 0,10,11
 1396 880 1396 880 1357 676 c 2,12,-1
 1166 -305 l 1,13,-1
 1317 -305 l 1,14,-1
 1293 -426 l 1,15,-1
 788 -426 l 1,16,-1
 1005 686 l 2,17,18
 1031 823 1031 823 1007 874 c 0,19,20
 982 926 982 926 897 926 c 0,21,22
 790 926 790 926 725 848 c 0,23,24
 660 769 660 769 627 598 c 2,25,-1
 510 0 l 1,26,-1
 156 0 l 1,0,-1
EndSplineSet
EndChar
StartChar: uni019F
Encoding: 415 415 415
Width: 1784
Flags: W
TeX: 117 0 0 0
AnchorPoint: "above" 1032.86 1465 basechar 0
Fore
740.452 -29 m 0,0,1
 363.452 -29 363.452 -29 189.495 177 c 0,2,3
 15.5371 383 15.5371 383 85.9023 745 c 0,4,5
 156.269 1107 156.269 1107 410.908 1313.5 c 0,6,7
 665.548 1520 665.548 1520 1041.55 1520 c 0,8,9
 1418.55 1520 1418.55 1520 1592.5 1314 c 0,10,11
 1766.46 1108 1766.46 1108 1695.9 745 c 0,12,13
 1625.54 383 1625.54 383 1371 177 c 0,14,15
 1116.45 -29 1116.45 -29 740.452 -29 c 0,0,1
763.973 92 m 0,16,17
 954.973 92 954.973 92 1079.27 253 c 0,18,19
 1188.85 394.938 1188.85 394.938 1251.83 669 c 1,20,-1
 500.464 669 l 1,21,22
 457.542 397.589 457.542 397.589 512.06 254.5 c 0,23,24
 573.973 92 573.973 92 763.973 92 c 0,16,17
532.096 830 m 1,25,-1
 1282.79 830 l 1,26,27
 1324.25 1098.34 1324.25 1098.34 1270.73 1238 c 0,28,29
 1209.03 1399 1209.03 1399 1018.03 1399 c 0,30,31
 828.027 1399 828.027 1399 702.94 1236.5 c 0,32,33
 594.579 1095.73 594.579 1095.73 532.096 830 c 1,25,-1
EndSplineSet
EndChar
StartChar: uni01A2
Encoding: 418 418 418
Width: 2458
Flags: W
TeX: 117 0 0 0
Fore
770.748 -29 m 0,0,1
 393.748 -29 393.748 -29 219.79 177 c 0,2,3
 45.832 383 45.832 383 116.198 745 c 0,4,5
 186.563 1107 186.563 1107 441.203 1313.5 c 0,6,7
 695.843 1520 695.843 1520 1071.84 1520 c 0,8,9
 1326.09 1520 1326.09 1520 1487.99 1426.31 c 1,10,11
 1579.67 1459.33 1579.67 1459.33 1665.29 1476 c 0,12,13
 1752.59 1493 1752.59 1493 1835.59 1493 c 0,14,15
 2102.59 1493 2102.59 1493 2203.32 1381 c 0,16,17
 2304.05 1269 2304.05 1269 2256.82 1026 c 2,18,-1
 2012.68 -230 l 1,19,-1
 2203.68 -230 l 1,20,-1
 2180.16 -351 l 1,21,-1
 1411.16 -351 l 1,22,-1
 1434.68 -230 l 1,23,-1
 1625.68 -230 l 1,24,-1
 1868.26 1018 l 2,25,26
 1908.11 1223 1908.11 1223 1884.09 1297.5 c 0,27,28
 1860.07 1372 1860.07 1372 1763.07 1372 c 0,29,30
 1687.07 1372 1687.07 1372 1640.02 1328 c 0,31,32
 1632.06 1320.55 1632.06 1320.55 1624.75 1311.68 c 1,33,34
 1796.36 1105.96 1796.36 1105.96 1726.2 745 c 0,35,36
 1655.83 383 1655.83 383 1401.29 177 c 0,37,38
 1146.75 -29 1146.75 -29 770.748 -29 c 0,0,1
794.268 92 m 0,39,40
 985.268 92 985.268 92 1109.56 253 c 0,41,42
 1233.86 414 1233.86 414 1298.2 745 c 0,43,44
 1362.73 1077 1362.73 1077 1301.03 1238 c 0,45,46
 1239.32 1399 1239.32 1399 1048.32 1399 c 0,47,48
 858.323 1399 858.323 1399 733.236 1236.5 c 0,49,50
 608.149 1074 608.149 1074 544.198 745 c 0,51,52
 480.441 417 480.441 417 542.354 254.5 c 0,53,54
 604.268 92 604.268 92 794.268 92 c 0,39,40
EndSplineSet
EndChar
StartChar: uni01A3
Encoding: 419 419 419
Width: 1932
Flags: W
TeX: 117 0 0 0
Fore
1139.94 1026.6 m 1,23,24
 1291.01 1063 1291.01 1063 1405.9 1063 c 0,27,28
 1630.9 1063 1630.9 1063 1730.17 979.5 c 128,-1,30
 1829.4 895.818 1829.4 895.818 1797.75 733 c 2,31,-1
 1595.99 -305 l 1,32,-1
 1759.99 -305 l 1,33,-1
 1736.47 -426 l 1,34,-1
 1217.47 -426 l 1,35,-1
 1443.75 733 l 2,1,2
 1467.74 855.791 1467.74 855.791 1447.83 902.896 c 128,-1,4
 1427.93 950 1427.93 950 1362.4 950 c 128,-1,6
 1296.87 950 1296.87 950 1261.71 922.526 c 1,7,8
 1371.29 776.907 1371.29 776.907 1322.02 523.453 c 128,-1,10
 1272.75 270 1272.75 270 1084.19 120.5 c 128,-1,12
 895.635 -29 895.635 -29 614.635 -29 c 128,-1,14
 333.635 -29 333.635 -29 203.194 120.5 c 128,-1,16
 72.7539 270 72.7539 270 123.779 532.5 c 128,-1,18
 174.804 795 174.804 795 363.169 943.5 c 128,-1,20
 551.535 1092 551.535 1092 832.534 1092 c 0,21,22
 1019.68 1092 1019.68 1092 1139.94 1026.6 c 1,23,24
496.454 181 m 128,-1,52
 523.6 84 523.6 84 636.1 84 c 128,-1,38
 748.6 84 748.6 84 812.76 180 c 128,-1,40
 876.92 276 876.92 276 926.682 532 c 128,-1,42
 976.443 788 976.443 788 950.007 883.5 c 128,-1,44
 923.569 979 923.569 979 810.569 979 c 128,-1,46
 697.569 979 697.569 979 632.812 882.5 c 128,-1,48
 568.055 786 568.055 786 518.682 532 c 128,-1,50
 469.309 278 469.309 278 496.454 181 c 128,-1,52
EndSplineSet
EndChar
StartChar: uni01A4
Encoding: 420 420 420
Width: 1540
Flags: W
TeX: 117 0 0 0
Fore
432.104 1493 m 2,0,-1
 1091.1 1493 l 2,1,2
 1340.1 1493 1340.1 1493 1463.97 1374 c 0,3,4
 1588.04 1256 1588.04 1256 1549.36 1057 c 0,5,6
 1510.48 857 1510.48 857 1340.35 738 c 0,7,8
 1169.02 618 1169.02 618 921.022 618 c 2,9,-1
 647.022 618 l 1,10,-1
 550.415 121 l 1,11,-1
 791.415 121 l 1,12,-1
 767.896 0 l 1,13,-1
 -49.1045 0 l 1,14,-1
 -25.585 121 l 1,15,-1
 165.415 121 l 1,16,-1
 408.585 1372 l 1,17,18
 212.585 1372 212.585 1372 126.285 1283 c 0,19,20
 38.5967 1192 38.5967 1192 2.44141 1006 c 1,21,-1
 -195.559 1006 l 1,22,-1
 -125.97 1364 l 1,23,24
 -29.5576 1433 -29.5576 1433 215.801 1476 c 0,25,26
 314.104 1493 314.104 1493 432.104 1493 c 2,0,-1
670.542 739 m 1,27,-1
 782.542 739 l 2,28,29
 912.542 739 912.542 739 1007.45 826 c 0,30,31
 1101.17 912 1101.17 912 1129.36 1057 c 0,32,33
 1157.35 1201 1157.35 1201 1096.87 1286 c 0,34,35
 1036.58 1372 1036.58 1372 905.585 1372 c 2,36,-1
 793.585 1372 l 1,37,-1
 670.542 739 l 1,27,-1
EndSplineSet
EndChar
StartChar: uni01A5
Encoding: 421 421 421
Width: 1432
Flags: W
TeX: 117 0 0 0
Fore
567 584 m 2,0,-1
 546 479 l 2,1,2
 510 293 510 293 541 210 c 0,3,4
 573 127 573 127 679 127 c 0,5,6
 788 127 788 127 850 215 c 0,7,8
 911 303 911 303 955.5 532 c 128,-1,10
 1000 761 1000 761 973 848 c 0,11,12
 945 936 945 936 836 936 c 0,13,14
 730 936 730 936 666 853 c 0,15,16
 603 770 603 770 567 584 c 2,0,-1
317 1123 m 2,18,19
 349 1288 349 1288 480 1370 c 0,20,21
 613 1453 613 1453 838 1453 c 0,22,23
 898 1453 898 1453 964 1443 c 128,-1,25
 1030 1433 1030 1433 1099 1414 c 1,26,-1
 1055 1189 l 1,27,-1
 942 1189 l 1,28,29
 957 1267 957 1267 934 1304 c 0,30,31
 911 1340 911 1340 845 1340 c 0,32,33
 772 1340 772 1340 733.5 1293 c 128,-1,35
 695 1246 695 1246 671 1123 c 2,36,-1
 634 928 l 1,37,38
 695 1011 695 1011 779 1052 c 0,39,40
 862 1092 862 1092 974 1092 c 0,41,42
 1201 1092 1201 1092 1303 942 c 0,43,44
 1404 793 1404 793 1353.5 532 c 128,-1,46
 1303 271 1303 271 1144 121 c 0,47,48
 984 -29 984 -29 757 -29 c 0,49,50
 645 -29 645 -29 577 12 c 0,51,52
 508 52 508 52 479 135 c 1,53,-1
 370 -426 l 1,56,-1
 16 -426 l 1,57,-1
 317 1123 l 2,18,19
EndSplineSet
EndChar
StartChar: uni01A6
Encoding: 422 422 422
Width: 1702
Flags: W
TeX: 117 0 0 0
Fore
436.867 1372 m 1,0,-1
 245.867 1372 l 1,1,-1
 269.388 1493 l 1,2,-1
 1033.39 1493 l 1,3,-1
 1009.87 1372 l 1,4,-1
 821.867 1372 l 1,5,-1
 788.822 1202 l 1,6,-1
 1064.82 1202 l 2,7,8
 1324.82 1202 1324.82 1202 1446.01 1097.5 c 0,9,10
 1538.66 1017.6 1538.66 1017.6 1538.66 886.563 c 0,11,12
 1538.66 846.207 1538.66 846.207 1529.88 801 c 0,13,14
 1469.37 489.744 1469.37 489.744 1055.32 438 c 1,15,16
 1141.79 425 1141.79 425 1193.43 379.369 c 128,-1,17
 1245.07 333.737 1245.07 333.737 1274 246 c 2,18,-1
 1411.13 -170 l 1,19,-1
 1564.13 -170 l 1,20,-1
 1540.61 -291 l 1,21,-1
 1049.61 -291 l 1,22,-1
 899.278 160 l 2,23,24
 850.39 306.667 850.39 306.667 812.924 341.833 c 128,-1,25
 775.459 377 775.459 377 689.459 377 c 2,26,-1
 628.459 377 l 1,27,-1
 574.697 121 l 1,28,-1
 766.697 121 l 1,29,-1
 743.178 0 l 1,30,-1
 -24.8223 0 l 1,31,-1
 -1.30273 121 l 1,32,-1
 189.697 121 l 1,33,-1
 436.867 1372 l 1,0,-1
651.784 497 m 1,34,-1
 782.784 497 l 2,35,36
 922.784 497 922.784 497 1013.06 573 c 128,-1,37
 1103.33 649 1103.33 649 1130.74 790 c 0,38,39
 1139.24 833.75 1139.24 833.75 1139.24 871.146 c 0,40,41
 1139.24 954.271 1139.24 954.271 1097.22 1006 c 0,42,43
 1036.3 1081 1036.3 1081 896.303 1081 c 2,44,-1
 765.303 1081 l 1,45,-1
 651.784 497 l 1,34,-1
EndSplineSet
EndChar
StartChar: uni01A7
Encoding: 423 423 423
Width: 1479
Flags: W
TeX: 117 0 0 0
AnchorPoint: "above" 868.856 1465 basechar 0
Fore
1202.08 72 m 1,0,1
 1043.17 21 1043.17 21 894.312 -4 c 128,-1,2
 745.452 -29 745.452 -29 599.452 -29 c 0,3,4
 296.452 -29 296.452 -29 163.195 88 c 0,5,6
 30.1318 206 30.1318 206 74.0615 432 c 0,7,8
 111.577 625 111.577 625 225.959 735 c 0,9,10
 341.341 845 341.341 845 559.448 897 c 2,11,-1
 794.14 952 l 1,12,13
 1007.25 1004 1007.25 1004 1068.58 1052 c 0,14,15
 1130.1 1101 1130.1 1101 1148.18 1194 c 0,16,17
 1168.01 1296 1168.01 1296 1103.11 1348 c 0,18,19
 1037.03 1399 1037.03 1399 889.027 1399 c 0,20,21
 708.027 1399 708.027 1399 596.227 1328 c 0,22,23
 484.231 1256 484.231 1256 425.297 1102 c 1,24,-1
 298.297 1102 l 1,25,-1
 362.442 1432 l 1,26,27
 522.995 1476 522.995 1476 668.271 1498 c 0,28,29
 814.548 1520 814.548 1520 945.548 1520 c 0,30,31
 1211.55 1520 1211.55 1520 1334.44 1396 c 0,32,33
 1458.54 1273 1458.54 1273 1415.38 1051 c 0,34,35
 1379.62 867 1379.62 867 1271.37 768 c 0,36,37
 1162.94 668 1162.94 668 933.05 612 c 1,38,-1
 698.359 557 l 2,39,40
 518.001 514 518.001 514 453.282 464 c 128,-1,41
 388.562 414 388.562 414 371.068 324 c 0,42,43
 348.909 210 348.909 210 418.44 151 c 128,-1,44
 487.973 92 487.973 92 642.973 92 c 0,45,46
 833.973 92 833.973 92 958.106 175 c 128,-1,47
 1082.24 258 1082.24 258 1143.9 426 c 1,48,-1
 1270.9 426 l 1,49,-1
 1202.08 72 l 1,0,1
EndSplineSet
EndChar
StartChar: uni01A8
Encoding: 424 424 424
Width: 1153
Flags: W
TeX: 117 0 0 0
AnchorPoint: "above" 686.95 1092 basechar 0
Fore
963.713 31 m 1,0,1
 833.881 1 833.881 1 719.966 -14 c 128,-1,2
 606.05 -29 606.05 -29 507.05 -29 c 0,3,4
 236.05 -29 236.05 -29 123.572 56 c 0,5,6
 12.2891 142 12.2891 142 47.2773 322 c 0,7,8
 74.2959 461 74.2959 461 169.458 539 c 128,-1,9
 264.619 617 264.619 617 483.922 670 c 2,10,-1
 636.113 707 l 2,11,12
 723.195 728 723.195 728 761.222 759 c 128,-1,13
 799.247 790 799.247 790 809.744 844 c 0,14,15
 822.573 910 822.573 910 774.182 944 c 0,16,17
 724.985 979 724.985 979 616.985 979 c 0,18,19
 488.985 979 488.985 979 410.294 924 c 0,20,21
 330.604 869 330.604 869 300.416 760 c 1,22,-1
 187.416 760 l 1,23,-1
 239.51 1028 l 1,24,25
 374.925 1061 374.925 1061 483.84 1076 c 0,26,27
 593.95 1092 593.95 1092 687.95 1092 c 0,28,29
 937.95 1092 937.95 1092 1041.62 1008 c 0,30,31
 1145.1 923 1145.1 923 1111.47 750 c 0,32,33
 1086.2 620 1086.2 620 997.43 544 c 0,34,35
 908.463 467 908.463 467 735.493 426 c 2,36,-1
 582.301 389 l 2,37,38
 472.247 363 472.247 363 428.443 328 c 0,39,40
 385.641 293 385.641 293 373.2 229 c 0,41,42
 359.594 159 359.594 159 410.401 122 c 0,43,44
 460.015 84 460.015 84 568.015 84 c 0,45,46
 697.015 84 697.015 84 784.066 146 c 0,47,48
 871.312 209 871.312 209 908.443 328 c 1,49,-1
 1021.44 328 l 1,50,-1
 963.713 31 l 1,0,1
EndSplineSet
EndChar
StartChar: uni01AA
Encoding: 426 426 426
Width: 678
Flags: W
TeX: 117 0 0 0
Fore
942.131 1522.99 m 1,0,1
 924.923 1434.46 924.923 1434.46 862.086 1352.99 c 0,2,3
 813.473 1289.96 813.473 1289.96 707.113 1234.58 c 1,4,5
 705.912 1230.8 705.912 1230.8 704.595 1226.99 c 2,6,-1
 245.651 -100.012 l 2,7,8
 205.637 -215.712 205.637 -215.712 245.399 -286.512 c 0,9,10
 277.691 -344.012 277.691 -344.012 350.223 -344.012 c 0,11,12
 419.223 -344.012 419.223 -344.012 464.109 -306.012 c 128,-1,13
 508.995 -268.012 508.995 -268.012 532.157 -190.012 c 1,14,-1
 644.157 -190.012 l 1,15,-1
 599.839 -418.012 l 1,16,17
 518.146 -437.012 518.146 -437.012 435.299 -446.512 c 128,-1,18
 352.452 -456.012 352.452 -456.012 267.452 -456.012 c 0,19,20
 60.373 -456.012 60.373 -456.012 -46.7617 -364.512 c 0,21,22
 -165.449 -263.143 -165.449 -263.143 -107.571 -96.0117 c 2,23,-1
 318.069 1133.07 l 1,24,25
 281.183 1131.02 281.183 1131.02 242.534 1130.99 c 0,26,27
 179.924 1130.94 179.924 1130.94 134.526 1142.37 c 0,28,29
 -9.79395 1178.69 -9.79395 1178.69 19.8096 1330.99 c 0,30,31
 63.0127 1553.25 63.0127 1553.25 411.546 1555.99 c 0,32,33
 540.94 1557.01 540.94 1557.01 637.009 1473.49 c 0,34,35
 701.136 1417.74 701.136 1417.74 715.399 1349.43 c 1,36,37
 745.019 1372.06 745.019 1372.06 768.223 1399.99 c 0,38,39
 804.775 1443.99 804.775 1443.99 832.131 1522.99 c 1,40,-1
 942.131 1522.99 l 1,0,1
349.1 1222.67 m 1,41,-1
 350.595 1226.99 l 2,42,43
 393.559 1351.05 393.559 1351.05 354.639 1396.99 c 0,44,45
 331.076 1424.8 331.076 1424.8 302.471 1426.99 c 0,46,47
 171.878 1434.23 171.878 1434.23 154.726 1345.99 c 0,48,49
 130.127 1219.44 130.127 1219.44 314.028 1220.99 c 0,50,51
 330.983 1221.13 330.983 1221.13 349.1 1222.67 c 1,41,-1
EndSplineSet
EndChar
StartChar: uni01AB
Encoding: 427 427 427
Width: 946
Flags: W
TeX: 117 0 0 0
Fore
386.106 942 m 1,0,-1
 232.106 942 l 1,1,-1
 255.626 1063 l 1,2,-1
 409.626 1063 l 1,3,-1
 473.771 1393 l 1,4,-1
 827.771 1393 l 1,5,-1
 763.626 1063 l 1,6,-1
 1058.63 1063 l 1,7,-1
 1035.11 942 l 1,8,-1
 740.106 942 l 1,9,-1
 613.564 291 l 2,10,11
 586.546 152 586.546 152 601.937 118 c 0,12,13
 617.328 84 617.328 84 675.328 84 c 2,14,-1
 952.328 84 l 1,15,-1
 911.702 -125 l 2,16,17
 880.018 -288.003 880.018 -288.003 748.288 -371.5 c 0,18,19
 616.553 -455 616.553 -455 391.557 -455 c 0,20,21
 331.557 -455 331.557 -455 265.501 -445 c 0,22,23
 199.444 -435 199.444 -435 130.138 -416 c 1,24,-1
 173.873 -191 l 1,25,-1
 286.873 -191 l 1,26,27
 273.323 -271 273.323 -271 295.923 -306.5 c 0,28,29
 318.521 -342 318.521 -342 384.521 -342 c 0,30,31
 456.037 -342 456.037 -342 495.658 -295 c 0,32,33
 533.349 -250.289 533.349 -250.289 557.702 -125 c 2,34,-1
 576.364 -28.9932 l 1,35,36
 574.369 -29 574.369 -29 572.363 -29 c 0,37,38
 353.363 -29 353.363 -29 288.678 39.5 c 0,39,40
 223.993 108 223.993 108 259.564 291 c 2,41,-1
 386.106 942 l 1,0,-1
EndSplineSet
EndChar
StartChar: uni01AC
Encoding: 428 428 428
Width: 1524
Flags: W
TeX: 117 0 0 0
AnchorPoint: "above" 908.662 1465 basechar 0
Fore
687.475 1356 m 0,0,1
 479.475 1356 479.475 1356 408.285 1283 c 0,2,3
 320.597 1192 320.597 1192 284.441 1006 c 1,4,-1
 86.4414 1006 l 1,5,-1
 156.03 1364 l 1,6,7
 252.442 1433 252.442 1433 497.801 1476 c 0,8,9
 596.104 1493 596.104 1493 714.104 1493 c 1,10,-1
 1648.1 1493 l 1,11,-1
 1575.6 1120 l 1,12,-1
 1440.6 1120 l 1,13,-1
 1486.47 1356 l 1,14,-1
 1074.47 1356 l 1,15,-1
 834.415 121 l 1,16,-1
 1033.42 121 l 1,17,-1
 1009.9 0 l 1,18,-1
 225.896 0 l 1,19,-1
 249.415 121 l 1,20,-1
 447.415 121 l 1,21,-1
 687.475 1356 l 0,0,1
EndSplineSet
EndChar
StartChar: uni01AD
Encoding: 429 429 429
Width: 946
Flags: W
TeX: 117 0 0 0
Fore
237.697 942 m 1,0,-1
 83.6973 942 l 1,1,-1
 107.217 1063 l 1,2,-1
 261.217 1063 l 1,3,-1
 292.901 1226 l 2,4,5
 324.585 1389 324.585 1389 455.719 1472 c 0,6,7
 588.047 1556 588.047 1556 813.047 1556 c 0,8,9
 873.047 1556 873.047 1556 939.103 1546 c 0,10,11
 1005.16 1536 1005.16 1536 1074.47 1517 c 1,12,-1
 1030.73 1292 l 1,13,-1
 917.73 1292 l 1,14,15
 931.28 1372 931.28 1372 909.278 1408 c 0,16,17
 886.081 1443 886.081 1443 820.081 1443 c 0,18,19
 750.081 1443 750.081 1443 708.945 1396 c 0,20,21
 671.781 1354 671.781 1354 646.901 1226 c 2,22,-1
 615.217 1063 l 1,23,-1
 910.217 1063 l 1,24,-1
 886.697 942 l 1,25,-1
 591.697 942 l 1,26,-1
 465.155 291 l 2,27,28
 438.137 152 438.137 152 453.527 118 c 0,29,30
 468.919 84 468.919 84 526.919 84 c 0,31,32
 590.919 84 590.919 84 630.277 127 c 0,33,34
 669.636 170 669.636 170 689.13 260 c 1,35,-1
 838.13 260 l 1,36,37
 807.028 100 807.028 100 706.588 36 c 0,38,39
 615.953 -29 615.953 -29 423.953 -29 c 0,40,41
 204.953 -29 204.953 -29 140.366 40 c 0,42,43
 75.584 108 75.584 108 111.155 291 c 2,44,-1
 237.697 942 l 1,0,-1
EndSplineSet
EndChar
StartChar: uni01AE
Encoding: 430 430 430
Width: 1524
Flags: W
TeX: 117 0 0 0
AnchorPoint: "above" 950.065 1465 basechar 0
Fore
473.268 41 m 2,0,-1
 728.878 1356 l 1,1,-1
 319.878 1356 l 1,2,-1
 274.004 1120 l 1,3,-1
 137.004 1120 l 1,4,-1
 209.508 1493 l 1,5,-1
 1689.51 1493 l 1,6,-1
 1617 1120 l 1,7,-1
 1482 1120 l 1,8,-1
 1527.88 1356 l 1,9,-1
 1115.88 1356 l 1,10,-1
 861.822 49 l 2,11,12
 821.975 -156 821.975 -156 845.591 -230 c 0,13,14
 870.012 -305 870.012 -305 967.012 -305 c 0,15,16
 1043.01 -305 1043.01 -305 1089.56 -261 c 0,17,18
 1137.12 -217 1137.12 -217 1161.39 -123 c 1,19,-1
 1291.39 -123 l 1,20,-1
 1245.71 -358 l 1,21,22
 1152.1 -392 1152.1 -392 1064.8 -409 c 128,-1,23
 977.492 -426 977.492 -426 894.492 -426 c 0,24,25
 627.492 -426 627.492 -426 527.263 -314 c 0,26,27
 426.033 -202 426.033 -202 473.268 41 c 2,0,-1
EndSplineSet
EndChar
StartChar: uni01B1
Encoding: 433 433 433
Width: 1823
Flags: W
TeX: 117 0 0 0
Fore
685.963 1336 m 1,0,-1
 351.963 1336 l 1,1,-1
 327.665 1211 l 1,2,-1
 190.665 1211 l 1,3,-1
 250.729 1520 l 1,4,-1
 983.729 1520 l 1,5,-1
 946.214 1327 l 1,6,7
 783.993 1295 783.993 1295 674.447 1143 c 128,-1,8
 564.902 991 564.902 991 513.196 725 c 0,9,10
 455.854 430 455.854 430 525.92 276 c 0,11,12
 595.791 121 595.791 121 787.791 121 c 128,-1,13
 979.791 121 979.791 121 1109.92 276 c 0,14,15
 1238.85 430 1238.85 430 1296.59 727 c 0,16,17
 1347.32 988 1347.32 988 1296.25 1142 c 0,18,19
 1244.99 1295 1244.99 1295 1097.21 1327 c 1,20,-1
 1134.73 1520 l 1,21,-1
 1868.73 1520 l 1,22,-1
 1808.67 1211 l 1,23,-1
 1672.67 1211 l 1,24,-1
 1696.96 1336 l 1,25,-1
 1361.96 1336 l 1,26,27
 1581.08 1244 1581.08 1244 1671.98 1084 c 0,28,29
 1762.68 923 1762.68 923 1719.92 703 c 0,30,31
 1658.5 387 1658.5 387 1395.98 194 c 0,32,33
 1134.27 0 1134.27 0 764.271 0 c 128,-1,34
 394.271 0 394.271 0 206.98 194 c 0,35,36
 19.4961 387 19.4961 387 80.9199 703 c 0,37,38
 123.684 923 123.684 923 276.979 1084 c 0,39,40
 430.08 1244 430.08 1244 685.963 1336 c 1,0,-1
EndSplineSet
EndChar
StartChar: uni01B2
Encoding: 434 434 434
Width: 1823
Flags: W
TeX: 117 0 0 0
Fore
790.415 121 m 1,0,1
 982.415 121 982.415 121 1111.95 275.5 c 128,-1,2
 1241.48 430 1241.48 430 1299.21 727 c 0,3,4
 1350.43 990.493 1350.43 990.493 1298.78 1141.5 c 0,5,6
 1254.15 1272 1254.15 1272 1194.15 1272 c 1,7,-1
 1213.58 1372 l 1,8,-1
 1333.58 1372 l 1,9,10
 1562.83 1281.94 1562.83 1281.94 1674.51 1083.5 c 0,11,12
 1765.31 923 1765.31 923 1722.54 703 c 0,13,14
 1661.12 387 1661.12 387 1399.01 193.5 c 128,-1,15
 1136.9 0 1136.9 0 766.896 0 c 1,16,-1
 566.896 0 l 2,17,18
 366.075 0 366.075 0 333.561 24 c 0,19,20
 227.743 102.108 227.743 102.108 273.401 337 c 2,21,-1
 474.585 1372 l 1,22,-1
 283.585 1372 l 1,23,-1
 307.104 1493 l 1,24,-1
 1075.1 1493 l 1,25,-1
 1051.58 1372 l 1,26,-1
 859.585 1372 l 1,27,-1
 665.399 373 l 2,28,29
 640.392 244.35 640.392 244.35 667.272 182 c 0,30,31
 693.571 121 693.571 121 790.415 121 c 1,0,1
EndSplineSet
EndChar
StartChar: uni01B3
Encoding: 435 435 435
Width: 1462
Flags: W
TeX: 117 0 0 0
AnchorPoint: "above" 871.828 1472 basechar 0
Fore
1323.39 1372 m 2,0,1
 1419.5 1495 1419.5 1495 1591.3 1495 c 0,2,3
 1640 1495 1640 1495 1676.36 1485 c 0,4,5
 1742.41 1475 1742.41 1475 1811.72 1456 c 1,6,-1
 1767.98 1231 l 1,7,-1
 1654.98 1231 l 1,8,9
 1668.53 1311 1668.53 1311 1645.93 1346.5 c 128,-1,10
 1623.33 1382 1623.33 1382 1557.33 1382 c 0,11,12
 1483.04 1382 1483.04 1382 1446.2 1335 c 2,13,-1
 924.936 670 l 1,14,-1
 818.221 121 l 1,15,-1
 1019.22 121 l 1,16,-1
 995.701 0 l 1,17,-1
 206.701 0 l 1,18,-1
 230.221 121 l 1,19,-1
 431.221 121 l 1,20,-1
 527.828 618 l 1,21,-1
 230.391 1372 l 1,22,-1
 103.391 1372 l 1,23,-1
 126.91 1493 l 1,24,-1
 842.91 1493 l 1,25,-1
 819.391 1372 l 1,26,-1
 653.391 1372 l 1,27,-1
 878.788 803 l 1,28,-1
 1323.39 1372 l 2,0,1
EndSplineSet
EndChar
StartChar: uni01B4
Encoding: 436 436 436
Width: 1431
Flags: W
TeX: 117 0 0 0
AnchorPoint: "above" 756.353 1092 basechar 0
Fore
1229.25 932 m 2,0,-1
 530.438 -240 l 1,1,2
 459.695 -357 459.695 -357 382.171 -406 c 128,-1,3
 304.646 -455 304.646 -455 189.646 -455 c 0,4,5
 140.646 -455 140.646 -455 82.7842 -444 c 128,-1,6
 24.9229 -433 24.9229 -433 -41.9951 -412 c 1,7,-1
 1.15723 -190 l 1,8,-1
 113.963 -191 l 1,9,10
 101.995 -268 101.995 -268 128.303 -305 c 128,-1,11
 154.611 -342 154.611 -342 221.611 -342 c 0,12,13
 286.611 -342 286.611 -342 333.512 -306.5 c 128,-1,14
 380.412 -271 380.412 -271 439.656 -172 c 1,15,-1
 462.848 -135 l 1,16,-1
 209.195 942 l 1,17,-1
 94.1953 942 l 1,18,-1
 117.716 1063 l 1,19,-1
 730.716 1063 l 1,20,-1
 707.195 942 l 1,21,-1
 580.195 942 l 1,22,-1
 727.931 313 l 1,23,-1
 1102.2 942 l 2,24,25
 1192.06 1093.02 1192.06 1093.02 1362.35 1092 c 0,26,27
 1393.35 1092 1393.35 1092 1459.41 1082 c 128,-1,28
 1525.46 1072 1525.46 1072 1594.77 1053 c 1,29,-1
 1551.04 828 l 1,30,-1
 1438.04 828 l 1,31,32
 1451.59 908 1451.59 908 1428.99 943.5 c 128,-1,33
 1406.39 979 1406.39 979 1340.39 979 c 0,34,35
 1259.8 983.243 1259.8 983.243 1229.25 932 c 2,0,-1
EndSplineSet
EndChar
StartChar: uni01B5
Encoding: 437 437 437
Width: 1495
Flags: W
TeX: 117 0 0 0
AnchorPoint: "above" 887.662 1465 basechar 0
Fore
-69.1045 0 m 1,0,-1
 -41.6973 141 l 1,1,-1
 438.992 659 l 1,2,-1
 216.992 659 l 1,3,-1
 254.312 851 l 1,4,-1
 617.312 851 l 1,5,-1
 1085.47 1356 l 1,6,-1
 370.475 1356 l 1,7,-1
 327.128 1133 l 1,8,-1
 190.128 1133 l 1,9,-1
 260.104 1493 l 1,10,-1
 1556.1 1493 l 1,11,-1
 1528.7 1352 l 1,12,-1
 1068.31 851 l 1,13,-1
 1311.31 851 l 1,14,-1
 1273.99 659 l 1,15,-1
 891.992 659 l 1,16,-1
 411.525 137 l 1,17,-1
 1165.53 137 l 1,18,-1
 1206.15 346 l 1,19,-1
 1343.15 346 l 1,20,-1
 1275.9 0 l 1,21,-1
 -69.1045 0 l 1,0,-1
EndSplineSet
EndChar
StartChar: uni01B6
Encoding: 438 438 438
Width: 1163
Flags: W
TeX: 117 0 0 0
AnchorPoint: "below" 478.687 0 basechar 0
AnchorPoint: "above" 690 1092 basechar 0
Fore
127 479 m 1,0,-1
 150 600 l 1,1,-1
 439 600 l 1,2,-1
 690 869 l 1,3,4
 665 878 665 878 630 897 c 0,5,6
 506 965 506 965 424 965 c 0,7,8
 304 965 304 965 124 820 c 1,9,-1
 155 978 l 1,10,11
 335 1148 335 1148 492 1146 c 0,12,13
 570 1145 570 1145 703 1078 c 0,14,15
 846 1005 846 1005 902 1005 c 128,-1,16
 958 1005 958 1005 1016 1028 c 128,-1,17
 1074 1051 1074 1051 1098 1065 c 1,18,-1
 1197 1063 l 1,19,-1
 1174 944 l 1,20,-1
 853 600 l 1,21,-1
 1039 600 l 1,22,-1
 1016 479 l 1,23,-1
 739 479 l 1,24,-1
 474 195 l 1,25,26
 500 186 500 186 536 166 c 0,27,28
 660 98 660 98 742 98 c 0,29,30
 862 98 862 98 1042 243 c 1,31,-1
 1011 85 l 1,32,33
 831 -85 831 -85 674 -83 c 0,34,35
 596 -82 596 -82 463 -15 c 0,36,37
 320 58 320 58 264 58 c 128,-1,38
 208 58 208 58 150 35 c 128,-1,39
 92 12 92 12 68 -2 c 1,40,-1
 -31 0 l 1,41,-1
 -8 121 l 1,42,-1
 326 479 l 1,43,-1
 127 479 l 1,0,-1
EndSplineSet
EndChar
StartChar: uni01B7
Encoding: 439 439 439
Width: 1163
Flags: W
TeX: 117 0 0 0
Fore
751.098 839.25 m 1,0,1
 967.323 818.318 967.323 818.318 1062.39 734 c 0,2,3
 1198.84 612.849 1198.84 612.849 1158.05 403 c 24,4,5
 1117.42 194 1117.42 194 930.25 82.5 c 128,-1,6
 743.076 -29 743.076 -29 429.076 -29 c 0,7,8
 311.076 -29 311.076 -29 189.464 -9 c 128,-1,9
 67.8516 11 67.8516 11 -61.373 51 c 1,10,-1
 2.38379 379 l 1,11,-1
 123.384 379 l 1,12,13
 106.782 237 106.782 237 170.301 162.5 c 128,-1,14
 233.819 88 233.819 88 371.819 88 c 0,15,16
 523.819 88 523.819 88 623.244 172.5 c 128,-1,17
 722.669 257 722.669 257 752.798 412 c 0,18,19
 784.288 574 784.288 574 714.894 662 c 128,-1,20
 645.499 750 645.499 750 486.499 750 c 2,21,-1
 420.499 750 l 1,22,-1
 464.138 974.5 l 1,23,-1
 803.293 1356 l 1,24,-1
 373.293 1356 l 1,25,-1
 329.946 1133 l 1,26,-1
 192.946 1133 l 1,27,-1
 262.924 1493 l 1,28,-1
 1241.92 1493 l 1,29,-1
 1215.29 1356 l 1,30,-1
 751.098 839.25 l 1,0,1
EndSplineSet
EndChar
StartChar: uni01B8
Encoding: 440 440 440
Width: 1163
Flags: W
TeX: 117 0 0 0
Fore
583.598 839.25 m 1,0,-1
 320.293 1356 l 1,1,-1
 346.924 1493 l 1,2,-1
 1325.92 1493 l 1,3,-1
 1255.95 1133 l 1,4,-1
 1118.95 1133 l 1,5,-1
 1162.29 1356 l 1,6,-1
 732.293 1356 l 1,7,-1
 923.138 974.5 l 1,8,-1
 879.499 750 l 1,9,-1
 813.499 750 l 2,10,11
 654.499 750 654.499 750 550.894 662 c 128,-1,12
 447.288 574 447.288 574 415.798 412 c 0,13,14
 385.669 257 385.669 257 452.244 172.5 c 128,-1,15
 518.819 88 518.819 88 670.819 88 c 0,16,17
 808.819 88 808.819 88 901.301 162.5 c 128,-1,18
 993.782 237 993.782 237 1032.38 379 c 1,19,-1
 1153.38 379 l 1,20,-1
 1089.63 51 l 1,21,22
 944.852 11 944.852 11 815.464 -9 c 128,-1,23
 686.076 -29 686.076 -29 568.076 -29 c 0,24,25
 254.076 -29 254.076 -29 110.25 82.5 c 128,-1,26
 -33.5762 194 -33.5762 194 7.04883 403 c 24,27,28
 47.8398 612.849 47.8398 612.849 231.389 734 c 0,29,30
 359.233 818.318 359.233 818.318 583.598 839.25 c 1,0,-1
EndSplineSet
EndChar
StartChar: uni01B9
Encoding: 441 441 441
Width: 1163
Flags: W
TeX: 117 0 0 0
Fore
587.776 452.25 m 1,0,1
 319.613 944 l 1,30,-1
 342.744 1063 l 1,29,-1
 1332.74 1063 l 1,28,-1
 1274.62 764 l 1,27,-1
 1155.62 764 l 1,26,-1
 1191 946 l 1,25,-1
 732.002 946 l 1,24,-1
 927.316 587.5 l 1,23,-1
 883.678 363 l 1,22,-1
 817.678 363 l 2,21,-1
 658.678 363 658.678 363 555.072 275 c 128,-1,20
 451.467 187 451.467 187 419.978 25 c 0,18,19
 389.849 -130 389.849 -130 456.424 -214.5 c 128,-1,17
 522.998 -299 522.998 -299 674.998 -299 c 0,15,16
 812.998 -299 812.998 -299 905.479 -224.5 c 128,-1,14
 997.961 -150 997.961 -150 1036.56 -8 c 1,12,13
 1157.56 -8 l 1,11,-1
 1093.81 -336 l 1,10,-1
 949.031 -376 949.031 -376 819.644 -396 c 128,-1,9
 690.256 -416 690.256 -416 572.256 -416 c 0,7,8
 258.256 -416 258.256 -416 114.429 -304.5 c 128,-1,6
 -29.3975 -193 -29.3975 -193 11.2285 16 c 24,4,5
 52.0186 225.849 52.0186 225.849 235.568 347 c 0,2,3
 363.413 431.318 363.413 431.318 587.776 452.25 c 1,0,1
EndSplineSet
EndChar
StartChar: uni01BB
Encoding: 443 443 443
Width: 1425
Flags: W
TeX: 117 0 0 0
Fore
340.755 1124 m 1,0,-1
 220.755 1124 l 1,1,-1
 283.345 1446 l 1,2,3
 412.537 1483 412.537 1483 536.23 1502 c 0,4,5
 658.729 1520 658.729 1520 780.729 1520 c 0,6,7
 1065.73 1520 1065.73 1520 1203.18 1404 c 0,8,9
 1339.44 1287 1339.44 1287 1299.01 1079 c 0,10,11
 1274.71 954 1274.71 954 1191.69 851 c 1,12,-1
 1308.69 851 l 1,13,-1
 1271.37 659 l 1,14,-1
 968.367 659 l 1,15,16
 883.288 602 883.288 602 769.265 535 c 2,17,-1
 300.198 262 l 1,18,-1
 1007.2 262 l 1,19,-1
 1041.41 438 l 1,20,-1
 1178.41 438 l 1,21,-1
 1093.27 0 l 1,22,-1
 -10.7295 0 l 1,23,-1
 36.7002 244 l 1,24,-1
 287.44 397 l 2,25,26
 531.402 546 531.402 546 658.367 659 c 1,27,-1
 214.367 659 l 1,28,-1
 251.688 851 l 1,29,-1
 814.688 851 l 1,30,31
 864.377 942 864.377 942 885.176 1049 c 0,32,33
 918.804 1222 918.804 1222 865.298 1312 c 0,34,35
 810.986 1403 810.986 1403 673.986 1403 c 0,36,37
 555.986 1403 555.986 1403 471.186 1332 c 0,38,39
 386.19 1260 386.19 1260 340.755 1124 c 1,0,-1
EndSplineSet
EndChar
StartChar: uni01BC
Encoding: 444 444 444
Width: 1544
Flags: W
TeX: 117 0 0 0
Fore
1046.99 840 m 0,0,1
 1235.97 809 1235.97 809 1312.14 707 c 0,2,3
 1388.31 605 1388.31 605 1349.05 403 c 0,4,5
 1308.42 194 1308.42 194 1121.25 82.5 c 0,6,7
 934.076 -29 934.076 -29 620.076 -29 c 0,8,9
 502.076 -29 502.076 -29 380.464 -9 c 0,10,11
 258.852 11 258.852 11 129.627 51 c 1,12,-1
 193.384 379 l 1,13,-1
 314.384 379 l 1,14,15
 297.782 237 297.782 237 361.301 162.5 c 0,16,17
 424.819 88 424.819 88 562.819 88 c 0,18,19
 714.819 88 714.819 88 814.244 172.5 c 0,20,21
 913.669 257 913.669 257 943.798 412 c 0,22,23
 975.288 574 975.288 574 905.894 662 c 0,24,25
 836.499 750 836.499 750 677.499 750 c 2,26,-1
 290.499 750 l 1,27,-1
 411.403 1372 l 1,28,-1
 220.403 1372 l 1,29,-1
 243.924 1493 l 1,30,-1
 1574.92 1493 l 1,31,-1
 1506.5 1141 l 1,32,-1
 1369.5 1141 l 1,33,-1
 1411.29 1356 l 1,34,-1
 795.293 1356 l 1,35,-1
 700.815 869.953 l 1,36,37
 871.325 868.817 871.325 868.817 1046.99 840 c 0,0,1
EndSplineSet
EndChar
StartChar: uni01BD
Encoding: 445 445 445
Width: 1163
Flags: W
TeX: 117 0 0 0
Fore
759.115 472 m 0,0,1
 1011.8 418.734 1011.8 418.734 1070.41 366.75 c 0,2,3
 1206.86 245.599 1206.86 245.599 1162.23 16 c 0,4,5
 1121.6 -193 1121.6 -193 934.429 -304.5 c 0,6,7
 747.256 -416 747.256 -416 433.256 -416 c 0,8,9
 315.256 -416 315.256 -416 193.644 -396 c 0,10,11
 72.0312 -376 72.0312 -376 -57.1934 -336 c 1,12,-1
 6.5625 -8 l 1,13,-1
 127.562 -8 l 1,14,15
 110.961 -150 110.961 -150 174.479 -224.5 c 0,16,17
 237.998 -299 237.998 -299 375.998 -299 c 0,18,19
 527.998 -299 527.998 -299 627.424 -214.5 c 0,20,21
 726.849 -130 726.849 -130 756.978 25 c 0,22,23
 788.467 187 788.467 187 719.072 275 c 0,24,25
 649.678 363 649.678 363 490.678 363 c 2,26,-1
 227.678 363 l 1,27,-1
 340.225 942 l 1,28,-1
 189.225 942 l 1,29,-1
 212.744 1063 l 1,30,-1
 1316.74 1063 l 1,31,-1
 1260.57 774 l 1,32,-1
 1139.57 774 l 1,33,-1
 1172.22 942 l 1,34,-1
 694.225 942 l 1,35,-1
 605.032 483.149 l 1,36,37
 717.35 480.804 717.35 480.804 759.115 472 c 0,0,1
EndSplineSet
EndChar
StartChar: uni01BE
Encoding: 446 446 446
Width: 1098
Flags: W
TeX: 117 0 0 0
Fore
341.302 1393 m 1,0,-1
 695.302 1393 l 1,1,-1
 628.435 1049 l 1,2,-1
 776.435 1049 l 1,3,-1
 752.915 928 l 1,4,-1
 604.915 928 l 1,5,-1
 577.507 787 l 1,6,7
 603.094 778.699 603.094 778.699 676.984 702 c 0,8,9
 758.531 617.354 758.531 617.354 712.395 380 c 0,10,11
 668.854 156 668.854 156 552.775 63 c 128,-1,12
 436.698 -30 436.698 -30 176.698 -30 c 0,13,14
 104.702 -30 104.702 -30 41.8086 -14 c 128,-1,15
 -21.0732 2 -21.0732 2 -76.4727 36 c 1,16,-1
 -40.9854 234 l 1,17,-1
 72.0146 234 l 1,18,19
 60.0752 152 60.0752 152 81.0635 118.5 c 0,20,21
 102.46 83 102.46 83 192.663 83 c 0,22,23
 294.238 83 294.238 83 328.799 130 c 0,24,25
 363.341 178.49 363.341 178.49 412.614 412 c 0,26,27
 457.047 622.566 457.047 622.566 419.987 666 c 0,28,29
 394.39 696 394.39 696 321.818 696 c 2,30,-1
 205.818 696 l 1,31,-1
 250.915 928 l 1,32,-1
 95.915 928 l 1,33,-1
 119.435 1049 l 1,34,-1
 274.435 1049 l 1,35,-1
 341.302 1393 l 1,0,-1
EndSplineSet
EndChar
StartChar: uni01C0
Encoding: 448 448 448
Width: 604
Flags: W
TeX: 117 0 0 0
Fore
554.604 1493 m 1,0,-1
 264.396 0 l 1,1,-1
 49.3955 0 l 1,2,-1
 339.604 1493 l 1,3,-1
 554.604 1493 l 1,0,-1
EndSplineSet
EndChar
StartChar: uni01C2
Encoding: 450 450 450
Width: 940
Flags: W
TeX: 117 0 0 0
Fore
382.812 851 m 1,0,-1
 38.3125 851 l 1,1,-1
 69.8027 1013 l 1,2,-1
 414.303 1013 l 1,3,-1
 507.604 1493 l 1,4,-1
 722.604 1493 l 1,5,-1
 629.303 1013 l 1,6,-1
 973.803 1013 l 1,7,-1
 942.312 851 l 1,8,-1
 597.812 851 l 1,9,-1
 557.188 642 l 1,10,-1
 901.688 642 l 1,11,-1
 870.197 480 l 1,12,-1
 525.697 480 l 1,13,-1
 432.396 0 l 1,14,-1
 217.396 0 l 1,15,-1
 310.697 480 l 1,16,-1
 -33.8027 480 l 1,17,-1
 -2.3125 642 l 1,18,-1
 342.188 642 l 1,19,-1
 382.812 851 l 1,0,-1
EndSplineSet
EndChar
StartChar: uni01C3
Encoding: 451 451 451
Width: 604
Flags: W
TeX: 117 0 0 0
Fore
306.381 216 m 1,0,-1
 264.396 0 l 1,1,-1
 49.3955 0 l 1,2,-1
 91.3809 216 l 1,3,-1
 306.381 216 l 1,0,-1
554.604 1493 m 1,4,-1
 348.367 432 l 1,5,-1
 133.367 432 l 1,6,-1
 339.604 1493 l 1,7,-1
 554.604 1493 l 1,4,-1
EndSplineSet
EndChar
StartChar: uni01E4
Encoding: 484 484 484
Width: 1834
Flags: W
TeX: 0 0 0 0
Fore
1463.13 1024 m 1,0,1
 1456.62 1222 1456.62 1222 1368.83 1310.5 c 128,-1,2
 1281.03 1399 1281.03 1399 1090.03 1399 c 0,3,4
 858.027 1399 858.027 1399 718.913 1241.5 c 128,-1,5
 579.798 1084 579.798 1084 513.902 745 c 0,6,7
 448.591 409 448.591 409 521.782 250.5 c 128,-1,8
 594.973 92 594.973 92 814.973 92 c 0,9,10
 898.973 92 898.973 92 974.666 111 c 128,-1,11
 1050.36 130 1050.36 130 1116.75 168 c 1,12,-1
 1144.54 311 l 1,13,-1
 775.542 311 l 1,14,-1
 798.867 431 l 1,15,-1
 1167.87 431 l 1,16,-1
 1196.44 578 l 1,17,-1
 1016.44 578 l 1,18,-1
 1039.77 698 l 1,19,-1
 1577.77 698 l 1,20,-1
 1525.87 431 l 1,21,-1
 1724.87 431 l 1,22,-1
 1701.54 311 l 1,23,-1
 1502.54 311 l 1,24,-1
 1466.39 125 l 1,25,26
 1283.23 47 1283.23 47 1108.34 9 c 128,-1,27
 933.452 -29 933.452 -29 758.452 -29 c 0,28,29
 374.452 -29 374.452 -29 195.189 178 c 128,-1,30
 15.9258 385 15.9258 385 85.9023 745 c 0,31,32
 156.074 1106 156.074 1106 415.811 1313 c 128,-1,33
 675.548 1520 675.548 1520 1059.55 1520 c 0,34,35
 1219.55 1520 1219.55 1520 1368.33 1488 c 128,-1,36
 1517.11 1456 1517.11 1456 1661.47 1391 c 1,37,-1
 1590.13 1024 l 1,38,-1
 1463.13 1024 l 1,0,1
EndSplineSet
EndChar
StartChar: uni01E5
Encoding: 485 485 485
Width: 1432
Flags: W
TeX: 0 0 0 0
AnchorPoint: "below" 532.506 -430 basechar 0
AnchorPoint: "above" 786 1092 basechar 0
Fore
987 876 m 1,0,1
 982 936 982 936 918 936 c 0,2,3
 736 936 736 936 622 776 c 0,4,5
 551 675 551 675 508 455 c 0,6,7
 472 270 472 270 502.5 198.5 c 128,-1,8
 533 127 533 127 642 127 c 0,9,10
 746 127 746 127 810 210 c 0,11,12
 873.211 291.977 873.211 291.977 909.219 475 c 1,13,-1
 702 475 l 1,14,-1
 726 596 l 1,15,-1
 932.693 596 l 1,16,-1
 987 876 l 1,0,1
1263.66 475 m 1,17,-1
 1174 14 l 2,18,19
 1126 -231 1126 -231 947 -332 c 0,20,21
 728 -455 728 -455 473 -455 c 0,22,23
 367 -455 367 -455 261 -438.5 c 128,-1,24
 155 -422 155 -422 46 -389 c 1,25,-1
 96 -135 l 1,26,-1
 209 -135 l 1,27,28
 208 -144 208 -144 208 -152 c 0,29,30
 208 -244 208 -244 263 -291 c 0,31,32
 323 -342 323 -342 452 -342 c 0,33,34
 616 -342 616 -342 698.5 -263.5 c 128,-1,35
 781 -185 781 -185 820 14 c 2,36,-1
 843 135 l 1,37,38
 721 -29 721 -29 496 -29 c 0,39,40
 273 -29 273 -29 170 98.5 c 128,-1,41
 67 226 67 226 110 448 c 0,42,43
 163 720 163 720 416 916 c 0,44,45
 643.034 1091.96 643.034 1091.96 976 1092 c 0,46,47
 1245 1092 1245 1092 1365 996 c 1,48,-1
 1287.2 596 l 1,49,-1
 1438 596 l 1,50,-1
 1414 475 l 1,51,-1
 1263.66 475 l 1,17,-1
EndSplineSet
EndChar
StartChar: uni01F6
Encoding: 502 502 502
Width: 2501
Flags: W
TeX: 117 0 0 0
AnchorPoint: "above" 1112.48 1465 basechar 0
Fore
1630.2 625 m 2,0,1
 1566.31 296.316 1566.31 296.316 1604.3 234.5 c 0,2,3
 1672.81 123 1672.81 123 1824.62 123 c 0,4,5
 2000.62 123 2000.62 123 2108.99 235.5 c 128,-1,6
 2217.36 348 2217.36 348 2271.2 625 c 2,7,-1
 2333.01 943 l 1,8,-1
 2143.01 943 l 1,9,-1
 2166.34 1063 l 1,10,-1
 2495.34 1063 l 1,11,-1
 2406.12 604 l 2,12,13
 2338.96 258.504 2338.96 258.504 2163.36 116.5 c 0,14,15
 1983.44 -29 1983.44 -29 1668.08 -29 c 0,16,17
 1359.09 -29 1359.09 -29 1256.65 118 c 0,18,19
 1170.64 241.425 1170.64 241.425 1241.12 604 c 2,20,-1
 1266.19 733 l 1,21,-1
 672.194 733 l 1,22,-1
 553.233 121 l 1,23,-1
 745.233 121 l 1,24,-1
 721.714 0 l 1,25,-1
 -46.2861 0 l 1,26,-1
 -22.7666 121 l 1,27,-1
 168.233 121 l 1,28,-1
 411.403 1372 l 1,29,-1
 220.403 1372 l 1,30,-1
 243.924 1493 l 1,31,-1
 1011.92 1493 l 1,32,-1
 988.403 1372 l 1,33,-1
 796.403 1372 l 1,34,-1
 698.824 870 l 1,35,-1
 1292.82 870 l 1,36,-1
 1390.4 1372 l 1,37,-1
 1199.4 1372 l 1,38,-1
 1222.92 1493 l 1,39,-1
 1990.92 1493 l 1,40,-1
 1967.4 1372 l 1,41,-1
 1775.4 1372 l 1,42,-1
 1630.2 625 l 2,0,1
EndSplineSet
EndChar
StartChar: uni01F9
Encoding: 505 505 505
Width: 1489
Flags: W
TeX: 117 0 0 0
Fore
-89.1973 0 m 1,0,-1
 -65.6777 121 l 1,1,-1
 85.3223 121 l 1,2,-1
 244.909 942 l 1,3,-1
 93.9092 942 l 1,4,-1
 117.429 1063 l 1,5,-1
 622.429 1063 l 1,6,-1
 593.271 913 l 1,7,8
 675.738 1008 675.738 1008 765.901 1050 c 128,-1,9
 856.065 1092 856.065 1092 981.065 1092 c 0,10,11
 1160.07 1092 1160.07 1092 1231.06 986.5 c 128,-1,12
 1302.05 881 1302.05 881 1262.2 676 c 2,13,-1
 1154.32 121 l 1,14,-1
 1306.32 121 l 1,15,-1
 1282.8 0 l 1,16,-1
 647.803 0 l 1,17,-1
 671.322 121 l 1,18,-1
 800.322 121 l 1,19,-1
 910.147 686 l 2,20,21
 936.389 821 936.389 821 912.094 873.5 c 128,-1,22
 887.799 926 887.799 926 802.799 926 c 0,23,24
 695.799 926 695.799 926 630.54 847.5 c 128,-1,25
 565.281 769 565.281 769 532.042 598 c 2,26,-1
 439.322 121 l 1,27,-1
 569.322 121 l 1,28,-1
 545.803 0 l 1,29,-1
 -89.1973 0 l 1,0,-1
731.197 1638 m 1,30,-1
 916.11 1262 l 1,31,-1
 752.11 1262 l 1,32,-1
 452.197 1638 l 1,33,-1
 731.197 1638 l 1,30,-1
EndSplineSet
EndChar
